<?xml version="1.0" encoding="utf-8"?>
<!-- Generator: Adobe Illustrator 15.0.0, SVG Export Plug-In . SVG Version: 6.00 Build 0)  -->
<!DOCTYPE svg PUBLIC "-//W3C//DTD SVG 1.1//EN" "http://www.w3.org/Graphics/SVG/1.1/DTD/svg11.dtd">
<svg version="1.1" xmlns="http://www.w3.org/2000/svg" xmlns:xlink="http://www.w3.org/1999/xlink" x="0px" y="0px"
	 width="1488.598px" height="923.438px" viewBox="243.404 68.807 1488.598 923.438"
	 enable-background="new 243.404 68.807 1488.598 923.438" xml:space="preserve">
<g id="Слой_1">
	<g>
		<polygon fill="#1E5C9D" stroke="#FFFFFF" stroke-width="0.5" points="1732.002,851.089 1732.002,726.027 1670.348,758.303 		"/>
		<polygon fill="#798BB7" stroke="#FFFFFF" stroke-width="0.5" points="1732.002,200.292 1732.002,149.97 1693.639,199.993 		"/>
		<polygon fill="#7388B6" stroke="#FFFFFF" stroke-width="0.5" points="1732.002,298.401 1732.002,200.292 1693.639,199.993 		"/>
		<polygon fill="#09458B" stroke="#FFFFFF" stroke-width="0.5" points="1658.883,992.245 1732.002,992.245 1732.002,947.862 
			1642.945,948.744 		"/>
		<polygon fill="#577BAC" stroke="#FFFFFF" stroke-width="0.5" points="1732.002,437.384 1732.002,420.384 1730.631,435.647 		"/>
		<polygon fill="#4E7AAE" stroke="#FFFFFF" stroke-width="0.5" points="1636.096,497.986 1732.002,507.661 1732.002,437.384 
			1730.631,435.647 		"/>
		<polygon fill="#366BA4" stroke="#FFFFFF" stroke-width="0.5" points="1732.002,661.509 1732.002,593.206 1671.719,672.672 		"/>
		<polygon fill="#3E74AC" stroke="#FFFFFF" stroke-width="0.5" points="1671.719,672.672 1732.002,593.206 1732.002,507.661 
			1636.096,497.986 		"/>
		<polygon fill="#0E4D92" stroke="#FFFFFF" stroke-width="0.5" points="1732.002,947.862 1732.002,869.162 1642.945,948.744 		"/>
		<polygon fill="#2A66A1" stroke="#FFFFFF" stroke-width="0.5" points="1732.002,691.946 1732.002,661.509 1671.719,672.672 		"/>
		<polygon fill="#8593BE" stroke="#FFFFFF" stroke-width="0.5" points="1697.621,68.807 1732.002,89.717 1732.002,68.807 		"/>
		<polygon fill="#2665A4" stroke="#FFFFFF" stroke-width="0.5" points="1670.348,758.303 1732.002,726.027 1732.002,691.946 
			1671.719,672.672 		"/>
		<polygon fill="#3A77B3" stroke="#FFFFFF" stroke-width="0.5" points="1671.719,672.672 1636.096,497.986 1590.883,621.294 		"/>
		<polygon fill="#6484B4" stroke="#FFFFFF" stroke-width="0.5" points="1730.631,435.647 1732.002,420.384 1732.002,322.665 
			1646.371,336.316 		"/>
		<polygon fill="#7E91BE" stroke="#FFFFFF" stroke-width="0.5" points="1693.639,199.993 1732.002,149.97 1732.002,110.062 
			1635.41,113.677 		"/>
		<polygon fill="#8495C1" stroke="#FFFFFF" stroke-width="0.5" points="1641.879,68.807 1635.41,113.677 1732.002,110.062 
			1732.002,89.717 1697.621,68.807 		"/>
		<polygon fill="#5F85B7" stroke="#FFFFFF" stroke-width="0.5" points="1730.631,435.647 1646.371,336.316 1638.836,429.482 		"/>
		<polygon fill="#16599F" stroke="#FFFFFF" stroke-width="0.5" points="1645.002,871.335 1732.002,863.139 1732.002,851.089 
			1670.348,758.303 		"/>
		<polygon fill="#10539A" stroke="#FFFFFF" stroke-width="0.5" points="1642.945,948.744 1732.002,869.162 1732.002,863.139 
			1645.002,871.335 		"/>
		<polygon fill="#7089BA" stroke="#FFFFFF" stroke-width="0.5" points="1646.371,336.316 1732.002,322.665 1732.002,298.401 
			1693.639,199.993 		"/>
		<polygon fill="#09468C" stroke="#FFFFFF" stroke-width="0.5" points="1625.545,992.245 1658.883,992.245 1642.945,948.744 		"/>
		<polygon fill="#5580B5" stroke="#FFFFFF" stroke-width="0.5" points="1636.096,497.986 1730.631,435.647 1638.836,429.482 		"/>
		<polygon fill="#175FA5" stroke="#FFFFFF" stroke-width="0.5" points="1645.002,871.335 1670.348,758.303 1598.418,824.752 		"/>
		<polygon fill="#7690C2" stroke="#FFFFFF" stroke-width="0.5" points="1646.371,336.316 1693.639,199.993 1566.221,244.521 		"/>
		<polygon fill="#7D95C5" stroke="#FFFFFF" stroke-width="0.5" points="1693.639,199.993 1635.41,113.677 1566.221,244.521 		"/>
		<polygon fill="#266AAD" stroke="#FFFFFF" stroke-width="0.5" points="1670.348,758.303 1671.719,672.672 1532.654,755.563 		"/>
		<polygon fill="#2C72B1" stroke="#FFFFFF" stroke-width="0.5" points="1532.654,755.563 1671.719,672.672 1590.883,621.294 		"/>
		<polygon fill="#1F66AC" stroke="#FFFFFF" stroke-width="0.5" points="1598.418,824.752 1670.348,758.303 1532.654,755.563 		"/>
		<polygon fill="#829BCB" stroke="#FFFFFF" stroke-width="0.5" points="1566.221,244.521 1635.41,113.677 1526.488,95.866 		"/>
		<polygon fill="#437FBA" stroke="#FFFFFF" stroke-width="0.5" points="1590.883,621.294 1636.096,497.986 1525.119,544.569 		"/>
		<polygon fill="#5786BC" stroke="#FFFFFF" stroke-width="0.5" points="1562.797,428.112 1636.096,497.986 1638.836,429.482 		"/>
		<polygon fill="#628DC0" stroke="#FFFFFF" stroke-width="0.5" points="1638.836,429.482 1570.332,337.001 1562.797,428.112 		"/>
		<polygon fill="#09509A" stroke="#FFFFFF" stroke-width="0.5" points="1578.553,912.438 1588.803,992.245 1625.545,992.245 
			1642.945,948.744 		"/>
		<polygon fill="#0E569F" stroke="#FFFFFF" stroke-width="0.5" points="1642.945,948.744 1645.002,871.335 1578.553,912.438 		"/>
		<polygon fill="#879CCB" stroke="#FFFFFF" stroke-width="0.5" points="1635.41,113.677 1641.879,68.807 1582.199,68.807 
			1526.488,95.866 		"/>
		<polygon fill="#8CA1CE" stroke="#FFFFFF" stroke-width="0.5" points="1582.199,68.807 1533.531,68.807 1526.488,95.866 		"/>
		<polygon fill="#668CBF" stroke="#FFFFFF" stroke-width="0.5" points="1638.836,429.482 1646.371,336.316 1570.332,337.001 		"/>
		<polygon fill="#7091C4" stroke="#FFFFFF" stroke-width="0.5" points="1570.332,337.001 1646.371,336.316 1566.221,244.521 		"/>
		<polygon fill="#135BA4" stroke="#FFFFFF" stroke-width="0.5" points="1578.553,912.438 1645.002,871.335 1598.418,824.752 		"/>
		<polygon fill="#5185BD" stroke="#FFFFFF" stroke-width="0.5" points="1525.119,544.569 1636.096,497.986 1562.797,428.112 		"/>
		<polygon fill="#2C76B6" stroke="#FFFFFF" stroke-width="0.5" points="1485.387,739.807 1532.654,755.563 1458.67,663.082 		"/>
		<polygon fill="#849FCE" stroke="#FFFFFF" stroke-width="0.5" points="1526.488,95.866 1487.441,121.213 1566.221,244.521 		"/>
		<polygon fill="#829FCE" stroke="#FFFFFF" stroke-width="0.5" points="1566.221,244.521 1487.441,121.213 1471.686,192.457 		"/>
		<polygon fill="#2F77B6" stroke="#FFFFFF" stroke-width="0.5" points="1532.654,755.563 1590.883,621.294 1458.67,663.082 		"/>
		<polygon fill="#0E549D" stroke="#FFFFFF" stroke-width="0.5" points="1468.26,956.965 1511.842,992.245 1588.803,992.245 
			1578.553,912.438 		"/>
		<polygon fill="#115196" stroke="#FFFFFF" stroke-width="0.5" points="1470.512,992.245 1511.842,992.245 1468.26,956.965 		"/>
		<polygon fill="#165FA7" stroke="#FFFFFF" stroke-width="0.5" points="1496.348,870.649 1578.553,912.438 1598.418,824.752 		"/>
		<polygon fill="#1B66AD" stroke="#FFFFFF" stroke-width="0.5" points="1598.418,824.752 1532.654,755.563 1496.348,870.649 		"/>
		<polygon fill="#3C7EBA" stroke="#FFFFFF" stroke-width="0.5" points="1590.883,621.294 1525.119,544.569 1458.67,663.082 		"/>
		<polygon fill="#588CC1" stroke="#FFFFFF" stroke-width="0.5" points="1525.119,544.569 1562.797,428.112 1482.646,412.356 		"/>
		<polygon fill="#6591C3" stroke="#FFFFFF" stroke-width="0.5" points="1562.797,428.112 1570.332,337.001 1482.646,412.356 		"/>
		<polygon fill="#7497C8" stroke="#FFFFFF" stroke-width="0.5" points="1570.332,337.001 1566.221,244.521 1459.355,311.655 		"/>
		<polygon fill="#155DA6" stroke="#FFFFFF" stroke-width="0.5" points="1468.26,956.965 1578.553,912.438 1496.348,870.649 		"/>
		<polygon fill="#90A6D2" stroke="#FFFFFF" stroke-width="0.5" points="1533.531,68.807 1510.027,68.807 1526.488,95.866 		"/>
		<polygon fill="#6D96C7" stroke="#FFFFFF" stroke-width="0.5" points="1482.646,412.356 1570.332,337.001 1459.355,311.655 		"/>
		<polygon fill="#7D9DCC" stroke="#FFFFFF" stroke-width="0.5" points="1459.355,311.655 1566.221,244.521 1471.686,192.457 		"/>
		<polygon fill="#528CC3" stroke="#FFFFFF" stroke-width="0.5" points="1443.6,537.034 1525.119,544.569 1482.646,412.356 		"/>
		<polygon fill="#226DB1" stroke="#FFFFFF" stroke-width="0.5" points="1496.348,870.649 1532.654,755.563 1485.387,739.807 		"/>
		<polygon fill="#4285BF" stroke="#FFFFFF" stroke-width="0.5" points="1458.67,663.082 1525.119,544.569 1443.6,537.034 		"/>
		<polygon fill="#8CA6D2" stroke="#FFFFFF" stroke-width="0.5" points="1526.488,95.866 1510.027,68.807 1482.102,68.807 
			1487.441,121.213 		"/>
		<polygon fill="#226FB3" stroke="#FFFFFF" stroke-width="0.5" points="1394.275,775.429 1496.348,870.649 1485.387,739.807 		"/>
		<polygon fill="#5591C6" stroke="#FFFFFF" stroke-width="0.5" points="1443.6,537.034 1482.646,412.356 1385.371,519.223 		"/>
		<polygon fill="#5C96C9" stroke="#FFFFFF" stroke-width="0.5" points="1385.371,519.223 1482.646,412.356 1353.857,455.514 		"/>
		<polygon fill="#8EAAD5" stroke="#FFFFFF" stroke-width="0.5" points="1487.441,121.213 1482.102,68.807 1416.705,68.807 
			1379.205,103.402 		"/>
		<polygon fill="#1964AB" stroke="#FFFFFF" stroke-width="0.5" points="1389.48,882.295 1468.26,956.965 1496.348,870.649 		"/>
		<polygon fill="#1F6CB2" stroke="#FFFFFF" stroke-width="0.5" points="1389.48,882.295 1496.348,870.649 1394.275,775.429 		"/>
		<polygon fill="#4087C1" stroke="#FFFFFF" stroke-width="0.5" points="1458.67,663.082 1443.6,537.034 1362.078,621.294 		"/>
		<polygon fill="#7DA4D2" stroke="#FFFFFF" stroke-width="0.5" points="1459.355,311.655 1347.008,204.788 1360.023,308.915 		"/>
		<polygon fill="#81A3D2" stroke="#FFFFFF" stroke-width="0.5" points="1471.686,192.457 1347.008,204.788 1459.355,311.655 		"/>
		<polygon fill="#15559A" stroke="#FFFFFF" stroke-width="0.5" points="1447.396,992.245 1470.512,992.245 1468.26,956.965 		"/>
		<polygon fill="#719DCC" stroke="#FFFFFF" stroke-width="0.5" points="1482.646,412.356 1459.355,311.655 1360.023,308.915 		"/>
		<polygon fill="#2C79B8" stroke="#FFFFFF" stroke-width="0.5" points="1485.387,739.807 1458.67,663.082 1394.275,775.429 		"/>
		<polygon fill="#89A7D3" stroke="#FFFFFF" stroke-width="0.5" points="1487.441,121.213 1379.205,103.402 1471.686,192.457 		"/>
		<polygon fill="#6A9DCC" stroke="#FFFFFF" stroke-width="0.5" points="1353.857,455.514 1482.646,412.356 1360.023,308.915 		"/>
		<polygon fill="#94B0D9" stroke="#FFFFFF" stroke-width="0.5" points="1416.705,68.807 1370.145,68.807 1379.205,103.402 		"/>
		<polygon fill="#185FA5" stroke="#FFFFFF" stroke-width="0.5" points="1333.307,909.697 1361.471,992.245 1447.396,992.245 
			1468.26,956.965 		"/>
		<polygon fill="#88AAD5" stroke="#FFFFFF" stroke-width="0.5" points="1471.686,192.457 1379.205,103.402 1347.008,204.788 		"/>
		<polygon fill="#1C67AD" stroke="#FFFFFF" stroke-width="0.5" points="1333.307,909.697 1468.26,956.965 1389.48,882.295 		"/>
		<polygon fill="#3381BD" stroke="#FFFFFF" stroke-width="0.5" points="1394.275,775.429 1458.67,663.082 1362.078,621.294 		"/>
		<polygon fill="#498DC5" stroke="#FFFFFF" stroke-width="0.5" points="1362.078,621.294 1443.6,537.034 1385.371,519.223 		"/>
		<polygon fill="#266BAE" stroke="#FFFFFF" stroke-width="0.5" points="1258.637,932.988 1240.938,992.245 1265.25,992.245 
			1333.307,909.697 		"/>
		<polygon fill="#72A4D0" stroke="#FFFFFF" stroke-width="0.5" points="1360.023,308.915 1263.434,344.537 1353.857,455.514 		"/>
		<polygon fill="#4B92C7" stroke="#FFFFFF" stroke-width="0.5" points="1362.078,621.294 1385.371,519.223 1253.156,565.806 		"/>
		<polygon fill="#2772B4" stroke="#FFFFFF" stroke-width="0.5" points="1247.676,817.216 1333.307,909.697 1389.48,882.295 		"/>
		<polygon fill="#2162A3" stroke="#FFFFFF" stroke-width="0.5" points="1265.25,992.245 1361.471,992.245 1333.307,909.697 		"/>
		<polygon fill="#3784BF" stroke="#FFFFFF" stroke-width="0.5" points="1217.535,761.728 1394.275,775.429 1273.023,643.9 		"/>
		<polygon fill="#317FBC" stroke="#FFFFFF" stroke-width="0.5" points="1217.535,761.728 1247.676,817.216 1394.275,775.429 		"/>
		<polygon fill="#3986C0" stroke="#FFFFFF" stroke-width="0.5" points="1273.023,643.9 1394.275,775.429 1362.078,621.294 		"/>
		<polygon fill="#2775B7" stroke="#FFFFFF" stroke-width="0.5" points="1247.676,817.216 1389.48,882.295 1394.275,775.429 		"/>
		<polygon fill="#8CB0D8" stroke="#FFFFFF" stroke-width="0.5" points="1379.205,103.402 1267.543,163 1347.008,204.788 		"/>
		<polygon fill="#99B8DD" stroke="#FFFFFF" stroke-width="0.5" points="1370.145,68.807 1323.994,68.807 1379.205,103.402 		"/>
		<polygon fill="#95B7DC" stroke="#FFFFFF" stroke-width="0.5" points="1379.205,103.402 1323.994,68.807 1239.244,68.807 
			1267.543,163 		"/>
		<polygon fill="#5697CA" stroke="#FFFFFF" stroke-width="0.5" points="1385.371,519.223 1353.857,455.514 1253.156,565.806 		"/>
		<polygon fill="#85ACD6" stroke="#FFFFFF" stroke-width="0.5" points="1347.008,204.788 1268.912,220.544 1360.023,308.915 		"/>
		<polygon fill="#6DA5D0" stroke="#FFFFFF" stroke-width="0.5" points="1353.857,455.514 1263.434,344.537 1229.865,430.852 		"/>
		<polygon fill="#5F9FCD" stroke="#FFFFFF" stroke-width="0.5" points="1253.156,565.806 1353.857,455.514 1229.865,430.852 		"/>
		<polygon fill="#80ABD5" stroke="#FFFFFF" stroke-width="0.5" points="1360.023,308.915 1268.912,220.544 1263.434,344.537 		"/>
		<polygon fill="#4791C6" stroke="#FFFFFF" stroke-width="0.5" points="1273.023,643.9 1362.078,621.294 1253.156,565.806 		"/>
		<polygon fill="#8BB1D9" stroke="#FFFFFF" stroke-width="0.5" points="1347.008,204.788 1267.543,163 1268.912,220.544 		"/>
		<polygon fill="#2973B4" stroke="#FFFFFF" stroke-width="0.5" points="1258.637,932.988 1333.307,909.697 1247.676,817.216 		"/>
		<polygon fill="#5CA1CF" stroke="#FFFFFF" stroke-width="0.5" points="1253.156,565.806 1229.865,430.852 1168.211,543.199 		"/>
		<polygon fill="#2A6CAC" stroke="#FFFFFF" stroke-width="0.5" points="1179.857,979.571 1190.025,992.245 1240.938,992.245 
			1258.637,932.988 		"/>
		<polygon fill="#2F7BB9" stroke="#FFFFFF" stroke-width="0.5" points="1175.063,829.547 1258.637,932.988 1247.676,817.216 		"/>
		<polygon fill="#9BBFE0" stroke="#FFFFFF" stroke-width="0.5" points="1239.244,68.807 1197.135,68.807 1267.543,163 		"/>
		<polygon fill="#98BFDF" stroke="#FFFFFF" stroke-width="0.5" points="1267.543,163 1197.135,68.807 1155.137,68.807 
			1134.645,145.875 		"/>
		<polygon fill="#83B1D8" stroke="#FFFFFF" stroke-width="0.5" points="1263.434,344.537 1268.912,220.544 1164.787,309.6 		"/>
		<polygon fill="#8BB7DB" stroke="#FFFFFF" stroke-width="0.5" points="1268.912,220.544 1162.047,206.158 1164.787,309.6 		"/>
		<polygon fill="#8EB6DB" stroke="#FFFFFF" stroke-width="0.5" points="1268.912,220.544 1267.543,163 1162.047,206.158 		"/>
		<polygon fill="#4C96C8" stroke="#FFFFFF" stroke-width="0.5" points="1182.598,612.389 1273.023,643.9 1253.156,565.806 		"/>
		<polygon fill="#4291C5" stroke="#FFFFFF" stroke-width="0.5" points="1182.598,612.389 1217.535,761.728 1273.023,643.9 		"/>
		<polygon fill="#75ADD3" stroke="#FFFFFF" stroke-width="0.5" points="1229.865,430.852 1263.434,344.537 1140.811,404.135 		"/>
		<polygon fill="#7CB1D6" stroke="#FFFFFF" stroke-width="0.5" points="1263.434,344.537 1164.787,309.6 1140.811,404.135 		"/>
		<polygon fill="#93BBDE" stroke="#FFFFFF" stroke-width="0.5" points="1267.543,163 1134.645,145.875 1162.047,206.158 		"/>
		<polygon fill="#2F76B5" stroke="#FFFFFF" stroke-width="0.5" points="1179.857,979.571 1258.637,932.988 1175.063,829.547 		"/>
		<polygon fill="#418FC5" stroke="#FFFFFF" stroke-width="0.5" points="1148.346,766.523 1217.535,761.728 1182.598,612.389 		"/>
		<polygon fill="#539CCC" stroke="#FFFFFF" stroke-width="0.5" points="1168.211,543.199 1182.598,612.389 1253.156,565.806 		"/>
		<polygon fill="#3582BE" stroke="#FFFFFF" stroke-width="0.5" points="1175.063,829.547 1247.676,817.216 1217.535,761.728 		"/>
		<polygon fill="#6AA9D2" stroke="#FFFFFF" stroke-width="0.5" points="1229.865,430.852 1140.811,404.135 1168.211,543.199 		"/>
		<polygon fill="#2C69A4" stroke="#FFFFFF" stroke-width="0.5" points="1177.889,992.245 1190.025,992.245 1179.857,979.571 		"/>
		<polygon fill="#3A87C1" stroke="#FFFFFF" stroke-width="0.5" points="1148.346,766.523 1175.063,829.547 1217.535,761.728 		"/>
		<polygon fill="#92BBDE" stroke="#FFFFFF" stroke-width="0.5" points="1162.047,206.158 1055.18,217.804 1164.787,309.6 		"/>
		<polygon fill="#69A9D3" stroke="#FFFFFF" stroke-width="0.5" points="1168.211,543.199 1140.811,404.135 1075.045,521.278 		"/>
		<polygon fill="#326AA4" stroke="#FFFFFF" stroke-width="0.5" points="1166.746,992.245 1177.889,992.245 1179.857,979.571 		"/>
		<polygon fill="#3A7EBB" stroke="#FFFFFF" stroke-width="0.5" points="1050.385,824.066 1179.857,979.571 1175.063,829.547 		"/>
		<polygon fill="#3E7DB9" stroke="#FFFFFF" stroke-width="0.5" points="1014.076,969.296 1179.857,979.571 1050.385,824.066 		"/>
		<polygon fill="#4793C7" stroke="#FFFFFF" stroke-width="0.5" points="1065.455,744.602 1148.346,766.523 1182.598,612.389 		"/>
		<polygon fill="#509ACB" stroke="#FFFFFF" stroke-width="0.5" points="1032.572,641.16 1065.455,744.602 1182.598,612.389 		"/>
		<polygon fill="#5BA1CF" stroke="#FFFFFF" stroke-width="0.5" points="1075.045,521.278 1032.572,641.16 1182.598,612.389 
			1168.211,543.199 		"/>
		<polygon fill="#3971AD" stroke="#FFFFFF" stroke-width="0.5" points="1014.076,969.296 1027.273,992.245 1166.746,992.245 
			1179.857,979.571 		"/>
		<polygon fill="#3F88C1" stroke="#FFFFFF" stroke-width="0.5" points="1050.385,824.066 1175.063,829.547 1148.346,766.523 		"/>
		<polygon fill="#A1C6E3" stroke="#FFFFFF" stroke-width="0.5" points="1134.645,145.875 1155.137,68.807 1054.248,68.807 
			1070.25,136.969 		"/>
		<polygon fill="#82B7D9" stroke="#FFFFFF" stroke-width="0.5" points="1164.787,309.6 1020.928,358.923 1140.811,404.135 		"/>
		<polygon fill="#8EBCDE" stroke="#FFFFFF" stroke-width="0.5" points="1164.787,309.6 1055.18,217.804 1020.928,358.923 		"/>
		<polygon fill="#97BFE0" stroke="#FFFFFF" stroke-width="0.5" points="1162.047,206.158 1134.645,145.875 1055.18,217.804 		"/>
		<polygon fill="#9CC3E2" stroke="#FFFFFF" stroke-width="0.5" points="1134.645,145.875 1070.25,136.969 1055.18,217.804 		"/>
		<polygon fill="#75B1D7" stroke="#FFFFFF" stroke-width="0.5" points="1140.811,404.135 1018.188,421.262 1075.045,521.278 		"/>
		<polygon fill="#458EC5" stroke="#FFFFFF" stroke-width="0.5" points="1065.455,744.602 1050.385,824.066 1148.346,766.523 		"/>
		<polygon fill="#81B7D9" stroke="#FFFFFF" stroke-width="0.5" points="1140.811,404.135 1020.928,358.923 1018.188,421.262 		"/>
		<polygon fill="#4786BE" stroke="#FFFFFF" stroke-width="0.5" points="962.014,876.814 1014.076,969.296 1050.385,824.066 		"/>
		<polygon fill="#96C2E1" stroke="#FFFFFF" stroke-width="0.5" points="1055.18,217.804 944.888,256.851 1020.928,358.923 		"/>
		<polygon fill="#A0C7E4" stroke="#FFFFFF" stroke-width="0.5" points="1070.25,136.969 977.77,122.583 1055.18,217.804 		"/>
		<polygon fill="#A5CAE5" stroke="#FFFFFF" stroke-width="0.5" points="1070.25,136.969 1054.248,68.807 1039.555,68.807 
			977.77,122.583 		"/>
		<polygon fill="#77B3D9" stroke="#FFFFFF" stroke-width="0.5" points="1018.188,421.262 957.904,452.773 1075.045,521.278 		"/>
		<polygon fill="#72B1D8" stroke="#FFFFFF" stroke-width="0.5" points="1075.045,521.278 957.904,452.773 957.218,531.553 		"/>
		<polygon fill="#61A7D2" stroke="#FFFFFF" stroke-width="0.5" points="981.195,602.798 1032.572,641.16 1075.045,521.278 		"/>
		<polygon fill="#69ACD5" stroke="#FFFFFF" stroke-width="0.5" points="957.218,531.553 981.195,602.798 1075.045,521.278 		"/>
		<polygon fill="#4175AD" stroke="#FFFFFF" stroke-width="0.5" points="988.146,992.245 1027.273,992.245 1014.076,969.296 		"/>
		<polygon fill="#559DCC" stroke="#FFFFFF" stroke-width="0.5" points="922.966,713.09 1065.455,744.602 1032.572,641.16 		"/>
		<polygon fill="#4F95C9" stroke="#FFFFFF" stroke-width="0.5" points="922.966,713.09 1050.385,824.066 1065.455,744.602 		"/>
		<polygon fill="#5092C7" stroke="#FFFFFF" stroke-width="0.5" points="962.014,876.814 1050.385,824.066 922.966,713.09 		"/>
		<polygon fill="#ABCEE8" stroke="#FFFFFF" stroke-width="0.5" points="1039.555,68.807 972.621,68.807 977.77,122.583 		"/>
		<polygon fill="#A0C8E4" stroke="#FFFFFF" stroke-width="0.5" points="1055.18,217.804 977.77,122.583 944.888,256.851 		"/>
		<polygon fill="#94C2E0" stroke="#FFFFFF" stroke-width="0.5" points="1020.928,358.923 944.888,256.851 944.203,347.962 		"/>
		<polygon fill="#5EA4D0" stroke="#FFFFFF" stroke-width="0.5" points="981.195,602.798 922.966,713.09 1032.572,641.16 		"/>
		<polygon fill="#5894C8" stroke="#FFFFFF" stroke-width="0.5" points="880.494,854.209 962.014,876.814 922.966,713.09 		"/>
		<polygon fill="#4A82BC" stroke="#FFFFFF" stroke-width="0.5" points="934.612,970.666 1014.076,969.296 962.014,876.814 		"/>
		<polygon fill="#87BCDC" stroke="#FFFFFF" stroke-width="0.5" points="1018.188,421.262 944.203,347.962 957.904,452.773 		"/>
		<polygon fill="#89BDDD" stroke="#FFFFFF" stroke-width="0.5" points="1020.928,358.923 944.203,347.962 1018.188,421.262 		"/>
		<polygon fill="#487CB5" stroke="#FFFFFF" stroke-width="0.5" points="934.612,970.666 942.957,992.245 988.146,992.245 
			1014.076,969.296 		"/>
		<polygon fill="#8BBFDD" stroke="#FFFFFF" stroke-width="0.5" points="957.904,452.773 944.203,347.962 881.179,435.647 		"/>
		<polygon fill="#A8CCE6" stroke="#FFFFFF" stroke-width="0.5" points="944.888,256.851 977.77,122.583 860.627,210.269 		"/>
		<polygon fill="#B1D2E9" stroke="#FFFFFF" stroke-width="0.5" points="977.77,122.583 972.621,68.807 949.833,68.807 
			832.541,126.008 		"/>
		<polygon fill="#B0D1E8" stroke="#FFFFFF" stroke-width="0.5" points="977.77,122.583 832.541,126.008 860.627,210.269 		"/>
		<polygon fill="#6DACD5" stroke="#FFFFFF" stroke-width="0.5" points="823.635,662.396 981.195,602.798 957.218,531.553 		"/>
		<polygon fill="#67A8D2" stroke="#FFFFFF" stroke-width="0.5" points="823.635,662.396 922.966,713.09 981.195,602.798 		"/>
		<polygon fill="#B8D6EA" stroke="#FFFFFF" stroke-width="0.5" points="949.833,68.807 835.449,68.807 832.541,126.008 		"/>
		<polygon fill="#78B3D8" stroke="#FFFFFF" stroke-width="0.5" points="833.911,508.947 823.635,662.396 957.218,531.553 		"/>
		<polygon fill="#538AC0" stroke="#FFFFFF" stroke-width="0.5" points="880.494,854.209 934.612,970.666 962.014,876.814 		"/>
		<polygon fill="#9CC6E2" stroke="#FFFFFF" stroke-width="0.5" points="944.203,347.962 944.888,256.851 853.092,327.411 		"/>
		<polygon fill="#82BADB" stroke="#FFFFFF" stroke-width="0.5" points="957.218,531.553 881.179,435.647 833.911,508.947 		"/>
		<polygon fill="#80B8DB" stroke="#FFFFFF" stroke-width="0.5" points="957.904,452.773 881.179,435.647 957.218,531.553 		"/>
		<polygon fill="#629CCC" stroke="#FFFFFF" stroke-width="0.5" points="807.879,767.894 880.494,854.209 922.966,713.09 		"/>
		<polygon fill="#507CB0" stroke="#FFFFFF" stroke-width="0.5" points="911.738,992.245 942.957,992.245 934.612,970.666 		"/>
		<polygon fill="#5989BF" stroke="#FFFFFF" stroke-width="0.5" points="821.58,955.595 934.612,970.666 880.494,854.209 		"/>
		<polygon fill="#5781B5" stroke="#FFFFFF" stroke-width="0.5" points="821.58,955.595 822.858,992.245 911.738,992.245 
			934.612,970.666 		"/>
		<polygon fill="#96C4E0" stroke="#FFFFFF" stroke-width="0.5" points="944.203,347.962 853.092,327.411 881.179,435.647 		"/>
		<polygon fill="#A6CBE5" stroke="#FFFFFF" stroke-width="0.5" points="944.888,256.851 860.627,210.269 853.092,327.411 		"/>
		<polygon fill="#6AA5D0" stroke="#FFFFFF" stroke-width="0.5" points="807.879,767.894 922.966,713.09 823.635,662.396 		"/>
		<polygon fill="#80B7D9" stroke="#FFFFFF" stroke-width="0.5" points="751.021,550.05 823.635,662.396 833.911,508.947 		"/>
		<polygon fill="#AED0E6" stroke="#FFFFFF" stroke-width="0.5" points="860.627,210.269 755.816,241.78 853.092,327.411 		"/>
		<polygon fill="#6594C5" stroke="#FFFFFF" stroke-width="0.5" points="714.028,827.492 821.58,955.595 880.494,854.209 		"/>
		<polygon fill="#8FC1DE" stroke="#FFFFFF" stroke-width="0.5" points="881.179,435.647 733.895,458.254 833.911,508.947 		"/>
		<polygon fill="#9EC9E1" stroke="#FFFFFF" stroke-width="0.5" points="853.092,327.411 732.524,347.277 881.179,435.647 		"/>
		<polygon fill="#9CC8E1" stroke="#FFFFFF" stroke-width="0.5" points="881.179,435.647 732.524,347.277 733.895,458.254 		"/>
		<polygon fill="#689CCB" stroke="#FFFFFF" stroke-width="0.5" points="714.028,827.492 880.494,854.209 807.879,767.894 		"/>
		<polygon fill="#7DB4D7" stroke="#FFFFFF" stroke-width="0.5" points="753.076,651.436 823.635,662.396 751.021,550.05 		"/>
		<polygon fill="#B8D6EA" stroke="#FFFFFF" stroke-width="0.5" points="832.541,126.008 766.777,145.875 860.627,210.269 		"/>
		<polygon fill="#B7D5E9" stroke="#FFFFFF" stroke-width="0.5" points="860.627,210.269 766.777,145.875 755.816,241.78 		"/>
		<polygon fill="#6086B7" stroke="#FFFFFF" stroke-width="0.5" points="729.099,969.98 749.889,992.245 822.858,992.245 
			821.58,955.595 		"/>
		<polygon fill="#ACD0E6" stroke="#FFFFFF" stroke-width="0.5" points="853.092,327.411 755.816,241.78 732.524,347.277 		"/>
		<polygon fill="#6991C3" stroke="#FFFFFF" stroke-width="0.5" points="729.099,969.98 821.58,955.595 714.028,827.492 		"/>
		<polygon fill="#73A9D2" stroke="#FFFFFF" stroke-width="0.5" points="724.304,711.72 807.879,767.894 823.635,662.396 		"/>
		<polygon fill="#77AED5" stroke="#FFFFFF" stroke-width="0.5" points="753.076,651.436 724.304,711.72 823.635,662.396 		"/>
		<polygon fill="#6282B1" stroke="#FFFFFF" stroke-width="0.5" points="724.247,992.245 749.889,992.245 729.099,969.98 		"/>
		<polygon fill="#BDD9EB" stroke="#FFFFFF" stroke-width="0.5" points="832.541,126.008 835.449,68.807 820.252,68.807 
			766.777,145.875 		"/>
		<polygon fill="#C4DDED" stroke="#FFFFFF" stroke-width="0.5" points="820.252,68.807 727.525,68.807 766.777,145.875 		"/>
		<polygon fill="#8DC0DD" stroke="#FFFFFF" stroke-width="0.5" points="833.911,508.947 733.895,458.254 751.021,550.05 		"/>
		<polygon fill="#72A4D0" stroke="#FFFFFF" stroke-width="0.5" points="724.304,711.72 714.028,827.492 807.879,767.894 		"/>
		<polygon fill="#7095C6" stroke="#FFFFFF" stroke-width="0.5" points="629.768,937.784 729.099,969.98 714.028,827.492 		"/>
		<polygon fill="#95C3E0" stroke="#FFFFFF" stroke-width="0.5" points="751.021,550.05 733.895,458.254 674.296,465.104 
			647.579,507.577 		"/>
		<polygon fill="#85B8DA" stroke="#FFFFFF" stroke-width="0.5" points="651.004,616.499 753.076,651.436 751.021,550.05 		"/>
		<polygon fill="#C0D9EC" stroke="#FFFFFF" stroke-width="0.5" points="755.816,241.78 648.949,154.78 657.855,239.04 		"/>
		<polygon fill="#B3D3E8" stroke="#FFFFFF" stroke-width="0.5" points="732.524,347.277 755.816,241.78 648.949,321.245 		"/>
		<polygon fill="#BBD6EB" stroke="#FFFFFF" stroke-width="0.5" points="755.816,241.78 657.855,239.04 648.949,321.245 		"/>
		<polygon fill="#BFD9EC" stroke="#FFFFFF" stroke-width="0.5" points="766.777,145.875 648.949,154.78 755.816,241.78 		"/>
		<polygon fill="#C7DEEF" stroke="#FFFFFF" stroke-width="0.5" points="766.777,145.875 727.525,68.807 693.418,68.807 
			648.949,154.78 		"/>
		<polygon fill="#CDE1F1" stroke="#FFFFFF" stroke-width="0.5" points="693.418,68.807 644.77,68.807 648.949,154.78 		"/>
		<polygon fill="#78A6D2" stroke="#FFFFFF" stroke-width="0.5" points="636.619,767.894 714.028,827.492 724.304,711.72 		"/>
		<polygon fill="#A1CAE3" stroke="#FFFFFF" stroke-width="0.5" points="733.895,458.254 732.524,347.277 674.296,465.104 		"/>
		<polygon fill="#7FB2D8" stroke="#FFFFFF" stroke-width="0.5" points="651.004,616.499 724.304,711.72 753.076,651.436 		"/>
		<polygon fill="#8FBEDE" stroke="#FFFFFF" stroke-width="0.5" points="647.579,507.577 651.004,616.499 751.021,550.05 		"/>
		<polygon fill="#6A86B5" stroke="#FFFFFF" stroke-width="0.5" points="693.808,992.245 724.247,992.245 729.099,969.98 		"/>
		<polygon fill="#ABCFE5" stroke="#FFFFFF" stroke-width="0.5" points="732.524,347.277 648.949,321.245 674.296,465.104 		"/>
		<polygon fill="#779CCC" stroke="#FFFFFF" stroke-width="0.5" points="600.996,832.287 629.768,937.784 714.028,827.492 		"/>
		<polygon fill="#6F8DBF" stroke="#FFFFFF" stroke-width="0.5" points="629.768,937.784 628.223,992.245 693.808,992.245 
			729.099,969.98 		"/>
		<polygon fill="#80B0D6" stroke="#FFFFFF" stroke-width="0.5" points="636.619,767.894 724.304,711.72 651.004,616.499 		"/>
		<polygon fill="#7AA3D1" stroke="#FFFFFF" stroke-width="0.5" points="600.996,832.287 714.028,827.492 636.619,767.894 		"/>
		<polygon fill="#88B5DA" stroke="#FFFFFF" stroke-width="0.5" points="548.933,646.641 636.619,767.894 651.004,616.499 		"/>
		<polygon fill="#AED0E6" stroke="#FFFFFF" stroke-width="0.5" points="674.296,465.104 648.949,321.245 534.547,419.892 		"/>
		<polygon fill="#A4CAE4" stroke="#FFFFFF" stroke-width="0.5" points="674.296,465.104 534.547,419.892 647.579,507.577 		"/>
		<polygon fill="#B8D5EA" stroke="#FFFFFF" stroke-width="0.5" points="648.949,321.245 508.516,358.923 534.547,419.892 		"/>
		<polygon fill="#D1E2F2" stroke="#FFFFFF" stroke-width="0.5" points="648.949,154.78 644.77,68.807 616.355,68.807 
			550.988,98.606 		"/>
		<polygon fill="#96C1E1" stroke="#FFFFFF" stroke-width="0.5" points="509.201,560.325 651.004,616.499 647.579,507.577 		"/>
		<polygon fill="#94BEDF" stroke="#FFFFFF" stroke-width="0.5" points="548.933,646.641 651.004,616.499 509.201,560.325 		"/>
		<polygon fill="#C7DCEF" stroke="#FFFFFF" stroke-width="0.5" points="657.855,239.04 648.949,154.78 551.673,233.56 		"/>
		<polygon fill="#C2D9EE" stroke="#FFFFFF" stroke-width="0.5" points="657.855,239.04 551.673,233.56 648.949,321.245 		"/>
		<polygon fill="#89B2D9" stroke="#FFFFFF" stroke-width="0.5" points="502.35,719.255 636.619,767.894 548.933,646.641 		"/>
		<polygon fill="#C0D8ED" stroke="#FFFFFF" stroke-width="0.5" points="648.949,321.245 551.673,233.56 508.516,358.923 		"/>
		<polygon fill="#CEE0F2" stroke="#FFFFFF" stroke-width="0.5" points="648.949,154.78 550.988,98.606 551.673,233.56 		"/>
		<polygon fill="#A3C9E4" stroke="#FFFFFF" stroke-width="0.5" points="534.547,419.892 509.201,560.325 647.579,507.577 		"/>
		<polygon fill="#7FA0CE" stroke="#FFFFFF" stroke-width="0.5" points="527.697,854.209 517.421,914.492 600.996,832.287 		"/>
		<polygon fill="#7C9BCB" stroke="#FFFFFF" stroke-width="0.5" points="517.421,914.492 629.768,937.784 600.996,832.287 		"/>
		<polygon fill="#758DBD" stroke="#FFFFFF" stroke-width="0.5" points="562.65,992.245 628.223,992.245 629.768,937.784 		"/>
		<polygon fill="#D7E6F5" stroke="#FFFFFF" stroke-width="0.5" points="616.355,68.807 531.573,68.807 550.988,98.606 		"/>
		<polygon fill="#7A93C5" stroke="#FFFFFF" stroke-width="0.5" points="517.421,914.492 512.562,992.245 562.65,992.245 
			629.768,937.784 		"/>
		<polygon fill="#84ABD5" stroke="#FFFFFF" stroke-width="0.5" points="502.35,719.255 600.996,832.287 636.619,767.894 		"/>
		<polygon fill="#83A8D4" stroke="#FFFFFF" stroke-width="0.5" points="527.697,854.209 600.996,832.287 502.35,719.255 		"/>
		<polygon fill="#7D94C4" stroke="#FFFFFF" stroke-width="0.5" points="429.051,979.571 447.514,992.245 512.562,992.245 
			517.421,914.492 		"/>
		<polygon fill="#88ABD6" stroke="#FFFFFF" stroke-width="0.5" points="416.035,817.901 527.697,854.209 502.35,719.255 		"/>
		<polygon fill="#AACDE7" stroke="#FFFFFF" stroke-width="0.5" points="534.547,419.892 436.586,454.829 509.201,560.325 		"/>
		<polygon fill="#D8E6F5" stroke="#FFFFFF" stroke-width="0.5" points="550.988,98.606 503.067,68.807 467.906,68.807 
			458.507,194.512 		"/>
		<polygon fill="#C4DBEE" stroke="#FFFFFF" stroke-width="0.5" points="551.673,233.56 424.94,341.796 508.516,358.923 		"/>
		<polygon fill="#CCDFF1" stroke="#FFFFFF" stroke-width="0.5" points="551.673,233.56 458.507,194.512 424.94,341.796 		"/>
		<polygon fill="#D1E2F3" stroke="#FFFFFF" stroke-width="0.5" points="550.988,98.606 458.507,194.512 551.673,233.56 		"/>
		<polygon fill="#99C1E1" stroke="#FFFFFF" stroke-width="0.5" points="509.201,560.325 403.704,616.499 548.933,646.641 		"/>
		<polygon fill="#DBE8F6" stroke="#FFFFFF" stroke-width="0.5" points="531.573,68.807 503.067,68.807 550.988,98.606 		"/>
		<polygon fill="#93BBDE" stroke="#FFFFFF" stroke-width="0.5" points="403.704,616.499 502.35,719.255 548.933,646.641 		"/>
		<polygon fill="#DAE8F6" stroke="#FFFFFF" stroke-width="0.5" points="458.507,194.512 467.906,68.807 451.829,68.807 
			398.909,131.488 		"/>
		<polygon fill="#93BBDD" stroke="#FFFFFF" stroke-width="0.5" points="426.311,715.145 502.35,719.255 403.704,616.499 		"/>
		<polygon fill="#A8CDE6" stroke="#FFFFFF" stroke-width="0.5" points="436.586,454.829 407.129,507.577 509.201,560.325 		"/>
		<polygon fill="#B5D4E9" stroke="#FFFFFF" stroke-width="0.5" points="508.516,358.923 436.586,454.829 534.547,419.892 		"/>
		<polygon fill="#83A2D0" stroke="#FFFFFF" stroke-width="0.5" points="416.035,817.901 517.421,914.492 527.697,854.209 		"/>
		<polygon fill="#8DB2D9" stroke="#FFFFFF" stroke-width="0.5" points="426.311,715.145 416.035,817.901 502.35,719.255 		"/>
		<polygon fill="#BBD8EB" stroke="#FFFFFF" stroke-width="0.5" points="508.516,358.923 424.94,341.796 436.586,454.829 		"/>
		<polygon fill="#849DCC" stroke="#FFFFFF" stroke-width="0.5" points="429.051,979.571 517.421,914.492 365.342,863.799 		"/>
		<polygon fill="#87A4D1" stroke="#FFFFFF" stroke-width="0.5" points="365.342,863.799 517.421,914.492 416.035,817.901 		"/>
		<polygon fill="#7B8EBB" stroke="#FFFFFF" stroke-width="0.5" points="429.663,992.245 447.514,992.245 429.051,979.571 		"/>
		<polygon fill="#A1C7E4" stroke="#FFFFFF" stroke-width="0.5" points="407.129,507.577 403.704,616.499 509.201,560.325 		"/>
		<polygon fill="#90B1D9" stroke="#FFFFFF" stroke-width="0.5" points="366.712,761.728 416.035,817.901 426.311,715.145 		"/>
		<polygon fill="#D5E4F4" stroke="#FFFFFF" stroke-width="0.5" points="339.31,310.97 458.507,194.512 306.428,204.788 		"/>
		<polygon fill="#CDE0F1" stroke="#FFFFFF" stroke-width="0.5" points="424.94,341.796 458.507,194.512 339.31,310.97 		"/>
		<polygon fill="#E2EDF8" stroke="#FFFFFF" stroke-width="0.5" points="398.909,131.488 451.829,68.807 336.079,68.807 
			331.774,119.843 		"/>
		<polygon fill="#BDDAEB" stroke="#FFFFFF" stroke-width="0.5" points="424.94,341.796 339.995,395.915 436.586,454.829 		"/>
		<polygon fill="#D8E7F5" stroke="#FFFFFF" stroke-width="0.5" points="458.507,194.512 398.909,131.488 306.428,204.788 		"/>
		<polygon fill="#99BFDF" stroke="#FFFFFF" stroke-width="0.5" points="403.704,616.499 309.168,664.451 426.311,715.145 		"/>
		<polygon fill="#869DCB" stroke="#FFFFFF" stroke-width="0.5" points="326.979,971.351 429.051,979.571 365.342,863.799 		"/>
		<polygon fill="#7F91BD" stroke="#FFFFFF" stroke-width="0.5" points="389.478,992.245 429.663,992.245 429.051,979.571 		"/>
		<polygon fill="#B5D4EA" stroke="#FFFFFF" stroke-width="0.5" points="436.586,454.829 339.995,395.915 407.129,507.577 		"/>
		<polygon fill="#A7CBE6" stroke="#FFFFFF" stroke-width="0.5" points="407.129,507.577 314.648,523.333 403.704,616.499 		"/>
		<polygon fill="#8497C5" stroke="#FFFFFF" stroke-width="0.5" points="326.979,971.351 325.609,992.245 389.478,992.245 
			429.051,979.571 		"/>
		<polygon fill="#96B9DD" stroke="#FFFFFF" stroke-width="0.5" points="309.168,664.451 366.712,761.728 426.311,715.145 		"/>
		<polygon fill="#C6DDEE" stroke="#FFFFFF" stroke-width="0.5" points="339.31,310.97 339.995,395.915 424.94,341.796 		"/>
		<polygon fill="#DDEAF7" stroke="#FFFFFF" stroke-width="0.5" points="398.909,131.488 331.774,119.843 306.428,204.788 		"/>
		<polygon fill="#B3D3EA" stroke="#FFFFFF" stroke-width="0.5" points="339.995,395.915 314.648,523.333 407.129,507.577 		"/>
		<polygon fill="#8DACD7" stroke="#FFFFFF" stroke-width="0.5" points="365.342,863.799 416.035,817.901 366.712,761.728 		"/>
		<polygon fill="#A3C7E4" stroke="#FFFFFF" stroke-width="0.5" points="314.648,523.333 309.168,664.451 403.704,616.499 		"/>
		<polygon fill="#94B0D8" stroke="#FFFFFF" stroke-width="0.5" points="243.404,764.081 243.404,866.646 365.342,863.799 		"/>
		<polygon fill="#8CA2CF" stroke="#FFFFFF" stroke-width="0.5" points="243.404,898.26 243.404,927.162 326.979,971.351 
			365.342,863.799 		"/>
		<polygon fill="#93B2DA" stroke="#FFFFFF" stroke-width="0.5" points="366.712,761.728 243.404,742.715 243.404,764.081 
			365.342,863.799 		"/>
		<polygon fill="#99BBDE" stroke="#FFFFFF" stroke-width="0.5" points="309.168,664.451 243.404,713.659 243.404,742.715 
			366.712,761.728 		"/>
		<polygon fill="#91A9D3" stroke="#FFFFFF" stroke-width="0.5" points="243.404,866.646 243.404,898.26 365.342,863.799 		"/>
		<polygon fill="#9EC1E0" stroke="#FFFFFF" stroke-width="0.5" points="243.404,670.617 243.404,713.659 309.168,664.451 		"/>
		<polygon fill="#A4C7E4" stroke="#FFFFFF" stroke-width="0.5" points="314.648,523.333 243.404,670.617 309.168,664.451 		"/>
		<polygon fill="#E8F1FA" stroke="#FFFFFF" stroke-width="0.5" points="331.774,119.843 302.115,68.807 243.404,68.807 
			243.404,127.245 		"/>
		<polygon fill="#D5E5F4" stroke="#FFFFFF" stroke-width="0.5" points="306.428,204.788 243.404,280.321 243.404,312.042 
			339.31,310.97 		"/>
		<polygon fill="#B8D6EB" stroke="#FFFFFF" stroke-width="0.5" points="339.995,395.915 243.404,479.183 243.404,504.612 
			314.648,523.333 		"/>
		<polygon fill="#C0DCED" stroke="#FFFFFF" stroke-width="0.5" points="243.404,396.932 243.404,479.183 339.995,395.915 		"/>
		<polygon fill="#CBE1F0" stroke="#FFFFFF" stroke-width="0.5" points="339.31,310.97 243.404,312.042 243.404,330.448 
			339.995,395.915 		"/>
		<polygon fill="#CAE1F0" stroke="#FFFFFF" stroke-width="0.5" points="243.404,330.448 243.404,396.932 339.995,395.915 		"/>
		<polygon fill="#E9F2FB" stroke="#FFFFFF" stroke-width="0.5" points="336.079,68.807 302.115,68.807 331.774,119.843 		"/>
		<polygon fill="#DBE9F6" stroke="#FFFFFF" stroke-width="0.5" points="243.404,203.61 243.404,280.321 306.428,204.788 		"/>
		<polygon fill="#ACCDE8" stroke="#FFFFFF" stroke-width="0.5" points="243.404,504.612 243.404,670.617 314.648,523.333 		"/>
		<polygon fill="#DEEBF7" stroke="#FFFFFF" stroke-width="0.5" points="331.774,119.843 243.404,194.712 243.404,203.61 
			306.428,204.788 		"/>
		<polygon fill="#E2EEF9" stroke="#FFFFFF" stroke-width="0.5" points="243.404,127.245 243.404,194.712 331.774,119.843 		"/>
		<polygon fill="#8696C1" stroke="#FFFFFF" stroke-width="0.5" points="310.038,992.245 325.609,992.245 326.979,971.351 		"/>
		<polygon fill="#8B9CC8" stroke="#FFFFFF" stroke-width="0.5" points="243.404,927.162 243.404,992.245 310.038,992.245 
			326.979,971.351 		"/>
	</g>
</g>
<g id="Слой_2">
	<circle fill="#FFFFFF" cx="551.118" cy="234.162" r="2.843"/>
	<circle fill="#FFFFFF" cx="648.949" cy="154.78" r="2.843"/>
	<circle fill="#FFFFFF" cx="550.988" cy="100.147" r="2.843"/>
	<circle fill="#FFFFFF" cx="458.165" cy="194.512" r="2.843"/>
	<circle fill="#FFFFFF" cx="398.909" cy="131.659" r="2.843"/>
	<circle fill="#FFFFFF" cx="331.774" cy="119.843" r="2.843"/>
	<circle fill="#FFFFFF" cx="306.428" cy="204.788" r="2.843"/>
	<circle fill="#FFFFFF" cx="339.31" cy="310.97" r="2.843"/>
	<circle fill="#FFFFFF" cx="424.94" cy="341.796" r="2.843"/>
	<circle fill="#FFFFFF" cx="508.516" cy="358.923" r="2.843"/>
	<circle fill="#FFFFFF" cx="647.579" cy="321.245" r="2.843"/>
	<circle fill="#FFFFFF" cx="657.855" cy="239.04" r="2.843"/>
	<circle fill="#FFFFFF" cx="755.816" cy="241.965" r="2.843"/>
	<circle fill="#FFFFFF" cx="766.777" cy="145.875" r="2.843"/>
	<circle fill="#FFFFFF" cx="832.541" cy="127.245" r="2.843"/>
	<circle fill="#FFFFFF" cx="860.627" cy="210.269" r="2.843"/>
	<circle fill="#FFFFFF" cx="853.092" cy="327.411" r="2.843"/>
	<circle fill="#FFFFFF" cx="732.524" cy="347.962" r="2.843"/>
	<circle fill="#FFFFFF" cx="733.895" cy="458.624" r="2.843"/>
	<circle fill="#FFFFFF" cx="674.296" cy="465.104" r="2.843"/>
	<circle fill="#FFFFFF" cx="534.547" cy="421.262" r="2.843"/>
	<circle fill="#FFFFFF" cx="436.586" cy="454.829" r="2.843"/>
	<circle fill="#FFFFFF" cx="339.995" cy="396.932" r="2.843"/>
	<circle fill="#FFFFFF" cx="314.648" cy="523.333" r="2.843"/>
	<circle fill="#FFFFFF" cx="407.129" cy="508.947" r="2.843"/>
	<circle fill="#FFFFFF" cx="508.516" cy="560.325" r="2.843"/>
	<circle fill="#FFFFFF" cx="647.949" cy="507.947" r="2.843"/>
	<circle fill="#FFFFFF" cx="403.704" cy="616.499" r="2.843"/>
	<circle fill="#FFFFFF" cx="309.168" cy="665.821" r="2.843"/>
	<circle fill="#FFFFFF" cx="426.311" cy="716.502" r="2.843"/>
	<circle fill="#FFFFFF" cx="502.35" cy="719.345" r="2.843"/>
	<circle fill="#FFFFFF" cx="548.933" cy="646.641" r="2.843"/>
	<circle fill="#FFFFFF" cx="651.004" cy="616.499" r="2.843"/>
	<circle fill="#FFFFFF" cx="751.021" cy="550.05" r="2.843"/>
	<circle fill="#FFFFFF" cx="753.863" cy="651.436" r="2.843"/>
	<circle fill="#FFFFFF" cx="724.304" cy="711.72" r="2.843"/>
	<circle fill="#FFFFFF" cx="636.619" cy="768.578" r="2.843"/>
	<circle fill="#FFFFFF" cx="416.035" cy="817.901" r="2.843"/>
	<circle fill="#FFFFFF" cx="365.342" cy="761.728" r="2.843"/>
	<circle fill="#FFFFFF" cx="365.342" cy="863.799" r="2.843"/>
	<circle fill="#FFFFFF" cx="426.311" cy="979.571" r="2.843"/>
	<circle fill="#FFFFFF" cx="517.421" cy="914.492" r="2.843"/>
	<circle fill="#FFFFFF" cx="527.697" cy="854.209" r="2.843"/>
	<circle fill="#FFFFFF" cx="599.969" cy="832.287" r="2.843"/>
	<circle fill="#FFFFFF" cx="326.979" cy="971.351" r="2.843"/>
	<circle fill="#FFFFFF" cx="628.223" cy="937.784" r="2.843"/>
	<circle fill="#FFFFFF" cx="714.028" cy="827.492" r="2.843"/>
	<circle fill="#FFFFFF" cx="807.879" cy="766.523" r="2.843"/>
	<circle fill="#FFFFFF" cx="880.494" cy="854.209" r="2.843"/>
	<circle fill="#FFFFFF" cx="962.014" cy="877.944" r="2.843"/>
	<circle fill="#FFFFFF" cx="922.966" cy="714.563" r="2.843"/>
	<circle fill="#FFFFFF" cx="823.635" cy="662.396" r="2.843"/>
	<circle fill="#FFFFFF" cx="981.195" cy="603.482" r="2.843"/>
	<circle fill="#FFFFFF" cx="1032.572" cy="641.16" r="2.843"/>
	<circle fill="#FFFFFF" cx="1065.455" cy="744.602" r="2.843"/>
	<circle fill="#FFFFFF" cx="1148.346" cy="766.523" r="2.843"/>
	<circle fill="#FFFFFF" cx="1182.598" cy="612.389" r="2.843"/>
	<circle fill="#FFFFFF" cx="1168.211" cy="543.199" r="2.843"/>
	<circle fill="#FFFFFF" cx="1075.045" cy="521.278" r="2.843"/>
	<circle fill="#FFFFFF" cx="957.218" cy="531.553" r="2.843"/>
	<circle fill="#FFFFFF" cx="834.068" cy="509.66" r="2.843"/>
	<circle fill="#FFFFFF" cx="880.494" cy="435.647" r="2.843"/>
	<circle fill="#FFFFFF" cx="957.904" cy="452.773" r="2.843"/>
	<circle fill="#FFFFFF" cx="944.203" cy="347.962" r="2.843"/>
	<circle fill="#FFFFFF" cx="947.046" cy="256.851" r="2.843"/>
	<circle fill="#FFFFFF" cx="977.769" cy="122.583" r="2.842"/>
	<circle fill="#FFFFFF" cx="1070.25" cy="136.969" r="2.842"/>
	<circle fill="#FFFFFF" cx="1055.179" cy="217.804" r="2.842"/>
	<circle fill="#FFFFFF" cx="1020.927" cy="358.923" r="2.842"/>
	<circle fill="#FFFFFF" cx="1140.81" cy="404.135" r="2.842"/>
	<circle fill="#FFFFFF" cx="1164.787" cy="309.6" r="2.842"/>
	<circle fill="#FFFFFF" cx="1162.787" cy="206.158" r="2.842"/>
	<circle fill="#FFFFFF" cx="1134.644" cy="145.93" r="2.842"/>
	<circle fill="#FFFFFF" cx="1267.542" cy="163" r="2.842"/>
	<circle fill="#FFFFFF" cx="1268.912" cy="220.646" r="2.842"/>
	<circle fill="#FFFFFF" cx="1263.433" cy="345.119" r="2.842"/>
	<circle fill="#FFFFFF" cx="1229.865" cy="430.482" r="2.842"/>
	<circle fill="#FFFFFF" cx="1253.156" cy="565.806" r="2.842"/>
	<circle fill="#FFFFFF" cx="1273.023" cy="644.003" r="2.842"/>
	<circle fill="#FFFFFF" cx="1217.535" cy="761.728" r="2.842"/>
	<circle fill="#FFFFFF" cx="1362.078" cy="621.294" r="2.842"/>
	<circle fill="#FFFFFF" cx="1385.371" cy="520.435" r="2.842"/>
	<circle fill="#FFFFFF" cx="1353.857" cy="455.781" r="2.842"/>
	<circle fill="#FFFFFF" cx="1360.023" cy="309.6" r="2.842"/>
	<circle fill="#FFFFFF" cx="1347.007" cy="204.788" r="2.842"/>
	<circle fill="#FFFFFF" cx="1379.205" cy="103.402" r="2.842"/>
	<circle fill="#FFFFFF" cx="1487.441" cy="121.213" r="2.842"/>
	<circle fill="#FFFFFF" cx="1471.685" cy="191.772" r="2.842"/>
	<circle fill="#FFFFFF" cx="1566.063" cy="244.521" r="2.842"/>
	<circle fill="#FFFFFF" cx="1459.356" cy="312.442" r="2.842"/>
	<circle fill="#FFFFFF" cx="1526.831" cy="95.01" r="2.842"/>
	<circle fill="#FFFFFF" cx="1635.411" cy="113.677" r="2.842"/>
	<circle fill="#FFFFFF" cx="1693.639" cy="199.993" r="2.842"/>
	<circle fill="#FFFFFF" cx="1646.372" cy="336.316" r="2.842"/>
	<circle fill="#FFFFFF" cx="1570.333" cy="337.001" r="2.842"/>
	<circle fill="#FFFFFF" cx="1482.647" cy="412.356" r="2.842"/>
	<circle fill="#FFFFFF" cx="1562.797" cy="429.482" r="2.842"/>
	<circle fill="#FFFFFF" cx="1638.836" cy="430.482" r="2.842"/>
	<circle fill="#FFFFFF" cx="1636.096" cy="498.329" r="2.842"/>
	<circle fill="#FFFFFF" cx="1525.12" cy="544.569" r="2.842"/>
	<circle fill="#FFFFFF" cx="1443.6" cy="537.034" r="2.842"/>
	<circle fill="#FFFFFF" cx="1458.67" cy="663.082" r="2.842"/>
	<circle fill="#FFFFFF" cx="1590.883" cy="621.294" r="2.842"/>
	<circle fill="#FFFFFF" cx="1671.348" cy="672.672" r="2.842"/>
	<circle fill="#FFFFFF" cx="1532.374" cy="755.563" r="2.842"/>
	<circle fill="#FFFFFF" cx="1670.348" cy="758.303" r="2.842"/>
	<circle fill="#FFFFFF" cx="1598.418" cy="824.752" r="2.842"/>
	<circle fill="#FFFFFF" cx="1645.002" cy="871.335" r="2.842"/>
	<circle fill="#FFFFFF" cx="1578.553" cy="912.438" r="2.842"/>
	<circle fill="#FFFFFF" cx="1642.946" cy="948.744" r="2.842"/>
	<circle fill="#FFFFFF" cx="1485.387" cy="739.807" r="2.842"/>
	<circle fill="#FFFFFF" cx="1496.348" cy="871.335" r="2.842"/>
	<circle fill="#FFFFFF" cx="1394.276" cy="775.429" r="2.842"/>
	<circle fill="#FFFFFF" cx="1247.675" cy="817.216" r="2.842"/>
	<circle fill="#FFFFFF" cx="1333.65" cy="909.595" r="2.842"/>
	<circle fill="#FFFFFF" cx="1389.433" cy="882.295" r="2.842"/>
	<circle fill="#FFFFFF" cx="1468.259" cy="958.438" r="2.842"/>
	<circle fill="#FFFFFF" cx="1258.636" cy="932.988" r="2.842"/>
	<circle fill="#FFFFFF" cx="1175.062" cy="829.547" r="2.842"/>
	<circle fill="#FFFFFF" cx="1178.888" cy="980.112" r="2.842"/>
	<circle fill="#FFFFFF" cx="934.612" cy="971.351" r="2.843"/>
	<circle fill="#FFFFFF" cx="1014.076" cy="969.296" r="2.843"/>
	<circle fill="#FFFFFF" cx="1050.385" cy="824.649" r="2.843"/>
	<circle fill="#FFFFFF" cx="822.858" cy="955.595" r="2.843"/>
	<circle fill="#FFFFFF" cx="729.099" cy="970.666" r="2.843"/>
</g>
</svg>
