<?xml version="1.0" encoding="utf-8"?>
<!-- Generator: Adobe Illustrator 15.0.0, SVG Export Plug-In . SVG Version: 6.00 Build 0)  -->
<!DOCTYPE svg PUBLIC "-//W3C//DTD SVG 1.1//EN" "http://www.w3.org/Graphics/SVG/1.1/DTD/svg11.dtd">
<svg version="1.1" xmlns="http://www.w3.org/2000/svg" xmlns:xlink="http://www.w3.org/1999/xlink" x="0px" y="0px"
	 width="310.485px" height="274.486px" viewBox="0 0 310.485 274.486" enable-background="new 0 0 310.485 274.486"
	 xml:space="preserve">
<g id="Слой_1">
	<polygon opacity="0.8" fill-rule="evenodd" clip-rule="evenodd" fill="#98E2FB" points="214.402,69.402 265.402,82.235 
		265.402,230.235 214.402,214.903 214.402,69.402 	"/>
	<polygon fill-rule="evenodd" clip-rule="evenodd" fill="#E0FAFF" points="39.401,43.902 191.402,20.902 214.402,66.569 
		62.401,90.902 39.401,43.902 	"/>
	<polygon opacity="0.4" fill-rule="evenodd" clip-rule="evenodd" fill="#BAEAF7" points="232.402,34.403 284.403,48.902 
		265.902,82.902 215.402,68.902 232.402,34.403 	"/>
	<path fill-rule="evenodd" clip-rule="evenodd" fill="#FFFFFF" stroke="#CCF8FF" stroke-width="2" stroke-miterlimit="10" d="
		M250.397,89.82c0,12.01-9.736,21.746-21.746,21.746c-2.466,0-4.824-0.431-7.034-1.186c-6.676,6.404-15.732,10.347-25.715,10.347
		c-5.826,0-11.338-1.342-16.246-3.733c-8.232,5.717-18.224,9.076-29.003,9.076c-12.359,0-23.688-4.406-32.506-11.729
		c-3.694,1.328-7.675,2.058-11.827,2.058c-19.283,0-34.914-15.631-34.914-34.913c0-19.283,15.631-34.914,34.914-34.914
		c0.719,0,1.431,0.028,2.138,0.071c9.154-13.521,24.636-22.408,42.195-22.408c17.515,0,32.96,8.844,42.122,22.309
		c1.033-0.085,2.074-0.141,3.128-0.141c15.014,0,27.938,8.909,33.802,21.723C241.22,68.679,250.397,78.164,250.397,89.82
		L250.397,89.82z"/>
	<polygon opacity="0.5" fill-rule="evenodd" clip-rule="evenodd" fill="#98E2FB" points="26.403,57.403 78.402,71.901 
		113.901,102.902 63.401,88.901 26.403,57.403 	"/>
	
		<line opacity="0.4" fill-rule="evenodd" clip-rule="evenodd" fill="none" stroke="#4081B2" x1="284.403" y1="49.153" x2="265.902" y2="83.153"/>
	<polyline opacity="0.5" fill-rule="evenodd" clip-rule="evenodd" fill="none" stroke="#4081B2" points="26.403,56.653 
		26.403,56.653 78.402,71.152 113.901,102.153 	"/>
	<polygon fill-rule="evenodd" clip-rule="evenodd" fill="#CAF1FC" points="113.401,102.903 266.402,82.235 266.402,230.901 
		113.401,257.901 113.401,102.903 	"/>
	<path fill="none" d="M143.759,215.1c-23.767,0-43.036-19.267-43.036-43.033c0-23.77,19.269-43.036,43.036-43.036
		c23.769,0,43.035,19.266,43.035,43.036C186.794,195.833,167.528,215.1,143.759,215.1L143.759,215.1z M109.077,221.271
		c-17.348,0-31.41-14.063-31.41-31.41c0-17.346,14.063-31.408,31.41-31.408c17.345,0,31.408,14.063,31.408,31.408
		C140.485,207.207,126.422,221.271,109.077,221.271L109.077,221.271z M219.929,210.17c-20.45,0-37.026-16.578-37.026-37.026
		c0-20.449,16.576-37.027,37.026-37.027c20.448,0,37.025,16.578,37.025,37.027C256.955,193.592,240.377,210.17,219.929,210.17
		L219.929,210.17z M90.895,192.157c-10.151,0-18.38-8.229-18.38-18.38s8.229-18.38,18.38-18.38c10.151,0,18.38,8.229,18.38,18.38
		S101.046,192.157,90.895,192.157L90.895,192.157z"/>
	<path fill-rule="evenodd" clip-rule="evenodd" fill="none" d="M250.397,89.82c0,12.01-9.736,21.746-21.746,21.746
		c-2.466,0-4.824-0.431-7.034-1.186c-6.676,6.404-15.732,10.347-25.715,10.347c-5.826,0-11.338-1.342-16.246-3.733
		c-8.232,5.717-18.224,9.076-29.003,9.076c-12.359,0-23.688-4.406-32.506-11.729c-3.694,1.328-7.675,2.058-11.827,2.058
		c-19.283,0-34.914-15.631-34.914-34.913c0-19.283,15.631-34.914,34.914-34.914c0.719,0,1.431,0.028,2.138,0.071
		c9.154-13.521,24.636-22.408,42.195-22.408c17.515,0,32.96,8.844,42.122,22.309c1.033-0.085,2.074-0.141,3.128-0.141
		c15.014,0,27.938,8.909,33.802,21.723C241.22,68.679,250.397,78.164,250.397,89.82L250.397,89.82z"/>
	<polygon fill-rule="evenodd" clip-rule="evenodd" fill="#E0FAFF" points="61.402,88.402 113.401,102.903 113.401,257.901 
		61.402,239.152 61.402,88.402 	"/>
	<path opacity="0.5" fill="#FFFFFF" d="M219.929,136.116c-15.957,0-29.554,10.094-34.76,24.244
		c-5.1-18.077-21.701-31.33-41.41-31.33c-19.247,0-35.541,12.637-41.043,30.067c-0.204,0.042-0.405,0.094-0.607,0.14
		c-3.105-2.398-6.987-3.84-11.214-3.84c-10.151,0-18.38,8.229-18.38,18.38c0,5.037,2.029,9.598,5.311,12.917
		c-0.104,1.041-0.159,2.098-0.159,3.166c0,17.347,14.063,31.41,31.41,31.41c8.209,0,15.681-3.153,21.276-8.312
		c4.22,1.383,8.723,2.141,13.406,2.141c19.283,0,35.602-12.682,41.074-30.159c4.927,14.662,18.772,25.229,35.096,25.229
		c20.448,0,37.025-16.578,37.025-37.026C256.955,152.694,240.377,136.116,219.929,136.116z"/>
	<path opacity="0.8" fill="#FFFFFF" d="M226.983,116.685c-0.146,0-0.291,0.009-0.437,0.011c-5.591-5.301-13.138-8.559-21.45-8.559
		c-8.169,0-15.602,3.145-21.163,8.285c-5.876-4.106-13.021-6.522-20.733-6.522c-7.941,0-15.28,2.561-21.253,6.891
		c-4.851-5.576-11.993-9.106-19.964-9.106c-12.19,0-22.45,8.249-25.517,19.467c-0.266-0.014-0.529-0.041-0.798-0.041
		c-8.551,0-15.483,6.932-15.483,15.483s6.932,15.481,15.483,15.481c3.653,0,7.003-1.272,9.651-3.388
		c4.549,3.694,10.347,5.912,16.664,5.912c2.612,0,5.134-0.385,7.518-1.09c5.32,13.407,18.398,22.894,33.7,22.894
		c11.92,0,22.494-5.755,29.102-14.636c3.905,1.76,8.233,2.747,12.795,2.747c4.456,0,8.69-0.941,12.525-2.625
		c2.911,1.102,6.064,1.71,9.361,1.71c14.612,0,26.459-11.845,26.459-26.457C253.442,128.531,241.595,116.685,226.983,116.685z"/>
	<g>
		<defs>
			<polygon id="SVGID_1_" points="113.401,142.236 266.402,121.568 266.402,187.473 113.401,214.473 113.401,142.236 			"/>
		</defs>
		<clipPath id="SVGID_2_">
			<use xlink:href="#SVGID_1_"  overflow="visible"/>
		</clipPath>
		<g clip-path="url(#SVGID_2_)">
			<polygon fill="#D0E4F7" points="96.571,104.756 145.626,95.805 145.818,96.786 116.098,102.992 96.731,105.743 			"/>
			<path fill="#D0E4F7" d="M96.661,105.248l19.335-2.745l29.72-6.206L96.661,105.248z"/>
			<polygon fill="#668ACD" points="257.04,112.112 231.378,95.402 231.798,94.505 279.898,109.306 279.792,110.282 257.354,112.191 
							"/>
			<path fill="#668ACD" d="M231.651,94.983l25.661,16.71l22.438-1.91L231.651,94.983z"/>
			<polygon fill="#466EB4" points="276.515,132.798 276.509,132.64 279.254,109.724 280.25,109.772 281.207,150.949 
				280.216,151.061 			"/>
			<path fill="#466EB4" d="M279.75,109.784l-2.745,22.916l3.701,18.262L279.75,109.784z"/>
			<polygon fill="#004C9C" points="257.826,205.999 257.523,205.188 273.04,186.33 273.878,186.436 284.74,209.712 284.204,210.416 
							"/>
			<path fill="#004C9C" d="M273.425,186.647l-15.517,18.858l26.378,4.417L273.425,186.647z"/>
			<polygon fill="#004A98" points="261.363,221.146 257.424,205.629 257.992,205.013 284.37,209.43 284.508,210.371 
				262.069,221.471 			"/>
			<path fill="#004A98" d="M257.909,205.506l3.938,15.517l22.439-11.1L257.909,205.506z"/>
			<polygon fill="#004D9C" points="272.972,186.859 272.949,186.496 276.052,176.71 277.015,176.747 284.773,209.809 
				283.833,210.135 			"/>
			<path fill="#004D9C" d="M276.529,176.861l-3.104,9.786l10.861,23.275L276.529,176.861z"/>
			<polygon fill="#1559A9" points="280.208,150.991 279.25,109.795 280.25,109.761 284.786,209.9 283.788,209.953 			"/>
			<path fill="#1559A9" d="M279.75,109.784l0.956,41.177l3.58,58.962L279.75,109.784z"/>
			<polygon fill="#0050A0" points="276.042,176.976 276.036,176.781 280.213,150.881 281.206,150.931 284.786,209.893 
				283.8,210.037 			"/>
			<path fill="#0050A0" d="M280.707,150.961l-4.178,25.9l7.758,33.062L280.707,150.961z"/>
			<polygon fill="#5779BF" points="256.947,112.035 257.27,111.195 279.708,109.286 280.247,109.843 277.501,132.759 
				276.64,133.041 			"/>
			<path fill="#5779BF" d="M257.312,111.693l19.693,21.006l2.745-22.916L257.312,111.693z"/>
			<polygon fill="#075CB5" points="242.876,159.759 243,158.828 280.598,150.473 281.2,151.041 277.022,176.941 276.296,177.304 			
				"/>
			<path fill="#075CB5" d="M243.109,159.316l33.42,17.545l4.178-25.9L243.109,159.316z"/>
			<polygon fill="#276DBE" points="242.696,159.035 258.212,136.238 258.899,136.101 280.98,150.543 280.815,151.449 
				243.217,159.805 			"/>
			<path fill="#276DBE" d="M258.625,136.519l-15.517,22.797l37.598-8.355L258.625,136.519z"/>
			<polygon fill="#386DB8" points="258.352,136.938 258.524,136.029 276.904,132.209 277.496,132.6 281.197,150.861 
				280.433,151.379 			"/>
			<path fill="#386DB8" d="M277.005,132.699l-18.38,3.82l22.081,14.442L277.005,132.699z"/>
			<polygon fill="#4E79C4" points="258.126,136.545 256.813,111.72 257.677,111.352 277.371,132.357 277.107,133.189 
				258.727,137.009 			"/>
			<path fill="#4E79C4" d="M257.312,111.693l1.313,24.826l18.38-3.82L257.312,111.693z"/>
			<polygon fill="#0067BD" points="240.774,171.751 240.706,171.412 242.615,159.239 243.597,159.21 248.729,182.842 
				247.815,183.21 			"/>
			<path fill="#0067BD" d="M243.109,159.316l-1.909,12.173l7.041,11.459L243.109,159.316z"/>
			<polygon fill="#0060B7" points="247.752,183.055 242.621,159.423 243.341,158.874 276.761,176.419 276.634,177.351 
				248.346,183.438 			"/>
			<path fill="#0060B7" d="M243.109,159.316l5.132,23.632l28.288-6.087L243.109,159.316z"/>
			<polygon fill="#0058AC" points="248.168,183.443 248.135,182.459 276.423,176.372 277.005,177.013 273.902,186.799 
				273.353,187.143 			"/>
			<path fill="#0058AC" d="M248.241,182.948l25.185,3.699l3.104-9.786L248.241,182.948z"/>
			<polygon fill="#0058AC" points="257.449,205.703 247.781,183.146 248.313,182.453 273.498,186.152 273.811,186.965 
				258.294,205.823 			"/>
			<path fill="#0058AC" d="M248.241,182.948l9.668,22.558l15.517-18.858L248.241,182.948z"/>
			<polygon fill="#004EA1" points="168.03,228.444 167.906,227.462 199.892,218.869 200.148,218.868 236.313,228.297 
				236.181,229.28 			"/>
			<path fill="#004EA1" d="M200.022,219.352l-31.986,8.593l68.151,0.836L200.022,219.352z"/>
			<polygon fill="#5381CA" points="246.24,126.271 246.171,125.595 256.914,111.392 257.811,111.667 259.125,136.493 
				258.295,136.894 			"/>
			<path fill="#5381CA" d="M257.312,111.693l-10.742,14.203l12.056,10.623L257.312,111.693z"/>
			<polygon fill="#004A99" points="235.822,228.439 257.543,205.165 258.393,205.383 262.332,220.899 261.992,221.501 
				236.332,229.259 			"/>
			<path fill="#004A99" d="M257.909,205.506l-21.722,23.274l25.66-7.758L257.909,205.506z"/>
			<polygon fill="#005CB0" points="226.478,203.497 226.179,202.632 247.902,182.581 248.701,182.751 258.369,205.309 
				257.869,206.004 			"/>
			<path fill="#005CB0" d="M248.241,182.948l-21.723,20.051l31.391,2.507L248.241,182.948z"/>
			<polygon fill="#0054A7" points="235.719,228.956 226.05,203.175 226.558,202.501 257.949,205.008 258.274,205.847 
				236.552,229.121 			"/>
			<path fill="#0054A7" d="M226.518,202.999l9.669,25.781l21.722-23.274L226.518,202.999z"/>
			<polygon fill="#4C83CB" points="238.178,130.31 238.119,129.384 246.354,125.445 246.9,125.521 258.956,136.144 258.469,136.994 
							"/>
			<path fill="#4C83CB" d="M246.57,125.896l-8.235,3.938l20.291,6.684L246.57,125.896z"/>
			<polygon fill="#397EC7" points="242.616,159.396 237.841,129.915 238.491,129.36 258.782,136.044 259.039,136.8 243.522,159.598 
							"/>
			<path fill="#397EC7" d="M238.334,129.835l4.774,29.481l15.517-22.797L238.334,129.835z"/>
			<polygon fill="#638FD2" points="246.12,126.114 231.201,95.201 231.923,94.564 257.584,111.274 257.71,111.995 246.968,126.198 
							"/>
			<path fill="#638FD2" d="M231.651,94.983l14.919,30.913l10.742-14.203L231.651,94.983z"/>
			<polygon fill="#5173B9" points="89.308,216.863 89.395,215.868 136.42,217.181 136.56,217.205 168.19,227.469 167.962,228.439 
							"/>
			<path fill="#5173B9" d="M136.406,217.681l-47.025-1.313l78.655,11.576L136.406,217.681z"/>
			<polygon fill="#5E91D4" points="237.843,129.929 231.16,95.078 232.101,94.766 247.02,125.679 246.786,126.348 238.55,130.286 
							"/>
			<path fill="#5E91D4" d="M231.651,94.983l6.684,34.852l8.235-3.938L231.651,94.983z"/>
			<polygon fill="#0066B9" points="226.065,202.788 240.747,171.278 241.625,171.228 248.667,182.687 248.58,183.315 
				226.857,203.366 			"/>
			<path fill="#0066B9" d="M241.2,171.489l-14.682,31.51l21.723-20.051L241.2,171.489z"/>
			<polygon fill="#67A0DA" points="198.705,120.174 198.528,119.291 231.35,94.584 232.142,94.889 238.826,129.741 238.21,130.319 
							"/>
			<path fill="#67A0DA" d="M231.651,94.983l-32.822,24.707l39.506,10.145L231.651,94.983z"/>
			<polygon fill="#006DC0" points="206.036,169.236 206.502,168.483 241.236,170.99 241.653,171.7 226.971,203.21 226.087,203.253 
							"/>
			<path fill="#006DC0" d="M206.466,168.982l20.052,34.017l14.682-31.51L206.466,168.982z"/>
			<polygon fill="#3E8FCF" points="198.968,138.401 199.085,137.461 238.233,129.345 238.828,129.755 243.602,159.236 
				242.89,159.766 			"/>
			<path fill="#3E8FCF" d="M238.334,129.835l-39.147,8.116l43.922,21.365L238.334,129.835z"/>
			<polygon fill="#2589CE" points="205.98,169.097 198.701,138.065 199.406,137.501 243.328,158.867 243.237,159.8 206.594,169.466 
							"/>
			<path fill="#2589CE" d="M199.187,137.951l7.279,31.031l36.643-9.666L199.187,137.951z"/>
			<polygon fill="#0874C5" points="206.43,169.481 206.338,168.499 242.981,158.833 243.603,159.394 241.694,171.566 
				241.164,171.988 			"/>
			<path fill="#0874C5" d="M206.466,168.982l34.733,2.507l1.909-12.173L206.466,168.982z"/>
			<polygon fill="#5BA2D9" points="198.687,137.961 198.329,119.7 198.953,119.206 238.458,129.351 238.436,130.325 
				199.289,138.441 			"/>
			<path fill="#5BA2D9" d="M198.829,119.69l0.358,18.261l39.147-8.116L198.829,119.69z"/>
			<polygon fill="#0054A7" points="199.896,219.835 199.759,218.926 226.255,202.573 226.986,202.823 236.655,228.604 
				236.061,229.264 			"/>
			<path fill="#0054A7" d="M226.518,202.999l-26.496,16.353l36.165,9.429L226.518,202.999z"/>
			<polygon fill="#006DBF" points="204.669,203.142 204.178,202.615 205.967,168.956 206.897,168.729 226.949,202.745 
				226.51,203.499 			"/>
			<path fill="#006DBF" d="M206.466,168.982l-1.789,33.659l21.841,0.357L206.466,168.982z"/>
			<polygon fill="#7BB1E1" points="198.329,119.703 197.612,91.058 198.17,90.548 231.709,94.487 231.952,95.383 199.129,120.089 
							"/>
			<path fill="#7BB1E1" d="M198.112,91.045l0.717,28.645l32.822-24.707L198.112,91.045z"/>
			<polygon fill="#1159AA" points="167.784,227.513 181.27,219.636 181.502,219.567 200.002,218.852 200.152,219.834 
				168.166,228.427 			"/>
			<path fill="#1159AA" d="M181.522,220.067l-13.486,7.877l31.986-8.593L181.522,220.067z"/>
			<polygon fill="#0170C4" points="194.206,194.308 194.081,193.713 206.015,168.767 206.965,169.009 205.176,202.668 
				204.351,203.021 			"/>
			<path fill="#0170C4" d="M194.532,193.929l10.146,8.713l1.789-33.659L194.532,193.929z"/>
			<polygon fill="#005FB4" points="199.541,219.218 204.196,202.508 204.685,202.142 226.526,202.499 226.781,203.425 
				200.285,219.777 			"/>
			<path fill="#005FB4" d="M204.677,202.642l-4.655,16.71l26.496-16.353L204.677,202.642z"/>
			<polygon fill="#A0CDEB" points="145.666,95.799 198.062,90.547 198.346,91.486 188.917,96.499 188.686,96.558 145.719,96.797 			
				"/>
			<path fill="#A0CDEB" d="M145.716,96.297l42.967-0.239l9.429-5.013L145.716,96.297z"/>
			<polygon fill="#85BBE5" points="188.224,96.255 188.449,95.616 197.877,90.604 198.612,91.032 199.329,119.677 198.37,119.887 
							"/>
			<path fill="#85BBE5" d="M198.112,91.045l-9.429,5.013l10.146,23.632L198.112,91.045z"/>
			<polygon fill="#3898D4" points="186.622,156.752 186.477,156.054 198.771,137.673 199.673,137.837 206.953,168.868 
				206.195,169.402 			"/>
			<path fill="#3898D4" d="M199.187,137.951l-12.294,18.381l19.573,12.65L199.187,137.951z"/>
			<polygon fill="#238DD0" points="192.265,174.981 186.417,156.482 187.165,155.912 206.738,168.563 206.663,169.442 
				192.938,175.291 			"/>
			<path fill="#238DD0" d="M186.893,156.332l5.849,18.499l13.725-5.849L186.893,156.332z"/>
			<polygon fill="#0F7EC9" points="194.034,193.976 192.244,174.878 192.545,174.371 206.27,168.522 206.917,169.198 
				194.983,194.145 			"/>
			<path fill="#0F7EC9" d="M192.742,174.831l1.79,19.098l11.935-24.946L192.742,174.831z"/>
			<polygon fill="#055FB7" points="181.075,219.845 194.084,193.706 195.02,193.823 200.51,219.246 200.042,219.852 
				181.542,220.567 			"/>
			<path fill="#055FB7" d="M194.532,193.929l-13.01,26.139l18.5-0.716L194.532,193.929z"/>
			<polygon fill="#0061B9" points="199.534,219.457 194.043,194.034 194.858,193.55 205.003,202.263 205.159,202.775 
				200.503,219.485 			"/>
			<path fill="#0061B9" d="M194.532,193.929l5.49,25.423l4.655-16.71L194.532,193.929z"/>
			<polygon fill="#84BBE5" points="176.44,117.082 176.08,116.332 188.253,95.803 189.142,95.86 199.288,119.493 198.759,120.185 
							"/>
			<path fill="#84BBE5" d="M188.683,96.058l-12.174,20.529l22.319,3.104L188.683,96.058z"/>
			<polygon fill="#55A9DA" points="172.786,140.422 173.126,139.601 199.146,137.453 199.603,138.229 187.309,156.61 
				186.511,156.655 			"/>
			<path fill="#55A9DA" d="M173.167,140.1l13.726,16.232l12.294-18.381L173.167,140.1z"/>
			<polygon fill="#72B1E1" points="176.167,116.95 176.579,116.091 198.898,119.195 199.329,119.68 199.687,137.941 
				198.844,138.315 			"/>
			<path fill="#72B1E1" d="M198.829,119.69l-22.319-3.104l22.678,21.365L198.829,119.69z"/>
			<polygon fill="#6FB4E1" points="172.672,140.029 176.014,116.516 176.852,116.223 199.53,137.587 199.228,138.45 
				173.208,140.598 			"/>
			<path fill="#6FB4E1" d="M176.509,116.586l-3.342,23.513l26.02-2.148L176.509,116.586z"/>
			<polygon fill="#2B92D2" points="170.981,176.077 186.498,156.026 187.37,156.182 193.218,174.681 192.778,175.33 
				171.413,176.882 			"/>
			<path fill="#2B92D2" d="M186.893,156.332l-15.517,20.051l21.365-1.552L186.893,156.332z"/>
			<polygon fill="#1C6EBF" points="155.802,201.61 156.006,200.718 194.439,193.438 194.979,194.151 181.969,220.29 
				181.224,220.469 			"/>
			<path fill="#1C6EBF" d="M156.1,201.209l25.422,18.858l13.01-26.139L156.1,201.209z"/>
			<polygon fill="#2781CA" points="155.674,200.947 170.951,176.121 171.678,175.984 194.833,193.53 194.625,194.42 156.193,201.7 
							"/>
			<path fill="#2781CA" d="M171.376,176.383L156.1,201.209l38.432-7.28L171.376,176.383z"/>
			<polygon fill="#1883CC" points="171.075,176.781 171.34,175.884 192.706,174.332 193.24,174.784 195.03,193.882 194.23,194.327 
							"/>
			<path fill="#1883CC" d="M192.742,174.831l-21.365,1.552l23.155,17.546L192.742,174.831z"/>
			<polygon fill="#83BDE4" points="166.868,128.142 166.93,127.61 176.121,116.271 177.004,116.657 173.663,140.17 172.716,140.316 
							"/>
			<path fill="#83BDE4" d="M167.319,127.925l5.849,12.174l3.342-23.513L167.319,127.925z"/>
			<polygon fill="#94C5E9" points="161.969,110.114 161.958,109.219 188.455,95.613 189.113,96.313 176.939,116.841 
				176.292,117.037 			"/>
			<path fill="#94C5E9" d="M162.187,109.664l14.322,6.922l12.174-20.529L162.187,109.664z"/>
			<polygon fill="#A7D1EC" points="161.872,110.052 145.401,96.685 145.713,95.797 188.68,95.558 188.912,96.502 162.416,110.109 
							"/>
			<path fill="#A7D1EC" d="M145.716,96.297l16.471,13.367l26.496-13.606L145.716,96.297z"/>
			<polygon fill="#46A2D9" points="170.877,176.358 172.668,140.075 173.549,139.777 187.275,156.009 187.289,156.638 
				171.772,176.688 			"/>
			<path fill="#46A2D9" d="M173.167,140.1l-1.791,36.283l15.517-20.051L173.167,140.1z"/>
			<polygon fill="#59ABDB" points="148.142,157.79 148.174,156.996 172.88,139.69 173.667,140.124 171.875,176.407 171.057,176.768 
							"/>
			<path fill="#59ABDB" d="M148.461,157.405l22.916,18.978l1.791-36.283L148.461,157.405z"/>
			<polygon fill="#2868B6" points="167.579,228.148 155.643,201.413 156.397,200.808 181.82,219.666 181.774,220.499 
				168.288,228.376 			"/>
			<path fill="#2868B6" d="M156.1,201.209l11.936,26.735l13.486-7.877L156.1,201.209z"/>
			<polygon fill="#93C5E7" points="166.837,128.061 161.706,109.799 162.405,109.214 176.727,116.136 176.898,116.901 
				167.708,128.24 			"/>
			<path fill="#93C5E7" d="M162.187,109.664l5.132,18.261l9.19-11.339L162.187,109.664z"/>
			<polygon fill="#78BCE1" points="148.04,157.136 166.898,127.656 167.77,127.709 173.619,139.883 173.455,140.509 
				148.748,157.814 			"/>
			<path fill="#78BCE1" d="M167.319,127.925l-18.858,29.48l24.707-17.306L167.319,127.925z"/>
			<polygon fill="#4595D2" points="155.665,201.455 139.193,172.333 139.695,171.592 171.444,175.888 171.802,176.645 
				156.525,201.471 			"/>
			<path fill="#4595D2" d="M139.628,172.087l16.471,29.122l15.277-24.826L139.628,172.087z"/>
			<polygon fill="#58A6D9" points="139.562,172.582 139.2,171.829 148.033,157.147 148.78,157.021 171.696,175.998 171.309,176.878 
							"/>
			<path fill="#58A6D9" d="M148.461,157.405l-8.833,14.682l31.748,4.296L148.461,157.405z"/>
			<polygon fill="#A1CCEA" points="136.989,120.053 136.938,119.106 162.003,109.199 162.668,109.529 167.8,127.79 167.185,128.407 
							"/>
			<path fill="#A1CCEA" d="M162.187,109.664l-25.065,9.907l30.197,8.354L162.187,109.664z"/>
			<polygon fill="#91C5E6" points="147.982,157.549 136.643,119.714 137.255,119.089 167.453,127.443 167.74,128.195 
				148.882,157.675 			"/>
			<path fill="#91C5E6" d="M137.122,119.571l11.339,37.834l18.858-29.48L137.122,119.571z"/>
			<polygon fill="#3A70BB" points="136.251,218.156 136.085,217.297 155.779,200.825 156.556,201.005 168.493,227.74 
				167.881,228.42 			"/>
			<path fill="#3A70BB" d="M156.1,201.209l-19.694,16.472l31.63,10.264L156.1,201.209z"/>
			<polygon fill="#99C9E8" points="124.887,140.381 124.755,139.728 136.69,119.318 137.601,119.427 148.94,157.262 
				148.161,157.806 			"/>
			<path fill="#99C9E8" d="M137.122,119.571l-11.935,20.41l23.274,17.425L137.122,119.571z"/>
			<polygon fill="#5093D3" points="132.952,189.717 132.715,189.098 139.16,171.911 140.063,171.841 156.535,200.963 
				155.869,201.652 			"/>
			<path fill="#5093D3" d="M139.628,172.087l-6.445,17.187l22.917,11.936L139.628,172.087z"/>
			<polygon fill="#B2D4EF" points="136.653,119.397 145.247,96.124 146.031,95.909 162.502,109.276 162.371,110.129 
				137.306,120.036 			"/>
			<path fill="#B2D4EF" d="M145.716,96.297l-8.594,23.274l25.065-9.907L145.716,96.297z"/>
			<polygon fill="#4B81CA" points="135.909,217.737 132.687,189.33 133.414,188.83 156.331,200.766 156.42,201.593 136.727,218.064 
							"/>
			<path fill="#4B81CA" d="M133.183,189.273l3.223,28.407l19.694-16.472L133.183,189.273z"/>
			<polygon fill="#77B6E3" points="139.172,172.292 124.731,140.186 125.487,139.58 148.761,157.005 148.889,157.663 
				140.057,172.345 			"/>
			<path fill="#77B6E3" d="M125.187,139.98l14.441,32.106l8.833-14.682L125.187,139.98z"/>
			<polygon fill="#5784CC" points="116.564,205.688 116.482,204.909 132.833,188.916 133.68,189.217 136.902,217.624 
				136.138,218.103 			"/>
			<path fill="#5784CC" d="M133.183,189.273l-16.352,15.993l19.574,12.414L133.183,189.273z"/>
			<polygon fill="#C3DBF4" points="115.682,102.892 115.894,102.014 145.614,95.808 146.185,96.47 137.591,119.744 136.808,119.96 
							"/>
			<path fill="#C3DBF4" d="M115.996,102.503l21.126,17.068l8.594-23.274L115.996,102.503z"/>
			<polygon fill="#5D7EC6" points="89.366,216.868 89.217,215.896 116.55,206.466 116.952,206.5 136.645,217.242 136.392,218.181 
							"/>
			<path fill="#5D7EC6" d="M116.713,206.938l-27.333,9.43l47.025,1.313L116.713,206.938z"/>
			<polygon fill="#5980C8" points="116.474,207.377 116.214,206.903 116.333,205.231 117.099,204.845 136.673,217.259 
				136.167,218.119 			"/>
			<path fill="#5980C8" d="M116.832,205.267l-0.119,1.672l19.693,10.742L116.832,205.267z"/>
			<polygon fill="#C1DAF2" points="123.293,121.196 115.535,102.696 116.311,102.114 137.437,119.182 137.175,120.068 
				123.808,121.5 			"/>
			<path fill="#C1DAF2" d="M115.996,102.503l7.758,18.5l13.368-1.432L115.996,102.503z"/>
			<polygon fill="#B2D2EE" points="124.688,140.018 123.256,121.041 123.701,120.506 137.069,119.074 137.554,119.823 
				125.619,140.233 			"/>
			<path fill="#B2D2EE" d="M123.754,121.003l1.433,18.978l11.935-20.41L123.754,121.003z"/>
			<polygon fill="#66A4DB" points="105.289,177.317 105.424,176.366 139.559,171.592 140.097,172.263 133.651,189.449 
				132.979,189.729 			"/>
			<path fill="#66A4DB" d="M105.493,176.861l27.69,12.412l6.445-17.187L105.493,176.861z"/>
			<polygon fill="#7AB6E3" points="105.052,176.626 124.746,139.745 125.643,139.775 140.084,171.882 139.698,172.582 
				105.563,177.356 			"/>
			<path fill="#7AB6E3" d="M125.187,139.98l-19.694,36.881l34.135-4.774L125.187,139.98z"/>
			<polygon fill="#90C3E8" points="90.972,151.801 91.247,151.085 125.025,139.507 125.628,140.216 105.934,177.097 
				105.056,177.104 			"/>
			<path fill="#90C3E8" d="M91.409,151.558l14.084,25.304l19.694-36.881L91.409,151.558z"/>
			<polygon fill="#6499D6" points="116.367,205.452 105.029,177.047 105.698,176.405 133.388,188.817 133.533,189.631 
				117.181,205.624 			"/>
			<path fill="#6499D6" d="M105.493,176.861l11.338,28.405l16.352-15.993L105.493,176.861z"/>
			<polygon fill="#84BAE4" points="99.615,175.549 99.293,175.238 90.938,151.725 91.846,151.314 105.93,176.618 105.344,177.339 
							"/>
			<path fill="#84BAE4" d="M91.409,151.558l8.355,23.514l5.729,1.79L91.409,151.558z"/>
			<polygon fill="#6B99D8" points="96.765,194.001 96.573,193.344 105.047,176.635 105.958,176.676 117.296,205.081 
				116.577,205.697 			"/>
			<path fill="#6B99D8" d="M105.493,176.861l-8.474,16.709l19.813,11.696L105.493,176.861z"/>
			<polygon fill="#BEDAF2" points="90.937,151.721 80.553,121.643 81.02,120.98 123.749,120.503 124.098,121.366 91.752,151.921 			
				"/>
			<path fill="#BEDAF2" d="M81.025,121.48l10.384,30.078l32.345-30.555L81.025,121.48z"/>
			<polygon fill="#ABD2ED" points="91.066,151.194 123.411,120.64 124.253,120.965 125.686,139.943 125.349,140.454 91.571,152.03 
							"/>
			<path fill="#ABD2ED" d="M123.754,121.003l-32.345,30.555l33.778-11.577L123.754,121.003z"/>
			<polygon fill="#CEE3F6" points="80.665,121.133 96.3,104.901 96.912,104.816 124.006,120.571 123.76,121.503 81.031,121.98 			
				"/>
			<path fill="#CEE3F6" d="M96.661,105.248L81.025,121.48l42.729-0.477L96.661,105.248z"/>
			<polygon fill="#CDE2F5" points="96.409,105.68 96.59,104.753 115.926,102.008 116.457,102.31 124.215,120.81 123.503,121.435 			
				"/>
			<path fill="#CDE2F5" d="M115.996,102.503l-19.335,2.745l27.094,15.755L115.996,102.503z"/>
			<polygon fill="#648ED1" points="96.738,193.984 97.273,193.14 117.086,204.836 117.33,205.302 117.211,206.974 116.432,207.353 
							"/>
			<path fill="#648ED1" d="M97.019,193.57l19.694,13.368l0.119-1.672L97.019,193.57z"/>
			<polygon fill="#698CCF" points="88.906,216.209 96.545,193.411 97.3,193.156 116.994,206.524 116.876,207.411 89.543,216.841 			
				"/>
			<path fill="#698CCF" d="M97.019,193.57l-7.639,22.798l27.333-9.43L97.019,193.57z"/>
			<polygon fill="#75AADE" points="96.524,193.497 99.27,174.998 99.913,174.594 105.642,176.384 105.939,177.088 97.465,193.797 
							"/>
			<path fill="#75AADE" d="M99.764,175.071l-2.745,18.499l8.474-16.709L99.764,175.071z"/>
			<polygon fill="#7FB5E2" points="96.523,193.637 90.914,151.624 91.88,151.391 100.235,174.904 100.259,175.145 97.514,193.644 
							"/>
			<path fill="#7FB5E2" d="M91.409,151.558l5.61,42.013l2.745-18.499L91.409,151.558z"/>
			<polygon fill="#76A6DC" points="88.88,216.353 90.909,151.542 91.905,151.491 97.515,193.504 97.493,193.729 89.854,216.527 			
				"/>
			<path fill="#76A6DC" d="M91.409,151.558l-2.029,64.811l7.639-22.798L91.409,151.558z"/>
			<polygon fill="#91C3E8" points="80.527,121.524 81.498,121.317 91.882,151.395 91.909,151.573 89.88,216.384 88.882,216.412 			
				"/>
			<path fill="#91C3E8" d="M81.025,121.48l8.355,94.888l2.029-64.811L81.025,121.48z"/>
		</g>
	</g>
	<path fill="#FFFFFF" d="M145.147,157.938c0-1.188-0.295-2.109-0.887-2.767c-0.591-0.655-1.426-0.908-2.501-0.76
		c-1.006,0.139-1.79,0.554-2.35,1.242c-0.563,0.69-0.842,1.499-0.842,2.427c0,0.856,0.313,1.517,0.94,1.983
		c0.627,0.466,1.714,0.931,3.263,1.396c2.448,0.495,4.289,1.296,5.524,2.403c1.236,1.107,1.854,2.749,1.854,4.925
		c0,2.248-0.744,4.11-2.234,5.588s-3.47,2.388-5.941,2.728c-2.46,0.34-4.591-0.089-6.395-1.283
		c-1.803-1.197-2.676-3.148-2.617-5.855l0.036-0.112l4.914-0.677c0,1.604,0.336,2.711,1.011,3.32
		c0.675,0.608,1.691,0.819,3.051,0.63c1.063-0.146,1.854-0.541,2.368-1.182c0.515-0.643,0.771-1.451,0.771-2.425
		c0-1.012-0.26-1.775-0.78-2.291c-0.521-0.517-1.437-0.971-2.75-1.36c-2.683-0.568-4.696-1.358-6.039-2.368
		c-1.343-1.01-2.014-2.59-2.014-4.742c0-2.128,0.781-3.969,2.341-5.522c1.562-1.553,3.554-2.496,5.979-2.831
		c2.458-0.338,4.458,0.132,5.994,1.412c1.538,1.279,2.282,3.059,2.236,5.335l-0.036,0.112L145.147,157.938L145.147,157.938z
		 M170.544,172.786l-6.137,0.848l-5.107-10.086l-2.2,0.305v10.789l-5.055,0.697v-25.967l5.055-0.698v10.559l1.632-0.226
		l5.037-11.254l6.19-0.853l-7.042,12.831L170.544,172.786L170.544,172.786z M182.902,161.843v9.238l-5.036,0.695v-9.56
		l-7.255-15.407l5.516-0.76l4.256,10.541l0.107-0.015l4.31-11.725l5.481-0.755L182.902,161.843L182.902,161.843z M202.16,150.073
		c0-1.189-0.296-2.111-0.887-2.769c-0.591-0.655-1.426-0.908-2.502-0.76c-1.006,0.139-1.789,0.554-2.35,1.242
		c-0.563,0.69-0.842,1.499-0.842,2.427c0,0.856,0.313,1.517,0.939,1.983c0.627,0.466,1.715,0.931,3.264,1.396
		c2.448,0.495,4.289,1.296,5.524,2.403s1.854,2.749,1.854,4.925c0,2.248-0.745,4.11-2.235,5.588s-3.47,2.388-5.941,2.728
		c-2.46,0.34-4.591-0.089-6.395-1.283c-1.804-1.197-2.676-3.148-2.615-5.855l0.034-0.112l4.913-0.677
		c0,1.604,0.337,2.711,1.012,3.32c0.674,0.608,1.69,0.819,3.051,0.63c1.063-0.146,1.854-0.541,2.368-1.182s0.771-1.449,0.771-2.425
		c0-1.012-0.26-1.775-0.779-2.291c-0.521-0.517-1.437-0.971-2.751-1.36c-2.683-0.568-4.696-1.358-6.039-2.368
		c-1.342-1.009-2.013-2.59-2.013-4.742c0-2.128,0.781-3.969,2.341-5.521c1.562-1.554,3.554-2.498,5.979-2.832
		c2.458-0.338,4.458,0.132,5.994,1.412c1.538,1.279,2.282,3.059,2.236,5.335l-0.036,0.112L202.16,150.073L202.16,150.073z
		 M209.208,167.452v-25.967l5.021-0.692v25.967L209.208,167.452L209.208,167.452z M217.101,166.363v-25.968l5.057-0.698v21.919
		l9.436-1.301v4.048L217.101,166.363L217.101,166.363z M251.697,161.588l-6.139,0.848l-5.108-10.085l-2.198,0.304v10.791
		l-5.056,0.695v-25.967l5.056-0.696v10.558l1.631-0.225l5.038-11.253l6.19-0.854l-7.041,12.831L251.697,161.588L251.697,161.588z
		 M140.766,185.717l-2.43,0.336c0.036-0.857-0.08-1.458-0.345-1.796c-0.267-0.34-0.73-0.463-1.392-0.372
		c-0.568,0.078-1.002,0.361-1.303,0.849c-0.303,0.488-0.454,1.185-0.454,2.089v3.9c0,0.917,0.162,1.576,0.484,1.979
		s0.794,0.559,1.415,0.473c0.609-0.083,1.033-0.318,1.271-0.705c0.241-0.388,0.346-1.007,0.315-1.858l2.43-0.334l0.026,0.05
		c0.013,1.424-0.326,2.547-1.011,3.366c-0.685,0.82-1.696,1.322-3.032,1.506c-1.337,0.186-2.403-0.08-3.203-0.792
		c-0.797-0.714-1.196-1.825-1.196-3.335v-3.879c0-1.504,0.384-2.724,1.157-3.66c0.771-0.937,1.805-1.494,3.1-1.672
		c1.371-0.188,2.407,0.036,3.108,0.677c0.699,0.641,1.063,1.683,1.086,3.122L140.766,185.717L140.766,185.717z M142.082,194.274
		v-12.983l2.528-0.35v10.96l4.718-0.651v2.024L142.082,194.274L142.082,194.274z M157.912,190.993
		c-0.821,0.971-1.916,1.549-3.281,1.737c-1.366,0.188-2.457-0.089-3.272-0.833s-1.223-1.876-1.223-3.398v-3.637
		c0-1.517,0.408-2.764,1.223-3.74c0.815-0.978,1.903-1.562,3.263-1.749c1.36-0.187,2.453,0.095,3.281,0.844
		c0.828,0.752,1.243,1.886,1.243,3.4v3.64C159.146,188.778,158.734,190.023,157.912,190.993L157.912,190.993z M156.635,183.937
		c0-0.93-0.171-1.607-0.515-2.035c-0.343-0.428-0.842-0.595-1.499-0.504c-0.662,0.091-1.159,0.396-1.49,0.911
		c-0.332,0.519-0.497,1.243-0.497,2.18v3.667c0,0.942,0.169,1.626,0.506,2.05c0.338,0.425,0.835,0.591,1.49,0.502
		c0.649-0.091,1.146-0.396,1.49-0.913c0.344-0.519,0.515-1.248,0.515-2.19V183.937L156.635,183.937z M168.059,189.749
		c-0.808,0.863-1.863,1.385-3.17,1.566c-1.308,0.18-2.364-0.052-3.171-0.696c-0.807-0.643-1.211-1.653-1.211-3.033v-8.838
		l2.52-0.347v8.837c0,0.791,0.162,1.35,0.487,1.681c0.324,0.33,0.783,0.452,1.375,0.372c0.608-0.085,1.073-0.327,1.392-0.728
		s0.479-1.015,0.479-1.841v-8.838l2.51-0.345v8.837C169.27,187.762,168.866,188.886,168.059,189.749L168.059,189.749z
		 M178.102,187.798c-0.863,1.123-1.956,1.776-3.281,1.96l-3.902,0.538v-12.984l3.902-0.537c1.325-0.184,2.418,0.169,3.281,1.058
		c0.863,0.888,1.294,2.127,1.294,3.713v2.185C179.396,185.317,178.965,186.675,178.102,187.798L178.102,187.798z M176.879,181.869
		c0-1.011-0.19-1.796-0.573-2.357c-0.381-0.561-0.924-0.792-1.628-0.693l-1.231,0.169v8.935l1.231-0.169
		c0.704-0.098,1.247-0.48,1.628-1.149c0.383-0.668,0.573-1.512,0.573-2.528V181.869L176.879,181.869z M180.986,184.341v-2.024
		l4.408-0.609v2.024L180.986,184.341L180.986,184.341z M187.219,188.047v-12.983l2.51-0.348V187.7L187.219,188.047L187.219,188.047z
		 M198.067,186.55l-3.947-7.759l-0.054,0.027v8.283l-2.527,0.349v-12.983l2.527-0.349l3.947,7.748l0.054-0.025v-8.274l2.508-0.348
		v12.983L198.067,186.55L198.067,186.55z M202.296,181.399v-2.024l4.408-0.607v2.024L202.296,181.399L202.296,181.399z
		 M214.625,184.264l-0.702-2.676l-3.405,0.47l-0.69,2.868l-2.546,0.353l3.637-13.485l2.624-0.363l3.628,12.483L214.625,184.264
		L214.625,184.264z M212.249,175.202l-0.054,0.007l-1.162,4.754l2.376-0.328L212.249,175.202L212.249,175.202z M217.643,179.282
		v-2.023l4.407-0.609v2.024L217.643,179.282L217.643,179.282z M230.224,175.397c0.68,0.066,1.182,0.346,1.508,0.835
		c0.324,0.49,0.488,1.096,0.488,1.814c0,1.243-0.354,2.234-1.06,2.974c-0.707,0.738-1.72,1.199-3.039,1.381l-4.311,0.595v-12.983
		l3.807-0.525c1.33-0.184,2.368-0.028,3.115,0.463c0.75,0.491,1.124,1.324,1.124,2.501c0,0.62-0.138,1.186-0.41,1.702
		C231.176,174.67,230.769,175.085,230.224,175.397L230.224,175.397z M228.903,171.759c-0.284-0.244-0.712-0.325-1.285-0.245
		l-1.278,0.174v3.461l1.393-0.192c0.515-0.081,0.909-0.288,1.184-0.614c0.276-0.327,0.413-0.762,0.413-1.305
		C229.329,172.43,229.186,172.003,228.903,171.759L228.903,171.759z M229.374,177.004c-0.225-0.301-0.586-0.419-1.083-0.351
		l-1.951,0.271v3.699l1.782-0.246c0.532-0.072,0.931-0.275,1.192-0.61c0.264-0.333,0.396-0.794,0.396-1.383
		C229.709,177.766,229.597,177.307,229.374,177.004L229.374,177.004z M241.208,179.5c-0.822,0.969-1.916,1.549-3.281,1.737
		c-1.365,0.187-2.457-0.091-3.272-0.833c-0.814-0.744-1.225-1.877-1.225-3.398v-3.638c0-1.517,0.41-2.763,1.225-3.74
		c0.815-0.979,1.903-1.562,3.264-1.748c1.36-0.188,2.453,0.094,3.281,0.844c0.828,0.751,1.242,1.886,1.242,3.4v3.639
		C242.442,177.285,242.031,178.529,241.208,179.5L241.208,179.5z M239.932,172.442c0-0.929-0.173-1.607-0.515-2.034
		c-0.344-0.428-0.842-0.595-1.499-0.504c-0.662,0.091-1.159,0.395-1.49,0.911s-0.496,1.242-0.496,2.179v3.668
		c0,0.941,0.169,1.625,0.505,2.049c0.337,0.426,0.834,0.591,1.49,0.5c0.65-0.089,1.146-0.393,1.49-0.911
		c0.342-0.518,0.515-1.248,0.515-2.189V172.442L239.932,172.442z M252.362,179.057l-3.04,0.42l-1.81-4.387l-0.053,0.007
		l-1.811,4.888l-2.935,0.403l3.21-6.987l-3.131-6.007l2.899-0.4l1.73,4.301l0.054-0.007l1.755-4.782l2.918-0.402l-3.131,6.87
		L252.362,179.057L252.362,179.057z"/>
	<polygon opacity="0.15" fill-rule="evenodd" clip-rule="evenodd" fill="#74B8E2" points="61.402,238.903 201.402,218.235 
		266.402,230.235 113.401,257.235 61.402,238.903 	"/>
</g>
<g id="Слой_2" display="none">
	<path display="inline" fill="#3A9BD9" d="M133.535,75.696l2.297-3.219l-2.52-2.519l-3.219,2.296
		c-0.598-0.334-1.235-0.599-1.904-0.79l-0.654-3.901h-3.564l-0.653,3.901c-0.668,0.191-1.308,0.456-1.903,0.79l-3.219-2.296
		l-2.52,2.519l2.296,3.219c-0.333,0.598-0.599,1.235-0.786,1.903l-3.904,0.654v3.563l3.904,0.655
		c0.188,0.668,0.453,1.308,0.786,1.903l-2.296,3.219l2.52,2.519l3.219-2.296c0.598,0.333,1.235,0.598,1.903,0.786l0.653,3.905h3.564
		l0.654-3.905c0.668-0.188,1.309-0.452,1.904-0.786l3.219,2.296l2.52-2.519l-2.297-3.219c0.334-0.598,0.599-1.235,0.786-1.903
		l3.905-0.65v-3.564l-3.905-0.651c-0.187-0.672-0.452-1.312-0.786-1.907V75.696z M125.754,83.599c-1.966,0-3.564-1.598-3.564-3.563
		s1.598-3.563,3.564-3.563s3.563,1.598,3.563,3.563S127.72,83.599,125.754,83.599z M170.296,56.873v-3.564l-3.752-0.682
		c-0.068-0.446-0.16-0.891-0.263-1.323l3.2-2.066l-1.363-3.292l-3.728,0.805c-0.233-0.387-0.483-0.763-0.752-1.125l2.172-3.135
		l-2.52-2.519l-3.136,2.171c-0.365-0.264-0.737-0.518-1.124-0.751l0.804-3.727l-3.291-1.364l-2.067,3.201
		c-0.433-0.107-0.877-0.195-1.323-0.264l-0.682-3.751h-3.563l-0.682,3.751c-0.446,0.069-0.891,0.157-1.323,0.264l-2.066-3.201
		l-3.292,1.364l0.804,3.727c-0.386,0.233-0.762,0.483-1.124,0.751l-3.136-2.171l-2.52,2.519l2.168,3.135
		c-0.261,0.362-0.515,0.738-0.751,1.125l-3.724-0.805l-1.364,3.292l3.202,2.066c-0.108,0.433-0.195,0.877-0.264,1.323l-3.752,0.682
		v3.564l3.752,0.682c0.069,0.446,0.156,0.892,0.264,1.323l-3.202,2.066l1.364,3.292l3.724-0.803
		c0.236,0.386,0.487,0.761,0.751,1.124l-2.168,3.136l2.52,2.52l3.136-2.172c0.362,0.265,0.738,0.519,1.124,0.751l-0.804,3.728
		l3.292,1.364l2.066-3.202c0.432,0.108,0.877,0.195,1.323,0.264l0.682,3.751h3.563l0.682-3.751c0.446-0.069,0.891-0.156,1.323-0.264
		l2.067,3.202l3.291-1.364l-0.804-3.728c0.387-0.232,0.759-0.483,1.124-0.751l3.136,2.172l2.52-2.52l-2.172-3.136
		c0.265-0.362,0.519-0.737,0.752-1.124l3.728,0.803l1.363-3.292l-3.2-2.066c0.103-0.431,0.19-0.877,0.263-1.323L170.296,56.873z
		 M150.698,62.841c-4.28,0-7.75-3.47-7.75-7.75c0-4.281,3.47-7.75,7.75-7.75c4.28,0,7.749,3.47,7.749,7.75
		C158.447,59.371,154.978,62.841,150.698,62.841z"/>
</g>
<g id="Слой_3" display="none">
	<g display="inline">
		<path fill="#3A9BD9" d="M144.333,47.675c0.489-0.407,0.672-1.324,0.754-2.111c1.241,0.54,2.898,0.981,4.675,0.604
			c0.1-0.101,0.201-0.201,0.301-0.301c-0.419-2.339-3.831-1.818-4.977-3.47c-1.808-2.606,0.736-5.062,2.865-5.429
			c0-0.604,0-1.207,0-1.81c0.755,0,1.509,0,2.262,0c0,0.553,0,1.106,0,1.659c0.805,0.151,1.609,0.302,2.414,0.452
			c0.15,0.102,0.301,0.202,0.452,0.302c-0.201,0.805-0.402,1.609-0.604,2.414c-0.987-0.482-2.787-1.025-3.92-0.454
			c-0.152,0.102-0.303,0.202-0.453,0.303c0,0.201,0,0.401,0,0.603c2.712,1.706,7.463,2.599,4.675,7.088
			c1.709,0.402,3.419,0.805,5.128,1.207c6.823-7.762-1.056-16.891-9.049-16.741c-7.994,0.151-14.484,7.229-9.351,16.892
			C141.116,48.479,142.724,48.078,144.333,47.675z"/>
		<path fill="#3A9BD9" d="M179.623,65.772c-1.305-0.251-2.613-0.502-3.921-0.754c-2.755-1.064-4.233-3.536-6.033-5.58
			c1.761-2.463,3.521-4.927,5.28-7.39c0.049-0.352,0.1-0.704,0.15-1.056c-5.481-3.677-15.153,3.111-10.104,9.804
			c-2.854-0.637-3.797-3.95-3.169-7.24c-6.203-3.674-17.536-4.757-24.431-0.754c-0.919,0.534-6.485,5.429-6.485,5.429
			c-0.453-0.352-0.906-0.704-1.358-1.056c-2.165-1.82-3.211-4.328-1.207-7.089c0.15-0.05,0.302-0.1,0.453-0.149
			c0.1,0.05,0.201,0.1,0.301,0.149c0.484,1.177-0.393,1.876-0.603,3.319c0.428,1.093,0.797,1.777,1.659,2.414
			c3.482-2.459,4.096-9.624-2.413-9.352c-2.734,1.587-4.31,3.298-4.223,7.691c-1.672-0.664-2.078-1.343-2.865-2.866
			c-0.151,0-0.302,0-0.452,0c-1.435,2.553-0.447,5.466,1.96,6.335c0.955,0.05,1.91,0.1,2.865,0.15
			c1.277,0.556,2.433,2.652,3.771,3.468c-1.364,6.198-2.612,13.215,2.262,17.344c-1.151,3.299-3.035,9.385,0,11.462
			c1.164,0.797,2.661,0.586,4.373,0.904c4.297,0.8,6.507-1.002,6.787-5.127c4.348,0.478,8.67,0.5,13.121,0.151
			c0.346,1.789,0.728,3.621,1.961,4.524c2.345,1.72,8.908,0.43,10.253-1.356c1.663-2.203,0.007-5.833-0.449-8.295
			c1.584-2.056,4.485-4.003,7.237-4.826c1.454-0.434,3.177-0.247,4.224-1.056C180.093,73.796,180.582,67.859,179.623,65.772z
			 M170.424,68.488c-1.634,0.382-2.525-0.4-2.414-2.262c0.353-0.352,0.704-0.704,1.056-1.056c1,0.014,1.349,0.16,1.962,0.453
			c0.151,0.502,0.301,1.005,0.452,1.507C171.127,67.583,170.775,68.035,170.424,68.488z"/>
	</g>
</g>
<g id="Слой_4" display="none">
</g>
</svg>
