<?xml version="1.0" encoding="utf-8"?>
<!-- Generator: Adobe Illustrator 15.0.0, SVG Export Plug-In . SVG Version: 6.00 Build 0)  -->
<!DOCTYPE svg PUBLIC "-//W3C//DTD SVG 1.1//EN" "http://www.w3.org/Graphics/SVG/1.1/DTD/svg11.dtd">
<svg version="1.1" id="Слой_2" xmlns="http://www.w3.org/2000/svg" xmlns:xlink="http://www.w3.org/1999/xlink" x="0px" y="0px"
	 width="356.982px" height="349.482px" viewBox="0 0 356.982 349.482" enable-background="new 0 0 356.982 349.482"
	 xml:space="preserve">
<linearGradient id="SVGID_1_" gradientUnits="userSpaceOnUse" x1="516.3672" y1="-152.3547" x2="464.1406" y2="-55.5439" gradientTransform="matrix(1 0 0 -1 -265.6602 -38.4771)">
	<stop  offset="0" style="stop-color:#BAE2FF"/>
	<stop  offset="1" style="stop-color:#1682C7"/>
</linearGradient>
<path fill="url(#SVGID_1_)" d="M224.901,18.901c0,0,14.5-0.351,22.5,15c10.031,19.251,18,30,18,30l24-12.5l-28.5,82.5l-81.5-18
	l19-12.5L181.233,72.09C181.233,72.09,195.901,21.401,224.901,18.901z"/>
<linearGradient id="SVGID_2_" gradientUnits="userSpaceOnUse" x1="119.0483" y1="120.2854" x2="182.6967" y2="-2.905">
	<stop  offset="0" style="stop-color:#BAE2FF"/>
	<stop  offset="1" style="stop-color:#3A9BD9"/>
</linearGradient>
<path fill="url(#SVGID_2_)" d="M77.401,97.401l37.5-66.5c0,0,6-12,22-12c20,0,88,0,88,0s-15.5,0-24,17.5s-55.5,97.5-55.5,97.5
	L77.401,97.401z"/>
<linearGradient id="SVGID_3_" gradientUnits="userSpaceOnUse" x1="492.0283" y1="172.5056" x2="434.8806" y2="271.3077" gradientTransform="matrix(-0.5052 0.863 0.863 0.5052 281.4078 -236.8073)">
	<stop  offset="0" style="stop-color:#BAE2FF"/>
	<stop  offset="1" style="stop-color:#1682C7"/>
</linearGradient>
<path fill="url(#SVGID_3_)" d="M297.312,299.765c0,0-7.022,12.69-24.313,11.839c-21.683-1.067-34.983,0.377-34.983,0.377
	l-1.338,27.026l-56.798-66.276l56.71-61.238l1.188,22.712l35.695,1.004C273.472,235.208,309.805,273.475,297.312,299.765z"/>
<linearGradient id="SVGID_4_" gradientUnits="userSpaceOnUse" x1="349.752" y1="184.5344" x2="400.7317" y2="283.2047" gradientTransform="matrix(-0.5052 0.863 0.863 0.5052 281.4078 -236.8073)">
	<stop  offset="0" style="stop-color:#BAE2FF"/>
	<stop  offset="1" style="stop-color:#3A9BD9"/>
</linearGradient>
<path fill="url(#SVGID_4_)" d="M304.087,132.814l38.443,65.96c0,0,7.323,11.24-0.761,25.048
	c-10.104,17.261-44.46,75.943-44.46,75.943s7.831-13.377-2.977-29.554c-10.809-16.177-56.102-97.155-56.102-97.155L304.087,132.814z
	"/>
<linearGradient id="SVGID_5_" gradientUnits="userSpaceOnUse" x1="163.2197" y1="-232.137" x2="103.5822" y2="-139.705" gradientTransform="matrix(-0.4872 -0.8733 -0.8733 0.4872 -28.7515 392.4681)">
	<stop  offset="0" style="stop-color:#BAE2FF"/>
	<stop  offset="1" style="stop-color:#1682C7"/>
</linearGradient>
<path fill="url(#SVGID_5_)" d="M18.224,222.369c0,0-7.371-12.491,2.137-26.958c11.923-18.141,17.429-30.334,17.429-30.334
	l-22.609-14.869l85.932-15.307l23.988,79.943l-20.173-10.502L85.949,234.59C85.949,234.589,34.537,246.476,18.224,222.369z"/>
<linearGradient id="SVGID_6_" gradientUnits="userSpaceOnUse" x1="20.3789" y1="-224.1755" x2="71.3584" y2="-125.5055" gradientTransform="matrix(-0.4872 -0.8733 -0.8733 0.4872 -28.7515 392.4681)">
	<stop  offset="0" style="stop-color:#BAE2FF"/>
	<stop  offset="1" style="stop-color:#3A9BD9"/>
</linearGradient>
<path fill="url(#SVGID_6_)" d="M158.641,312.932l-76.345-0.349c0,0-13.402,0.606-21.197-13.366
	c-9.744-17.465-42.875-76.849-42.875-76.849s7.552,13.535,26.976,12.433c19.424-1.103,112.186,0.965,112.186,0.965L158.641,312.932z
	"/>
</svg>
