<?xml version="1.0" encoding="utf-8"?>
<!-- Generator: Adobe Illustrator 19.0.0, SVG Export Plug-In . SVG Version: 6.00 Build 0)  -->
<svg version="1.1" id="Слой_1" xmlns="http://www.w3.org/2000/svg" xmlns:xlink="http://www.w3.org/1999/xlink" x="0px" y="0px"
	 viewBox="-94.1 333.5 406.2 96.1" style="enable-background:new -94.1 333.5 406.2 96.1;" xml:space="preserve">
<style type="text/css">
	.st0{fill:url(#SVGID_1_);}
	.st1{fill:#414042;}
	.st2{clip-path:url(#SVGID_3_);}
	.st3{fill:#C0E6F0;}
	.st4{fill:#C1E7F7;}
	.st5{fill:#A0DCF4;}
	.st6{fill:#93D8F7;}
	.st7{fill:#89D1F4;}
	.st8{fill:#87B3DF;}
	.st9{fill:#83D0F4;}
	.st10{fill:#89C7EC;}
	.st11{fill:#87BCE5;}
	.st12{fill:#84A6D6;}
	.st13{fill:#80BAE5;}
	.st14{fill:#74A3D6;}
	.st15{fill:#7F96CC;}
	.st16{fill:#9EDAE8;}
	.st17{fill:#9ED9E4;}
	.st18{fill:#88D3E7;}
	.st19{fill:#5BCAF2;}
	.st20{fill:#51C9F4;}
	.st21{fill:#6ECEF2;}
	.st22{fill:#6AC4EE;}
	.st23{fill:#4FACE0;}
	.st24{fill:#4B9CD5;}
	.st25{fill:#609FD6;}
	.st26{fill:#4F8ECB;}
	.st27{fill:#4B79BC;}
	.st28{fill:#5E7FBF;}
	.st29{fill:#4F7CBD;}
	.st30{fill:#3875B9;}
	.st31{fill:#2E5CA9;}
	.st32{fill:#8ACAEF;}
	.st33{fill:#8ED7F7;}
	.st34{fill:#99D9EF;}
	.st35{fill:#85D4F0;}
	.st36{fill:#6BCDF2;}
	.st37{fill:#52C7F3;}
	.st38{fill:#4CC3F1;}
	.st39{fill:#49A5DC;}
	.st40{fill:#4997D2;}
	.st41{fill:#48ADE2;}
	.st42{fill:#438AC9;}
	.st43{fill:#3E76BA;}
	.st44{fill:#3D6CB3;}
	.st45{fill:#3963AD;}
	.st46{fill:#3560AB;}
	.st47{fill:#326CB4;}
	.st48{fill:#83ADDB;}
	.st49{fill:#7FBCE7;}
	.st50{fill:#6AA8DB;}
	.st51{fill:#63BBE9;}
	.st52{fill:#53AEE1;}
	.st53{fill:#4A8FCC;}
	.st54{fill:#448CCA;}
	.st55{fill:#3F76BA;}
	.st56{fill:#4180C1;}
	.st57{fill:#3C6DB4;}
	.st58{fill:#3C69B2;}
	.st59{fill:#3856A5;}
	.st60{fill:#3857A6;}
	.st61{fill:#344DA0;}
	.st62{fill:#3350A2;}
	.st63{fill:#2A4098;}
	.st64{fill:#7E85C0;}
	.st65{fill:#717CBB;}
	.st66{fill:#607FBE;}
	.st67{fill:#556FB4;}
	.st68{fill:#496AB2;}
	.st69{fill:#3B64AE;}
	.st70{fill:#365DAA;}
	.st71{fill:#3B62AC;}
	.st72{fill:#3853A3;}
	.st73{fill:#3854A4;}
	.st74{fill:#344A9E;}
	.st75{fill:#2F3F98;}
	.st76{fill:#2E3593;}
	.st77{fill:#2F3A95;}
	.st78{fill:#2C328E;}
	.st79{fill:#707DBC;}
	.st80{fill:#5C76B9;}
	.st81{fill:#3266AF;}
	.st82{fill:#215FAB;}
	.st83{fill:#2C58A7;}
	.st84{fill:#2051A3;}
	.st85{fill:#294A9E;}
	.st86{fill:#2D489D;}
	.st87{fill:#283C97;}
	.st88{fill:#2B348C;}
	.st89{fill:#2C2F85;}
	.st90{fill:#FFFFFF;}
	.st91{fill:none;}
</style>
<linearGradient id="SVGID_1_" gradientUnits="userSpaceOnUse" x1="-93.614" y1="416.2895" x2="37.433" y2="416.2895" gradientTransform="matrix(1 0 0 -1 0 796.9)">
	<stop  offset="0" style="stop-color:#A0DCF4"/>
	<stop  offset="1" style="stop-color:#2C328E"/>
</linearGradient>
<path class="st0" d="M6.8,360.1c-3,0-5.9,0.4-8.6,1.3c-4.7-12.8-16.9-21.8-31.2-21.8c-17.4,0-31.6,13.4-33.1,30.5
	c-0.6,0-1.2-0.1-1.8-0.1c-14.2,0-25.7,11.6-25.7,25.9c0,13.7,10.6,25,24.1,25.8v0.1H6.2v0c0.2,0,0.4,0,0.6,0
	c16.9,0,30.6-13.8,30.6-30.8C37.4,373.9,23.7,360.1,6.8,360.1z"/>
<path class="st1" d="M211.8,401.9c-11.5,0-17.3-3.6-17.3-10.9v-2.3c0-7.2,5.8-10.9,17.3-10.9h5.8c0.9,0,1.5,0.3,1.8,0.8
	c0.3,0.5,0.4,1.3,0.4,2.4c0,1.1-0.1,1.8-0.4,2.4c-0.3,0.5-0.9,0.8-1.8,0.8h-6c-3.4,0-5.8,0.4-7.3,1.3c-1.4,0.9-2.1,2-2.1,3.2v2.3
	c0,1.2,0.7,2.3,2.1,3.2s3.8,1.3,7.3,1.3h13.8c11.5,0,17.3,3.6,17.3,10.9v2.9c0,7.2-5.8,10.9-17.3,10.9h-28.6c-0.9,0-1.5-0.3-1.8-0.8
	c-0.3-0.5-0.4-1.3-0.4-2.4c0-1.1,0.1-1.8,0.4-2.4c0.3-0.5,0.9-0.8,1.8-0.8h28.8c3.4,0,5.8-0.4,7.3-1.3c1.4-0.9,2.1-2,2.1-3.2v-2.9
	c0-1.2-0.7-2.3-2.1-3.2s-3.8-1.3-7.3-1.3H211.8z"/>
<path class="st1" d="M246.1,381.3c0-1.2,0.4-2.2,1.1-2.7c0.7-0.6,1.9-0.9,3.5-0.9c1.6,0,2.8,0.3,3.5,0.9c0.7,0.6,1.1,1.5,1.1,2.7
	c0,1.2-0.4,2.2-1.1,2.7c-0.7,0.6-1.9,0.9-3.5,0.9c-1.6,0-2.8-0.3-3.5-0.9C246.5,383.5,246.1,382.6,246.1,381.3 M254.5,417.7
	c0,1.1-0.3,1.9-0.9,2.2c-0.6,0.4-1.6,0.5-2.8,0.5c-1.2,0-2.2-0.2-2.8-0.5c-0.6-0.4-0.9-1.1-0.9-2.2v-27.6c0-1.1,0.3-1.9,0.9-2.2
	c0.6-0.4,1.5-0.5,2.8-0.5c1.2,0,2.2,0.2,2.8,0.5c0.6,0.4,0.9,1.1,0.9,2.2V417.7z"/>
<path class="st1" d="M267.4,417.7c0,1.1-0.3,1.9-0.9,2.2c-0.6,0.4-1.6,0.5-2.8,0.5c-1.2,0-2.2-0.2-2.8-0.5c-0.6-0.4-0.9-1.1-0.9-2.2
	v-37.3c0-1.1,0.3-1.9,0.9-2.2c0.6-0.4,1.5-0.5,2.8-0.5c1.2,0,2.2,0.2,2.8,0.5c0.6,0.3,0.9,1.1,0.9,2.2V417.7z"/>
<path class="st1" d="M280.3,400.3l23.9-12.6c0.5-0.3,1.1-0.4,1.7-0.5c0.6-0.1,1.6-0.1,2.8-0.1c0.8,0,1.4,0.2,2,0.5
	c0.6,0.4,0.8,0.9,0.8,1.6c0,0.5-0.2,1-0.5,1.3c-0.3,0.3-0.7,0.6-1.2,0.8l-23.5,12.3l23.9,12.1c1.1,0.6,1.7,1.4,1.7,2.5
	c0,0.9-0.3,1.5-1,1.8c-0.7,0.4-1.7,0.5-3.1,0.5c-1.2,0-2.2-0.1-2.9-0.3c-0.7-0.2-1.2-0.4-1.5-0.6l-23.2-12.3v10.4
	c0,1.1-0.3,1.9-0.9,2.2c-0.6,0.4-1.6,0.5-2.8,0.5c-1.2,0-2.2-0.2-2.8-0.5s-0.9-1.1-0.9-2.2v-37.3c0-1.1,0.3-1.9,0.9-2.2
	c0.6-0.4,1.5-0.5,2.8-0.5c1.2,0,2.2,0.2,2.8,0.5c0.6,0.3,0.9,1.1,0.9,2.2L280.3,400.3L280.3,400.3z"/>
<g>
	<g>
		<defs>
			<path id="SVGID_2_" d="M182.5,387.3c-0.6,0.4-0.9,1.1-0.9,2.2v23.8h-21.9c-3.3,0-5.6-0.4-7.1-1.2c-1.5-0.8-2.2-1.8-2.2-3v-19.6
				c0-1.1-0.3-1.9-0.9-2.2c-0.6-0.4-1.6-0.5-2.8-0.5c-1.2,0-2.2,0.2-2.8,0.5c-0.6,0.4-0.9,1.1-0.9,2.2V409c0,6.8,5.5,10.2,16.5,10.2
				h22.2v0.3c0,1.4-0.6,2.4-1.7,3.1c-1.1,0.7-3.1,1.1-6,1.1h-8.1c-0.9,0-1.5,0.2-1.7,0.7c-0.3,0.5-0.4,1.2-0.4,2.2
				c0,1,0.1,1.7,0.4,2.2c0.3,0.5,0.8,0.8,1.7,0.8h8.1c4.9,0,8.6-0.8,11.2-2.5c2.6-1.7,3.9-4.2,3.9-7.6v-29.9c0-1.1-0.3-1.9-0.9-2.2
				c-0.6-0.4-1.6-0.5-2.8-0.5C184,386.8,183.1,387,182.5,387.3 M65.3,377.7c-11.5,0-17.3,3.6-17.3,10.9v2.3
				c0,7.2,5.8,10.9,17.3,10.9h13.8c3.4,0,5.8,0.4,7.3,1.3c1.4,0.9,2.1,2,2.1,3.2v2.9c0,1.3-0.7,2.4-2.1,3.2
				c-1.4,0.9-3.8,1.3-7.3,1.3H50.3c-0.9,0-1.5,0.3-1.8,0.8c-0.3,0.5-0.4,1.3-0.4,2.4c0,1,0.1,1.8,0.4,2.4c0.3,0.5,0.9,0.8,1.8,0.8
				h28.6c11.5,0,17.3-3.6,17.3-10.9v-2.9c0-7.2-5.8-10.9-17.3-10.9H65.1c-3.4,0-5.8-0.4-7.3-1.3c-1.4-0.9-2.1-2-2.1-3.2v-2.3
				c0-1.3,0.7-2.4,2.1-3.2c1.4-0.9,3.8-1.3,7.3-1.3h6c0.9,0,1.5-0.3,1.8-0.8c0.3-0.5,0.4-1.3,0.4-2.4s-0.1-1.8-0.4-2.4
				s-0.9-0.8-1.8-0.8L65.3,377.7L65.3,377.7z M101.5,378c-0.6,0.4-0.9,1.1-0.9,2.2v37.3c0,1.1,0.3,1.9,0.9,2.2
				c0.6,0.4,1.5,0.5,2.8,0.5s2.2-0.2,2.8-0.5c0.6-0.3,0.9-1.1,0.9-2.2v-10.4l23.2,12.3c0.3,0.2,0.8,0.4,1.5,0.6
				c0.7,0.2,1.7,0.3,2.9,0.3c1.4,0,2.4-0.2,3.1-0.5c0.7-0.3,1-1,1-1.8c0-1-0.6-1.9-1.7-2.5l-23.9-12.1l23.5-12.3
				c0.5-0.2,0.9-0.5,1.2-0.8c0.3-0.3,0.5-0.7,0.5-1.3c0-0.7-0.3-1.3-0.8-1.6c-0.6-0.4-1.2-0.5-2-0.5c-1.2,0-2.1,0-2.8,0.1
				c-0.6,0.1-1.2,0.3-1.7,0.5L108,400.1v-19.8c0-1.1-0.3-1.9-0.9-2.2c-0.6-0.4-1.6-0.5-2.8-0.5S102.1,377.6,101.5,378"/>
		</defs>
		<clipPath id="SVGID_3_">
			<use xlink:href="#SVGID_2_"  style="overflow:visible;"/>
		</clipPath>
		<g class="st2">
			<path class="st3" d="M42.3,350.2c-0.1,0.3-0.2,0.5-0.3,0.8l1,0.2L42.3,350.2z"/>
			<path class="st4" d="M44.6,345c-0.9,1.7-1.6,3.4-2.3,5.2l0.7,1L44.6,345z"/>
			<path class="st5" d="M76.4,349.3l-14-24.7c-7.4,5.2-13.6,12.2-17.7,20.4l-1.6,6.2L76.4,349.3z"/>
			<path class="st6" d="M85.4,323.7l-11.6-5.3c-4.1,1.6-7.9,3.7-11.4,6.1l14,24.7L85.4,323.7z"/>
			<path class="st7" d="M110.3,317.5c0,0-0.1,0-0.1,0L91,314.8c-6,0.3-11.8,1.6-17.2,3.7l11.6,5.3L110.3,317.5z"/>
			<path class="st8" d="M94,314.7c-1,0-2,0-3,0.1l19.2,2.7C105,315.7,99.6,314.7,94,314.7"/>
			<polygon class="st9" points="85.4,323.7 76.4,349.3 92.3,334.6 			"/>
			<path class="st10" d="M92.3,334.6l18-17.1c0,0,0,0,0,0l-24.9,6.2L92.3,334.6z"/>
			<path class="st11" d="M119.2,326.1l-8.8-8.5c0,0-0.1,0-0.1,0l-18,17.1L119.2,326.1z"/>
			<path class="st12" d="M124,325.1c-4.2-3.2-8.8-5.8-13.6-7.5l8.8,8.5L124,325.1z"/>
			<polygon class="st13" points="119.2,326.1 92.3,334.6 120.7,349 			"/>
			<path class="st14" d="M120.7,349l19.8-3.8c-2.4-4.7-5.3-9-8.6-12.7l-12.6-6.3L120.7,349z"/>
			<path class="st15" d="M131.8,332.5c-2.4-2.7-5-5.2-7.8-7.3l-4.8,1L131.8,332.5z"/>
			<path class="st16" d="M39.8,358.7c-0.4,2-0.7,3.9-0.9,6c-1.2-0.1-2.3-0.2-3.4-0.2c-4,0-7.9,0.6-11.6,1.6l24.7,0.8L39.8,358.7z"/>
			<path class="st17" d="M43.1,351.2l-1-0.2c-0.9,2.5-1.6,5.1-2.2,7.7l8.8,8.2L43.1,351.2z"/>
			<polygon class="st18" points="43.1,351.2 48.7,367 76.4,349.3 			"/>
			<polygon class="st19" points="76.4,349.3 48.7,367 86.1,376.3 			"/>
			<polygon class="st20" points="91.4,361.6 76.4,349.3 86.1,376.3 			"/>
			<polygon class="st21" points="92.3,334.6 76.4,349.3 91.4,361.6 			"/>
			<polygon class="st22" points="120.7,349 92.3,334.6 91.4,361.6 			"/>
			<polygon class="st23" points="122.7,382.9 120.7,349 91.4,361.6 			"/>
			<polygon class="st24" points="132.4,362.6 120.7,349 122.7,382.9 			"/>
			<path class="st25" d="M132.4,362.6l11.1-10.8c-0.9-2.3-1.9-4.5-2.9-6.6l-19.8,3.8L132.4,362.6z"/>
			<path class="st26" d="M143.1,374.1l7.4-24.5c-1.7,0.5-3.4,1-5,1.5c-0.7,0.2-1.4,0.5-2.1,0.7v0l-11.1,10.8L143.1,374.1z"/>
			<path class="st27" d="M182.5,366l-22.3-17.2c-1.2-0.1-2.5-0.1-3.8-0.1c-1.8,0-3.8,0.4-5.9,0.9l-7.4,24.5L182.5,366z"/>
			<path class="st28" d="M181.5,355.4c-6.4-3.7-13.6-6.1-21.3-6.6l22.3,17.2L181.5,355.4z"/>
			<path class="st29" d="M189.8,361.4c-2.5-2.3-5.3-4.3-8.2-6l0.9,10.6L189.8,361.4z"/>
			<path class="st30" d="M203,380.3c-1.7-4.2-3.9-8.1-6.5-11.6l6.4,26.9L203,380.3z"/>
			<path class="st31" d="M205.6,408.1c0.6-3,0.9-6.2,0.9-9.4c0-6.5-1.2-12.7-3.5-18.4l-0.1,15.2L205.6,408.1z"/>
			<path class="st32" d="M5.1,377.6c-7.2,7.6-11.7,17.8-11.7,29.1c0,0.4,0,0.7,0,1.1l16-15.3L5.1,377.6z"/>
			<path class="st33" d="M19.5,383.1l-11.2-8.5c-1.1,0.9-2.2,1.9-3.2,3l4.3,14.8L19.5,383.1z"/>
			<path class="st34" d="M17.8,368.5c-3.4,1.6-6.6,3.7-9.5,6.1l11.2,8.5L17.8,368.5z"/>
			<path class="st35" d="M48.7,367L24,366.2c-2.1,0.6-4.2,1.4-6.2,2.3l1.7,14.6L48.7,367z"/>
			<polygon class="st36" points="48.7,367 19.5,383.1 47.2,385.6 			"/>
			<polygon class="st37" points="68.9,386.6 48.7,367 47.2,385.6 			"/>
			<polygon class="st38" points="86.1,376.3 48.7,367 68.9,386.6 			"/>
			<polygon class="st39" points="68.9,386.6 91.8,398.5 86.1,376.3 			"/>
			<polygon class="st40" points="86.1,376.3 91.8,398.5 122.7,382.9 			"/>
			<polygon class="st41" points="91.4,361.6 86.1,376.3 122.7,382.9 			"/>
			<polygon class="st42" points="143.1,374.1 132.4,362.6 122.7,382.9 			"/>
			<polygon class="st43" points="156.1,386.6 143.1,374.1 122.7,382.9 			"/>
			<polygon class="st44" points="182.5,366 143.1,374.1 156.1,386.6 			"/>
			<polygon class="st45" points="172.9,388.8 182.5,366 156.1,386.6 			"/>
			<polygon class="st46" points="202.9,395.5 182.5,366 172.9,388.8 			"/>
			<path class="st47" d="M202.9,395.5l-6.4-26.9c-2-2.6-4.2-5.1-6.7-7.3l-7.3,4.6L202.9,395.5z"/>
			<path class="st48" d="M9.5,392.4l-16,15.3c0,1.5,0.2,3,0.3,4.5l31.7,4.3L9.5,392.4z"/>
			<polygon class="st49" points="9.5,392.4 25.6,416.5 19.5,383.1 			"/>
			<polygon class="st50" points="25.6,416.5 46.8,409.6 19.5,383.1 			"/>
			<polygon class="st51" points="19.5,383.1 46.8,409.6 47.2,385.6 			"/>
			<polygon class="st52" points="47.2,385.6 46.8,409.6 68.9,386.6 			"/>
			<polygon class="st53" points="46.8,409.6 69.9,422.9 68.9,386.6 			"/>
			<polygon class="st54" points="68.9,386.6 69.9,422.9 91.8,398.5 			"/>
			<polygon class="st55" points="91.8,398.5 69.9,422.9 105.8,406.8 			"/>
			<polygon class="st56" points="91.8,398.5 105.8,406.8 122.7,382.9 			"/>
			<polygon class="st57" points="122.7,382.9 105.8,406.8 134.5,413 			"/>
			<polygon class="st58" points="156.1,386.6 122.7,382.9 134.5,413 			"/>
			<polygon class="st59" points="134.5,413 158.8,408.8 156.1,386.6 			"/>
			<polygon class="st60" points="156.1,386.6 158.8,408.8 172.9,388.8 			"/>
			<polygon class="st61" points="158.8,408.8 185.7,410.8 172.9,388.8 			"/>
			<polygon class="st62" points="185.7,410.8 202.9,395.5 172.9,388.8 			"/>
			<path class="st63" d="M185.7,410.8l16.3,8.6c1.6-3.6,2.9-7.4,3.6-11.3l-2.7-12.6L185.7,410.8z"/>
			<path class="st64" d="M-6.2,412.2c1.4,10.9,7,20.4,15.1,27l16.6-22.8L-6.2,412.2z"/>
			<path class="st65" d="M25.6,416.5L8.9,439.2c2.3,1.9,4.9,3.6,7.6,5l13.6-3.4L25.6,416.5z"/>
			<polygon class="st66" points="30.1,440.7 46.8,409.6 25.6,416.5 			"/>
			<polygon class="st67" points="30.1,440.7 40.7,448.8 42.5,448.8 46.8,409.6 			"/>
			<polygon class="st68" points="46.8,409.6 42.5,448.8 43.7,448.8 69.9,422.9 			"/>
			<polygon class="st69" points="69.9,422.9 43.7,448.8 55.5,448.8 77.9,446.5 			"/>
			<polygon class="st70" points="69.9,422.9 77.9,446.5 93,438.8 			"/>
			<polygon class="st71" points="105.8,406.8 69.9,422.9 93,438.8 			"/>
			<polygon class="st72" points="93,438.8 135.1,435.3 105.8,406.8 			"/>
			<polygon class="st73" points="105.8,406.8 135.1,435.3 134.5,413 			"/>
			<polygon class="st74" points="135.1,435.3 158.8,408.8 134.5,413 			"/>
			<polygon class="st75" points="145.4,446.3 158.8,408.8 135.1,435.3 			"/>
			<path class="st76" d="M145.4,446.3l31.5-2c0.7-0.3,1.4-0.7,2.1-1l-20.3-34.4L145.4,446.3z"/>
			<path class="st77" d="M158.8,408.8l20.3,34.4c0.2-0.1,0.5-0.3,0.7-0.4l5.9-32.1L158.8,408.8z"/>
			<path class="st78" d="M179.8,442.9c9.7-5.2,17.6-13.4,22.1-23.5l-16.3-8.6L179.8,442.9z"/>
			<path class="st79" d="M16.5,444.2c3,1.5,6.3,2.7,9.7,3.5l4-7L16.5,444.2z"/>
			<path class="st80" d="M26.2,447.7c3,0.7,6.2,1.1,9.4,1.1h5.1l-10.5-8L26.2,447.7z"/>
			<polygon class="st81" points="77.9,446.5 55.5,448.8 76.1,448.8 			"/>
			<polygon class="st82" points="76.1,448.8 78.6,448.8 77.9,446.5 			"/>
			<polygon class="st83" points="77.9,446.5 78.6,448.8 90.7,448.8 93,438.8 			"/>
			<polygon class="st84" points="90.7,448.8 95.7,448.8 93,438.8 			"/>
			<polygon class="st85" points="95.7,448.8 109.4,448.8 93,438.8 			"/>
			<polygon class="st86" points="93,438.8 109.4,448.8 130.9,448.8 135.1,435.3 			"/>
			<polygon class="st87" points="135.1,435.3 130.9,448.8 142.1,448.8 145.4,446.3 			"/>
			<polygon class="st88" points="142.1,448.8 146.9,448.8 145.4,446.3 			"/>
			<path class="st89" d="M146.9,448.8h1.6h7.9h1.7v-0.1c6.7-0.2,13-1.8,18.8-4.4l-31.5,2L146.9,448.8z"/>
		</g>
	</g>
</g>
<g>
	<path class="st1" d="M16.6,457.4L16.6,457.4l4.3-14.1h3.9v18h-3.1v-11.8l-0.1,0l-3.9,11.8h-2.1l-3.9-11.9l-0.1,0v11.9H8.5v-18h3.9
		L16.6,457.4z"/>
	<path class="st1" d="M37.3,457.1h-6.1l-1.3,4.1h-3.3l6-18h3.2l6,18h-3.3L37.3,457.1z M31.9,454.8h4.6l-2.3-7.2h-0.1L31.9,454.8z"/>
	<path class="st1" d="M56.8,461.2h-3.1l-6.9-12.4l-0.1,0v12.4h-3.1v-18h3.1l6.9,12.4l0.1,0v-12.4h3.1L56.8,461.2L56.8,461.2z"/>
	<path class="st1" d="M69.4,457.1h-6.1l-1.3,4.1h-3.3l6-18h3.2l6,18h-3.3L69.4,457.1z M64,454.8h4.6l-2.3-7.2h-0.1L64,454.8z"/>
	<path class="st1" d="M87.9,458.8c-0.5,0.7-1.3,1.3-2.4,1.9c-1.1,0.5-2.4,0.8-4,0.8c-2,0-3.7-0.7-5-2s-1.9-3.1-1.9-5.3v-3.7
		c0-2.2,0.6-3.9,1.9-5.3c1.3-1.4,2.9-2.1,4.9-2.1c2,0,3.5,0.5,4.6,1.5c1.1,1,1.6,2.3,1.6,4l0,0.1l-3,0c0-1.1-0.3-1.9-0.8-2.4
		c-0.5-0.5-1.3-0.8-2.4-0.8c-1.1,0-2,0.5-2.6,1.4c-0.7,0.9-1,2.1-1,3.6v3.8c0,1.5,0.3,2.7,1,3.6c0.7,0.9,1.6,1.4,2.8,1.4
		c0.9,0,1.5-0.1,2.1-0.3c0.5-0.2,0.9-0.5,1.2-0.8v-3.7h-3.1V452h6.3L87.9,458.8L87.9,458.8z"/>
	<path class="st1" d="M100.3,453h-6.6v5.8h7.7v2.4H90.6v-18h10.9v2.4h-7.7v5.1h6.6V453z"/>
	<path class="st1" d="M103.8,461.2v-18h5.7c1.9,0,3.5,0.7,4.7,2.1c1.3,1.4,1.9,3.1,1.9,5.3v3.2c0,2.2-0.6,3.9-1.9,5.3
		c-1.3,1.4-2.8,2.1-4.7,2.1L103.8,461.2L103.8,461.2z M106.9,445.6v13.2h2.6c1,0,1.8-0.5,2.5-1.4c0.7-0.9,1-2.1,1-3.6v-3.2
		c0-1.4-0.3-2.6-1-3.5c-0.7-0.9-1.5-1.4-2.5-1.4H106.9L106.9,445.6z"/>
	<path class="st1" d="M137.6,455.3L137.6,455.3c0.1,2.1-0.5,3.6-1.6,4.6c-1.1,1-2.6,1.6-4.5,1.6c-1.9,0-3.4-0.7-4.6-2.1
		c-1.2-1.4-1.8-3.1-1.8-5.3v-3.7c0-2.2,0.6-3.9,1.8-5.3c1.2-1.4,2.7-2.1,4.6-2.1c1.9,0,3.4,0.5,4.5,1.5c1.1,1,1.6,2.5,1.6,4.5l0,0.1
		h-3c0-1.3-0.3-2.2-0.8-2.8s-1.3-0.9-2.3-0.9c-1,0-1.8,0.5-2.4,1.4c-0.6,0.9-0.9,2.1-0.9,3.6v3.8c0,1.5,0.3,2.7,0.9,3.6
		c0.6,0.9,1.4,1.4,2.4,1.4c1,0,1.8-0.3,2.3-0.9c0.5-0.6,0.8-1.6,0.8-2.9L137.6,455.3L137.6,455.3L137.6,455.3z"/>
	<path class="st1" d="M143.1,458.8h6.6v2.4H140v-18h3.1L143.1,458.8L143.1,458.8z"/>
	<path class="st1" d="M164.3,454.1c0,2.2-0.6,4-1.8,5.3c-1.2,1.4-2.8,2-4.8,2c-2,0-3.6-0.7-4.8-2c-1.2-1.4-1.8-3.1-1.8-5.3v-3.7
		c0-2.2,0.6-4,1.8-5.3c1.2-1.4,2.8-2,4.8-2c2,0,3.6,0.7,4.8,2c1.2,1.4,1.9,3.1,1.9,5.3L164.3,454.1L164.3,454.1z M161.1,450.3
		c0-1.5-0.3-2.7-0.9-3.6c-0.6-0.9-1.5-1.3-2.6-1.3c-1.1,0-2,0.4-2.6,1.3c-0.6,0.9-0.9,2.1-0.9,3.6v3.8c0,1.6,0.3,2.8,0.9,3.7
		c0.6,0.9,1.5,1.3,2.6,1.3c1.1,0,1.9-0.4,2.6-1.3c0.6-0.9,0.9-2.1,0.9-3.7L161.1,450.3L161.1,450.3z"/>
	<path class="st1" d="M179.9,443.2V455c0,2-0.6,3.6-1.8,4.7s-2.8,1.7-4.8,1.7c-2,0-3.6-0.6-4.8-1.7c-1.2-1.1-1.8-2.7-1.8-4.7v-11.8
		h3.1V455c0,1.3,0.3,2.3,1,3c0.6,0.7,1.5,1.1,2.6,1.1c1.1,0,1.9-0.4,2.6-1.1c0.6-0.7,0.9-1.7,0.9-3v-11.8H179.9L179.9,443.2z"/>
	<path class="st1" d="M182.9,461.2v-18h5.7c1.9,0,3.5,0.7,4.7,2.1c1.3,1.4,1.9,3.1,1.9,5.3v3.2c0,2.2-0.6,3.9-1.9,5.3
		c-1.3,1.4-2.8,2.1-4.7,2.1L182.9,461.2L182.9,461.2z M186,445.6v13.2h2.6c1,0,1.8-0.5,2.5-1.4c0.7-0.9,1-2.1,1-3.6v-3.2
		c0-1.4-0.3-2.6-1-3.5c-0.7-0.9-1.5-1.4-2.5-1.4H186L186,445.6z"/>
</g>
<g>
	<path class="st3" d="M-64.1,360.9c-0.1,0.2-0.1,0.3-0.2,0.5l0.6,0.1L-64.1,360.9z"/>
	<path class="st4" d="M-62.6,357.7c-0.5,1-1,2.1-1.4,3.2l0.4,0.6L-62.6,357.7z"/>
	<path class="st5" d="M-43.1,360.3l-8.6-15.2c-4.6,3.2-8.4,7.5-10.9,12.6l-1,3.8L-43.1,360.3z"/>
	<path class="st6" d="M-37.5,344.6l-7.2-3.2c-2.5,1-4.9,2.3-7,3.8l8.6,15.2L-37.5,344.6z"/>
	<path class="st7" d="M-22.2,340.8C-22.2,340.8-22.3,340.8-22.2,340.8l-11.9-1.7c-3.7,0.2-7.3,1-10.6,2.3l7.2,3.2L-22.2,340.8z"/>
	<path class="st8" d="M-32.2,339c-0.6,0-1.2,0-1.9,0.1l11.8,1.7C-25.5,339.6-28.8,339-32.2,339"/>
	<polygon class="st9" points="-37.5,344.6 -43.1,360.3 -33.3,351.3 	"/>
	<path class="st10" d="M-33.3,351.3l11.1-10.5c0,0,0,0,0,0l-15.3,3.8L-33.3,351.3z"/>
	<path class="st11" d="M-16.7,346.1l-5.4-5.2c0,0,0,0-0.1,0l-11.1,10.5L-16.7,346.1z"/>
	<path class="st12" d="M-13.8,345.5c-2.6-2-5.4-3.5-8.4-4.6l5.4,5.3L-13.8,345.5z"/>
	<polygon class="st13" points="-16.7,346.1 -33.3,351.3 -15.8,360.2 	"/>
	<path class="st14" d="M-15.8,360.2l12.2-2.4c-1.5-2.9-3.3-5.5-5.3-7.8l-7.8-3.9L-15.8,360.2z"/>
	<path class="st15" d="M-9,350c-1.5-1.7-3.1-3.2-4.8-4.5l-3,0.6L-9,350z"/>
	<path class="st16" d="M-65.6,366.2c-0.2,1.2-0.4,2.4-0.5,3.7c-0.7-0.1-1.4-0.1-2.1-0.1c-2.5,0-4.9,0.3-7.1,1l15.2,0.5L-65.6,366.2z
		"/>
	<path class="st17" d="M-63.6,361.5l-0.6-0.1c-0.6,1.5-1,3.1-1.3,4.8l5.4,5.1L-63.6,361.5z"/>
	<polygon class="st18" points="-63.6,361.5 -60.1,371.2 -43.1,360.3 	"/>
	<polygon class="st19" points="-43.1,360.3 -60.1,371.2 -37.1,376.9 	"/>
	<polygon class="st20" points="-33.9,367.9 -43.1,360.3 -37.1,376.9 	"/>
	<polygon class="st21" points="-33.3,351.3 -43.1,360.3 -33.9,367.9 	"/>
	<polygon class="st22" points="-15.8,360.2 -33.3,351.3 -33.9,367.9 	"/>
	<polygon class="st23" points="-14.6,381 -15.8,360.2 -33.9,367.9 	"/>
	<polygon class="st24" points="-8.6,368.5 -15.8,360.2 -14.6,381 	"/>
	<path class="st25" d="M-8.6,368.5l6.8-6.7c-0.5-1.4-1.1-2.7-1.8-4l-12.2,2.4L-8.6,368.5z"/>
	<path class="st26" d="M-2,375.6l4.5-15.1c-1,0.3-2.1,0.6-3.1,0.9c-0.4,0.1-0.9,0.3-1.3,0.4v0l-6.8,6.7L-2,375.6z"/>
	<path class="st27" d="M22.2,370.6L8.5,360c-0.8-0.1-1.5-0.1-2.3-0.1c-1.1,0-2.3,0.2-3.6,0.6L-2,375.6L22.2,370.6z"/>
	<path class="st28" d="M21.6,364.1c-3.9-2.3-8.4-3.7-13.1-4.1l13.7,10.6L21.6,364.1z"/>
	<path class="st29" d="M26.7,367.8c-1.6-1.4-3.3-2.6-5.1-3.7l0.6,6.5L26.7,367.8z"/>
	<path class="st30" d="M34.8,379.4c-1-2.6-2.4-5-4-7.2l4,16.5L34.8,379.4z"/>
	<path class="st31" d="M36.4,396.5c0.4-1.9,0.5-3.8,0.5-5.8c0-4-0.8-7.8-2.2-11.3l-0.1,9.4L36.4,396.5z"/>
	<path class="st32" d="M-87,377.8c-4.4,4.7-7.2,11-7.2,17.9c0,0.2,0,0.4,0,0.7l9.8-9.4L-87,377.8z"/>
	<path class="st33" d="M-78.1,381.1l-6.9-5.2c-0.7,0.6-1.3,1.2-2,1.8l2.7,9.1L-78.1,381.1z"/>
	<path class="st34" d="M-79.1,372.1c-2.1,1-4.1,2.3-5.9,3.8l6.9,5.2L-79.1,372.1z"/>
	<path class="st35" d="M-60.1,371.2l-15.2-0.5c-1.3,0.4-2.6,0.9-3.8,1.4l1,9L-60.1,371.2z"/>
	<polygon class="st36" points="-60.1,371.2 -78.1,381.1 -61.1,382.7 	"/>
	<polygon class="st37" points="-47.7,383.3 -60.1,371.2 -61.1,382.7 	"/>
	<polygon class="st38" points="-37.1,376.9 -60.1,371.2 -47.7,383.3 	"/>
	<polygon class="st39" points="-47.7,383.3 -33.6,390.6 -37.1,376.9 	"/>
	<polygon class="st40" points="-37.1,376.9 -33.6,390.6 -14.6,381 	"/>
	<polygon class="st41" points="-33.9,367.9 -37.1,376.9 -14.6,381 	"/>
	<polygon class="st42" points="-2,375.6 -8.6,368.5 -14.6,381 	"/>
	<polygon class="st43" points="6,383.3 -2,375.6 -14.6,381 	"/>
	<polygon class="st44" points="22.2,370.6 -2,375.6 6,383.3 	"/>
	<polygon class="st45" points="16.3,384.7 22.2,370.6 6,383.3 	"/>
	<polygon class="st46" points="34.8,388.8 22.2,370.6 16.3,384.7 	"/>
	<path class="st47" d="M34.8,388.8l-4-16.5c-1.2-1.6-2.6-3.1-4.1-4.5l-4.5,2.8L34.8,388.8z"/>
	<path class="st48" d="M-84.3,386.9l-9.8,9.4c0,0.9,0.1,1.8,0.2,2.7l19.5,2.6L-84.3,386.9z"/>
	<polygon class="st49" points="-84.3,386.9 -74.4,401.7 -78.1,381.1 	"/>
	<polygon class="st50" points="-74.4,401.7 -61.3,397.5 -78.1,381.1 	"/>
	<polygon class="st51" points="-78.1,381.1 -61.3,397.5 -61.1,382.7 	"/>
	<polygon class="st52" points="-61.1,382.7 -61.3,397.5 -47.7,383.3 	"/>
	<polygon class="st53" points="-61.3,397.5 -47.1,405.7 -47.7,383.3 	"/>
	<polygon class="st54" points="-47.7,383.3 -47.1,405.7 -33.6,390.6 	"/>
	<polygon class="st55" points="-33.6,390.6 -47.1,405.7 -25,395.7 	"/>
	<polygon class="st56" points="-33.6,390.6 -25,395.7 -14.6,381 	"/>
	<polygon class="st57" points="-14.6,381 -25,395.7 -7.3,399.5 	"/>
	<polygon class="st58" points="6,383.3 -14.6,381 -7.3,399.5 	"/>
	<polygon class="st59" points="-7.3,399.5 7.6,397 6,383.3 	"/>
	<polygon class="st60" points="6,383.3 7.6,397 16.3,384.7 	"/>
	<polygon class="st61" points="7.6,397 24.2,398.2 16.3,384.7 	"/>
	<polygon class="st62" points="24.2,398.2 34.8,388.8 16.3,384.7 	"/>
	<path class="st63" d="M24.2,398.2l10,5.3c1-2.2,1.8-4.5,2.2-7l-1.7-7.8L24.2,398.2z"/>
	<path class="st64" d="M-93.9,399c0.9,6.7,4.3,12.6,9.3,16.6l10.2-14L-93.9,399z"/>
	<path class="st65" d="M-74.4,401.7l-10.2,14c1.4,1.2,3,2.2,4.7,3.1l8.4-2.1L-74.4,401.7z"/>
	<polygon class="st66" points="-71.6,416.6 -61.3,397.5 -74.4,401.7 	"/>
	<polygon class="st67" points="-71.6,416.6 -65.1,421.6 -63.9,421.6 -61.3,397.5 	"/>
	<polygon class="st68" points="-61.3,397.5 -63.9,421.6 -63.2,421.6 -47.1,405.7 	"/>
	<polygon class="st69" points="-47.1,405.7 -63.2,421.6 -56,421.6 -42.2,420.2 	"/>
	<polygon class="st70" points="-47.1,405.7 -42.2,420.2 -32.9,415.4 	"/>
	<polygon class="st71" points="-25,395.7 -47.1,405.7 -32.9,415.4 	"/>
	<polygon class="st72" points="-32.9,415.4 -7,413.3 -25,395.7 	"/>
	<polygon class="st73" points="-25,395.7 -7,413.3 -7.3,399.5 	"/>
	<polygon class="st74" points="-7,413.3 7.6,397 -7.3,399.5 	"/>
	<polygon class="st75" points="-0.6,420.1 7.6,397 -7,413.3 	"/>
	<path class="st76" d="M-0.6,420.1l19.4-1.2c0.4-0.2,0.9-0.4,1.3-0.6L7.6,397L-0.6,420.1z"/>
	<path class="st77" d="M7.6,397l12.5,21.2c0.2-0.1,0.3-0.2,0.5-0.2l3.6-19.7L7.6,397z"/>
	<path class="st78" d="M20.6,417.9c6-3.2,10.8-8.3,13.6-14.4l-10-5.3L20.6,417.9z"/>
	<path class="st79" d="M-80,418.8c1.9,1,3.9,1.7,5.9,2.2l2.4-4.3L-80,418.8z"/>
	<path class="st80" d="M-74,420.9c1.9,0.4,3.8,0.7,5.8,0.7h3.1l-6.5-4.9L-74,420.9z"/>
	<polygon class="st81" points="-42.2,420.2 -56,421.6 -43.3,421.6 	"/>
	<polygon class="st82" points="-43.3,421.6 -41.8,421.6 -42.2,420.2 	"/>
	<polygon class="st83" points="-42.2,420.2 -41.8,421.6 -34.3,421.6 -32.9,415.4 	"/>
	<polygon class="st84" points="-34.3,421.6 -31.2,421.6 -32.9,415.4 	"/>
	<polygon class="st85" points="-31.2,421.6 -22.8,421.6 -32.9,415.4 	"/>
	<polygon class="st86" points="-32.9,415.4 -22.8,421.6 -9.5,421.6 -7,413.3 	"/>
	<polygon class="st87" points="-7,413.3 -9.5,421.6 -2.6,421.6 -0.6,420.1 	"/>
	<polygon class="st88" points="-2.6,421.6 0.3,421.6 -0.6,420.1 	"/>
	<path class="st89" d="M0.3,421.6h1h4.8h1.1v-0.1c4.1-0.1,8-1.1,11.6-2.7l-19.4,1.2L0.3,421.6z"/>
	<path class="st90" d="M-18.2,348.7l-17.1-9.3L-18.2,348.7z"/>
	<path class="st90" d="M-18.1,348.5l-0.4-5.9L-18.1,348.5z"/>
	<path class="st90" d="M-17.8,348.5l-0.3-5.8L-17.8,348.5z"/>
	<path class="st90" d="M-17.7,348.8l6.3-1.3L-17.7,348.8z"/>
	<path class="st90" d="M-17.8,348.5l6.2-1.3L-17.8,348.5z"/>
	<path class="st90" d="M-18.1,348.5l0-0.2l0.2,0.2l0.1,0l-0.3-5.8c-0.1,0-0.2-0.1-0.3-0.1L-18.1,348.5z"/>
	<path class="st90" d="M-48.6,374.2l-8.2-24.4L-48.6,374.2z"/>
	<path class="st90" d="M-48.8,374.4L-57,350L-48.8,374.4z"/>
	<polygon class="st90" points="-66.6,369.9 -66.6,369.9 -59.7,371.8 	"/>
	<polygon class="st90" points="-66,369.9 -66,369.9 -59.6,371.6 	"/>
	<polygon class="st90" points="-48.4,374.8 -48.4,374.8 -48.5,374.8 -48.5,374.8 	"/>
	<polygon class="st90" points="-56.4,349.4 -56.4,349.4 -52.1,353.3 	"/>
	<path class="st90" d="M-48,373.2l-0.4,1.3L-48,373.2z"/>
	<polygon class="st90" points="-56.6,349.6 -56.6,349.6 -52,353.7 	"/>
	<path class="st90" d="M-48.7,374.5l0.5-1.6l-0.4,1.3l-8.2-24.4c-0.1,0.1-0.1,0.1-0.2,0.2l8.2,24.4L-48.7,374.5z"/>
	<polygon class="st90" points="-43.2,341 -43.2,341 -43.6,353 	"/>
	<path class="st90" d="M-44.1,360.6l0.1,0l0-0.2l-8-7.1l-4.4-3.8c-0.1,0.1-0.1,0.1-0.2,0.2l4.6,4L-44.1,360.6z"/>
	<polygon class="st90" points="-43.8,360.8 -43.9,360.8 -43.9,360.8 -43.8,360.9 	"/>
	<polygon class="st90" points="-43.4,341.1 -43.4,341.1 -43.8,351.5 	"/>
	<path class="st90" d="M-44,360.3l0,0.2l0,0L-44,360.3l0.1,0.1l0.1-0.1l0.2-7.5l0.4-11.9c-0.1,0-0.2,0.1-0.2,0.1l-0.3,10.4
		L-44,360.3z"/>
	<path class="st90" d="M-18.1,348.6L-18.1,348.6L-18.1,348.6l0.1-0.2l-16.8-9.2c-0.1,0-0.3,0-0.4,0L-18.1,348.6L-18.1,348.6z"/>
	<path class="st90" d="M-16.7,380.7l-13.1-9.6L-16.7,380.7z"/>
	<polygon class="st90" points="-16.1,380.4 -16.1,380.4 -17,363.5 	"/>
	<polygon class="st90" points="-16.3,380.7 -26.2,373.4 -16.3,380.7 -17,367.2 	"/>
	<polygon class="st90" points="-17.8,348.5 -17.8,348.5 -17.8,348.5 -17.8,348.5 -17.9,348.5 -17.9,348.5 	"/>
	<polygon class="st90" points="-44,360.5 -44,360.5 -44.1,360.6 -44.2,360.6 -44.1,360.7 	"/>
	<polygon class="st90" points="-43.7,360.6 -18,348.9 -18,348.7 -18.1,348.6 -18.2,348.7 -43.8,360.4 -43.9,360.5 	"/>
	<polygon class="st90" points="-15.9,380.7 -15.9,380.7 -15,378.5 	"/>
	<polygon class="st90" points="-17.7,348.8 -17.7,348.8 -14.4,352.9 	"/>
	<polygon class="st90" points="-18,348.9 -17,367.2 -16.3,380.7 -16.2,380.7 -11.2,369.3 -16.1,380.4 -17,363.5 -17.8,349 
		-14.7,352.9 -18,348.7 	"/>
	<polygon class="st90" points="-17.9,348.5 -17.9,348.5 -18.1,348.3 -18.1,348.5 -18.1,348.6 	"/>
	<path class="st90" d="M-17.9,348.5l-0.2,0l-0.1,0l0,0l0.1,0.1l3.4,4.2l6.9,8.6l0.1-0.1l0.1-0.2l0,0l0,0l-6.8-8.5l-3.3-4.1l6.3-1.3
		c-0.1-0.1-0.2-0.1-0.2-0.2L-17.9,348.5L-17.9,348.5z"/>
	<polygon class="st90" points="-7.7,361.6 -7.7,361.5 -7.8,361.6 -7.8,361.6 	"/>
	<polygon class="st90" points="-7.6,361.8 -7.6,361.8 -1.9,368.3 	"/>
	<polygon class="st90" points="2,372.8 2,372.8 1.9,372.7 1.9,372.7 	"/>
	<path class="st90" d="M2.7,369.4l-0.8,2.9L2.7,369.4z"/>
	<polygon class="st90" points="2.1,372.4 2.1,372.4 3.4,367.9 	"/>
	<path class="st90" d="M-7.6,361.4l5.9,6.8l-5.7-6.6l3.8-4c0-0.1-0.1-0.2-0.1-0.2L-7.6,361.4L-7.6,361.4z"/>
	<path class="st90" d="M2.2,372.6l23.9-5.3L2.2,372.6z"/>
	<path class="st90" d="M1.9,372.3l0.1,0.1l23.9-5.3l-23.8,5.3l1.3-4.5l2.2-7.7c-0.1,0-0.2,0-0.3,0l-2.6,9.2L1.9,372.3z"/>
	<path class="st90" d="M-83.2,383.6l-7.3-0.7L-83.2,383.6z"/>
	<path class="st90" d="M-83,383.4l0.7-9.2L-83,383.4z"/>
	<polygon class="st90" points="-82.5,374.3 -82.5,374.3 -83.2,383.1 	"/>
	<path class="st90" d="M-83.2,383.3l0.1,0l0.1,0l0.7-9.2c-0.1,0.1-0.2,0.1-0.3,0.2l-0.7,8.8L-83.2,383.3z"/>
	<rect x="-83.2" y="383.6" class="st90" width="0" height="0"/>
	<path class="st90" d="M-64,384.3L-64,384.3l0.1,0l0,0l-12.5-13c-0.1,0-0.2,0.1-0.3,0.1l12.4,13L-64,384.3z"/>
	<path class="st90" d="M-48.9,374.7l0.2-0.1l0-0.1l0.1,0l0,0l-0.1,0l-10.8-2.9l-6.3-1.7c0,0,0,0.1,0,0.1c-0.2,0-0.4,0-0.7,0l6.9,1.8
		L-48.9,374.7z"/>
	<polygon class="st90" points="-43.8,395.8 -43.8,395.8 -46.9,394.1 	"/>
	<path class="st90" d="M-46.7,393.9l3,1.7L-46.7,393.9z"/>
	<polygon class="st90" points="-63.7,384.3 -63.6,384.3 -63.7,384.4 -63.6,384.4 -48.7,374.8 -48.7,374.7 -48.8,374.7 -48.7,374.6 
		-48.8,374.6 -48.9,374.7 -63.7,384.2 	"/>
	<path class="st90" d="M-16.6,381l-18.6-3.6L-16.6,381z"/>
	<polygon class="st90" points="-16.5,381.3 -16.5,381.3 -26.9,386.9 	"/>
	<path class="st90" d="M-22,383.9l5.4-2.9L-22,383.9z"/>
	<polygon class="st90" points="-43.6,395.7 -43.5,395.6 -48.5,374.8 -48.5,374.8 -48.7,374.7 -48.7,374.8 -43.8,395.6 -43.6,395.6 
		-43.6,395.6 	"/>
	<polygon class="st90" points="-48.7,374.5 -48.8,374.5 -48.8,374.6 -48.7,374.6 	"/>
	<path class="st90" d="M-48.7,374.6L-48.7,374.6l0,0.1l0.3,0.1l0,0l13.2,2.6l18.6,3.6l0.2-0.1l0-0.1l0.1,0l0-0.1l-0.1-0.1l-9.9-7.2
		l-17.5-12.8l-0.2-0.2l-0.1-0.1l0,0.1l0,0.1l-4.1,12.2l-0.5,1.6l0,0L-48.7,374.6z M-48,373.2l4.2-12.4l0,0l0.1,0l14,10.2l13.1,9.6
		l-31.8-6.2L-48,373.2z"/>
	<polygon class="st90" points="-15.7,380.9 -15.7,380.9 -5.8,376.2 	"/>
	<polygon class="st90" points="-7.7,361.6 -11.2,369.3 -16.2,380.7 -16.2,380.8 -16.2,380.8 -16.1,380.7 -16.1,380.8 -6,376.1 
		-15.9,380.7 -15,378.5 -7.6,361.8 -1.9,368.3 1.7,372.5 1.9,372.4 2,372.4 2,372.4 2,372.4 1.9,372.3 -1.7,368.1 -7.6,361.4 
		-7.6,361.3 -7.7,361.5 	"/>
	<polygon class="st90" points="2.2,372.6 2.2,372.6 13.5,384.2 	"/>
	<path class="st90" d="M13.2,384.2l-4.9-5.1L13.2,384.2z"/>
	<polygon class="st90" points="-16,381.1 -16,381.1 -5.1,382.3 	"/>
	<polygon class="st90" points="-16.6,381 -16.6,381 -16.3,380.9 -16.3,380.9 -16.6,381 	"/>
	<polygon class="st90" points="-16.1,380.8 -16.1,380.8 -5.1,382.1 -15.7,380.9 -5.8,376.2 1.9,372.7 1.9,372.7 1.8,372.5 -6,376.1 
			"/>
	<polygon class="st90" points="1.9,372.4 2,372.4 2,372.4 	"/>
	<path class="st90" d="M20.2,378.6l-6.7,5.6L20.2,378.6z"/>
	<path class="st90" d="M13.8,384.3l16-13.4L13.8,384.3z"/>
	<path class="st90" d="M2,372.4L2,372.4L2,372.4l-0.3,0.1l0,0l0,0l0.2,0.2l0.1,0.1l6.2,6.4l4.9,5.1l0.2,0l0.1,0l0-0.1L2.2,372.6
		l23.9-5.3c-0.1-0.1-0.2-0.1-0.2-0.2L2,372.4z"/>
	<polygon class="st90" points="13.6,384.6 13.6,384.6 21.6,385.7 	"/>
	<path class="st90" d="M28.3,386.4l4.4-11.4L28.3,386.4z"/>
	<path class="st90" d="M13.6,384.2l0,0.1l0.1,0l0,0l8,1.1l-7.9-1.1l16-13.4c-0.1-0.1-0.1-0.1-0.2-0.2l-9.4,7.9L13.6,384.2z"/>
	<path class="st90" d="M28.6,386.7l8.5,2L28.6,386.7z"/>
	<path class="st90" d="M28.3,386.4l0.1-0.1l0.1,0.1l0.1,0l4.4-11.2c-0.1-0.1-0.1-0.2-0.2-0.3L28.3,386.4L28.3,386.4z"/>
	<path class="st90" d="M-83.6,406L-94,395.2L-83.6,406z"/>
	<polygon class="st90" points="-90.5,408.7 -90.5,408.7 -89.2,408.2 	"/>
	<path class="st90" d="M-83.7,406.3L-94,395.6L-83.7,406.3z"/>
	<path class="st90" d="M-83,383.6l-0.4,22.4L-83,383.6z"/>
	<polygon class="st90" points="-83.4,406.6 -83.3,406.7 -83.3,406.6 -83.4,406.6 	"/>
	<path class="st90" d="M-83.6,406.3l0.4-22.9l0.1,0l-0.1,0l-7.1-0.7c0,0.1-0.1,0.2-0.1,0.2l7.3,0.7h0v0l-0.4,22.5L-94,395.2
		c0,0.1,0,0.2,0,0.4l10.3,10.7L-83.6,406.3z"/>
	<polygon class="st90" points="-63.7,384.3 -63.7,384.4 -63.7,384.4 -63.6,384.3 	"/>
	<polygon class="st90" points="-83.3,406 -83,383.6 -64.1,384.6 -64,384.4 -64,384.3 -64.2,384.3 -83,383.4 -83.1,383.3 
		-83.2,383.3 -83.6,406.3 -83.6,406.3 -83.6,406.1 -83.5,406.2 	"/>
	<polygon class="st90" points="-83.3,406.3 -64,384.8 -63.1,418.8 -64,384.4 -64.1,384.6 -83.3,406 -83.5,406.2 -83.5,406.2 
		-83.2,406.1 -83.3,406.3 -63.2,418.8 	"/>
	<path class="st90" d="M-63.7,384.7l0.8,34.1L-63.7,384.7z"/>
	<polygon class="st90" points="-63.7,384.4 -63.7,384.3 -63.7,384.2 -63.7,384.1 -63.9,384.3 -63.9,384.3 	"/>
	<polygon class="st90" points="-83.4,406.6 -83.4,406.6 -83.3,406.6 -63.2,419.1 	"/>
	<polygon class="st90" points="-63.1,419.4 -63,419.3 -63,419.3 -63.1,419.4 	"/>
	<path class="st90" d="M-48.6,402l5-6L-48.6,402z"/>
	<path class="st90" d="M-64,384.4l0.9,34.4l0.1,0.1l19.2-23.1l-0.1,0l0.2-0.1l0-0.1l-0.2-0.1l-3-1.7l-16.9-9.5l0,0l-0.1,0l-0.1-0.1
		l-0.1-0.1L-64,384.4L-64,384.4z M-43.8,395.8L-43.8,395.8l-19.1,22.9l-0.8-34.1l16.8,9.4L-43.8,395.8z"/>
	<polygon class="st90" points="-31.4,403.9 -31.4,403.9 -37.7,407 	"/>
	<path class="st90" d="M-36.1,406l4.8-2.3L-36.1,406z"/>
	<path class="st90" d="M-43.3,395.8l8.4,5.4L-43.3,395.8z"/>
	<polygon class="st90" points="-43.6,395.7 -43.6,395.6 -43.6,395.6 -43.7,395.7 	"/>
	<polygon class="st90" points="-43.6,396 -43.6,396 -35.5,401.1 -43.8,395.8 -63,418.9 -63,418.9 -62.9,418.8 -62.9,418.9 
		-62.5,418.7 -48.6,402 	"/>
	<polygon class="st90" points="-31.2,403.5 -34.9,401.2 -43.3,395.8 -26.9,386.9 -16.5,381.3 -16.3,380.9 -16.3,380.9 -16.6,381 
		-22,383.9 -43.5,395.6 -43.6,395.7 -43.7,395.7 -43.8,395.8 -43.8,395.8 -35.5,401.1 -31.4,403.7 -31.3,403.7 -31.5,403.5 
		-31.2,403.6 	"/>
	<path class="st90" d="M-31.2,403.5l9.4-14.3L-31.2,403.5z"/>
	<polygon class="st90" points="-30.9,403.6 -30.9,403.6 -27.5,398.4 	"/>
	<polygon class="st90" points="-5.5,409.8 -5.5,409.7 -5.6,409.7 -5.6,409.7 	"/>
	<polygon class="st90" points="-16.2,381.2 -16.3,380.9 -16.5,381.3 -21.8,389.2 -31.2,403.5 -31.1,403.6 -30.9,403.5 -31,403.6 
		-30.9,403.6 -27.5,398.4 	"/>
	<polygon class="st90" points="-16.1,380.8 -16.1,380.8 -16.1,380.7 -16.2,380.8 	"/>
	<polygon class="st90" points="-5.1,382.1 -16.1,380.8 -16.2,380.8 -16.2,380.8 -16.4,380.8 -16.3,380.9 -16.3,380.9 -16.3,380.9 
		-16.2,381.2 -5.9,409.4 -5.7,409.5 -5.7,409.3 -16,381.1 -5.1,382.3 13.3,384.5 -3.1,406 13.4,384.4 13.4,384.3 13.2,384.2 	"/>
	<rect x="13.7" y="384.3" class="st90" width="0" height="0.1"/>
	<polygon class="st90" points="-6,409.8 -5.8,409.7 -5.8,409.7 -5.9,409.7 	"/>
	<polygon class="st90" points="15.9,405.3 15.9,405.3 14.5,392.1 	"/>
	<polygon class="st90" points="13.4,384.4 -3.1,406 -5.7,409.3 -5.7,409.5 -5.7,409.5 -5.4,409.4 13.4,384.7 	"/>
	<polygon class="st90" points="15.7,405.5 15.7,405.5 14.2,392.3 	"/>
	<polygon class="st90" points="13.6,384.3 13.6,384.3 13.6,384.2 13.6,384.1 13.5,384.2 13.4,384.3 	"/>
	<path class="st90" d="M16.1,405.5l11.1-16.9L16.1,405.5z"/>
	<polygon class="st90" points="28.5,386.5 28.6,386.4 28.5,386.4 28.4,386.4 28.4,386.4 	"/>
	<polygon class="st90" points="13.4,384.4 13.4,384.7 14.2,392.3 15.7,405.5 15.7,405.5 15.8,405.3 15.8,405.4 26.9,388.5 
		15.9,405.3 14.5,392.1 13.6,384.6 21.6,385.7 28.1,386.6 28.2,386.5 28.1,386.4 21.7,385.5 13.7,384.3 13.6,384.3 13.4,384.3 
		13.4,384.3 	"/>
	<polygon class="st90" points="32.4,407.1 16,405.8 16,405.8 	"/>
	<path class="st90" d="M32.4,406.8l-16.3-1.3L32.4,406.8z"/>
	<polygon class="st90" points="28.1,386.6 26.9,388.5 15.8,405.4 15.9,405.5 16.1,405.5 27.2,388.5 28.3,386.8 30.6,391 28.2,386.5 
			"/>
	<polygon class="st90" points="28.4,386.4 28.4,386.4 28.4,386.3 28.3,386.4 	"/>
	<path class="st90" d="M28.4,386.4l-0.1,0l0,0l-0.2,0l0,0l0.1,0.1l2.4,4.4l5.1,9.4c0-0.1,0.1-0.2,0.1-0.3l-7.2-13.3l8.5,2
		c0-0.1,0-0.2,0-0.3l-8.5-2.1L28.4,386.4z"/>
	<polygon class="st90" points="-86.9,413.6 -86.9,413.6 -85,409.8 	"/>
	<path class="st90" d="M-83.6,406.3L-83.6,406.3L-83.6,406.3l-0.1,0l-5.5,1.9l-1.3,0.5c0,0.1,0.1,0.1,0.1,0.2l6.7-2.3l-3.4,6.8
		L-83.6,406.3z"/>
	<polygon class="st90" points="-83.5,406.2 -83.3,406.3 -83.2,406.1 	"/>
	<path class="st90" d="M-83.7,407l0.1-0.7l-3.5,7.1c0.1,0.1,0.1,0.1,0.2,0.2l1.9-3.8L-83.7,407z"/>
	<path class="st90" d="M-83.4,406.6L-83.4,406.6l20.2,12.5l0,0l0,0l0.1,0l-0.1-0.2l-20.1-12.5l-0.1-0.1l0,0l-0.1,0l0,0.1l0,0.1
		l-0.1,0.7l-0.9,8.8c0.1,0.1,0.2,0.1,0.2,0.2L-83.4,406.6L-83.4,406.6z"/>
	<polygon class="st90" points="-63,419.3 -63,419.3 -65.3,421.7 -63.1,419.4 	"/>
	<polygon class="st90" points="-63,418.9 -63,418.9 -62.9,418.9 -62.9,418.8 	"/>
	<polygon class="st90" points="-63,419.3 -63.1,419.2 -63.2,419.1 -63.2,419.1 -65.7,421.7 -65.3,421.7 	"/>
	<path class="st90" d="M-62.8,419.1l3.6,2.6L-62.8,419.1z"/>
	<polygon class="st90" points="-62,421.7 -62.8,419.4 -59.6,421.7 -63.1,419.2 -63,419.3 -63,419.3 -62.3,421.7 	"/>
	<polygon class="st90" points="-63,418.9 -63,418.9 -63,418.9 -63.1,418.8 -63.2,418.8 -63.2,418.8 -63.1,419 	"/>
	<polygon class="st90" points="-31.1,403.6 -31.1,403.6 -31,403.6 -30.9,403.5 	"/>
	<polygon class="st90" points="-62.8,419.1 -37.7,407 -31.4,403.9 -31.3,403.7 -31.3,403.7 -31.4,403.7 -36.1,406 -62.5,418.7 
		-62.9,418.9 -63,418.9 -63.1,419 -63.2,419.1 -63.2,419.1 -63.1,419.2 -59.6,421.7 -59.2,421.7 	"/>
	<polygon class="st90" points="-31.3,403.7 -31.4,403.9 -38,421.7 -37.7,421.7 -31.1,403.9 	"/>
	<polygon class="st90" points="-14,421.7 -14,421.7 -27.6,407.6 	"/>
	<polygon class="st90" points="-31.2,403.5 -31.2,403.5 -31.2,403.5 -31.2,403.5 -31.2,403.6 -31.1,403.6 -31.1,403.6 	"/>
	<polygon class="st90" points="-5.9,409.7 -5.8,409.7 -5.8,409.5 -5.7,409.5 -5.7,409.5 -5.9,409.4 -30.9,403.6 -31,403.6 
		-31.1,403.6 -31.2,403.6 -31.5,403.5 -31.3,403.7 -31.3,403.7 -31.1,403.9 -27.6,407.6 -14,421.7 -13.7,421.7 -30.8,403.9 	"/>
	<polygon class="st90" points="-5.6,409.7 -5.6,409.7 -5.4,416.2 -5.6,409.7 	"/>
	<polygon class="st90" points="15.7,405.6 15.6,405.6 -5.4,409.4 -5.7,409.5 -5.8,409.5 -5.8,409.7 -5.8,409.7 -5.5,421.7 
		-5.3,421.7 -5.4,416.2 -5.6,409.7 -5.5,409.7 15.5,405.8 2.2,421.7 	"/>
	<polygon class="st90" points="15.9,405.5 15.9,405.5 16.1,405.5 16.1,405.5 16.1,405.5 	"/>
	<polygon class="st90" points="10.5,421.4 10.5,421.4 12,416.7 	"/>
	<polygon class="st90" points="15.7,405.7 15.7,405.6 2.2,421.7 2.5,421.7 15.5,406.2 	"/>
	<path class="st90" d="M15.8,406l-5.1,15.4L15.8,406z"/>
	<polygon class="st90" points="16,405.8 16,405.8 22.3,417.2 16,405.8 	"/>
	<polygon class="st90" points="15.8,405.4 15.8,405.3 15.7,405.5 15.9,405.5 15.9,405.5 	"/>
	<path class="st90" d="M15.7,405.7l-0.2,0.6L12,416.7l-1.6,4.7c0.1,0,0.2,0,0.3,0l5.1-15.4l6.2,11.4L15.7,405.7z"/>
	<path class="st90" d="M16.1,405.5l-0.2,0l-0.2,0l-0.1,0l-0.1,0l0,0l0,0.1l0,0l6.4,11.7c0.1,0,0.1-0.1,0.2-0.1L16,405.8l16.4,1.3
		l0.1,0c0-0.1,0.1-0.2,0.1-0.2l-0.3,0L16.1,405.5z"/>
	<path class="st90" d="M-15.4,380.8c0,0.5-0.4,0.9-0.9,0.9c-0.5,0-0.9-0.4-0.9-0.9c0-0.5,0.4-0.9,0.9-0.9
		C-15.8,379.8-15.4,380.3-15.4,380.8"/>
	<path class="st90" d="M-6.7,361.3c0,0.5-0.4,0.9-0.9,0.9c-0.5,0-0.9-0.4-0.9-0.9c0-0.5,0.4-0.9,0.9-0.9
		C-7.1,360.3-6.7,360.7-6.7,361.3"/>
	<path class="st90" d="M2.6,372.1c0,0.5-0.4,0.9-0.9,0.9c-0.5,0-0.9-0.4-0.9-0.9c0-0.5,0.4-0.9,0.9-0.9
		C2.2,371.2,2.6,371.6,2.6,372.1"/>
	<path class="st90" d="M14.2,384.2c0,0.5-0.4,0.9-0.9,0.9c-0.5,0-0.9-0.4-0.9-0.9c0-0.5,0.4-0.9,0.9-0.9
		C13.8,383.3,14.2,383.7,14.2,384.2"/>
	<path class="st90" d="M16.6,405.5c0,0.5-0.4,0.9-0.9,0.9c-0.5,0-0.9-0.4-0.9-0.9c0-0.5,0.4-0.9,0.9-0.9
		C16.2,404.6,16.6,405,16.6,405.5"/>
	<path class="st90" d="M-43.3,360.3c0,0.5-0.4,0.9-0.9,0.9s-0.9-0.4-0.9-0.9c0-0.5,0.4-0.9,0.9-0.9
		C-43.7,359.4-43.3,359.8-43.3,360.3"/>
	<path class="st90" d="M-17.2,348.5c0,0.5-0.4,0.9-0.9,0.9c-0.5,0-0.9-0.4-0.9-0.9c0-0.5,0.4-0.9,0.9-0.9
		C-17.6,347.6-17.2,348-17.2,348.5"/>
	<path class="st90" d="M-47.9,374.4c0,0.5-0.4,0.9-0.9,0.9c-0.5,0-0.9-0.4-0.9-0.9c0-0.5,0.4-0.9,0.9-0.9
		C-48.3,373.5-47.9,373.9-47.9,374.4"/>
	<path class="st90" d="M-63.4,384.3c0,0.5-0.4,0.9-0.9,0.9c-0.5,0-0.9-0.4-0.9-0.9c0-0.5,0.4-0.9,0.9-0.9
		C-63.8,383.4-63.4,383.8-63.4,384.3"/>
	<path class="st90" d="M-82.7,406.1c0,0.5-0.4,0.9-0.9,0.9c-0.5,0-0.9-0.4-0.9-0.9c0-0.5,0.4-0.9,0.9-0.9
		C-83.1,405.2-82.7,405.6-82.7,406.1"/>
	<path class="st90" d="M29,386.3c0,0.5-0.4,0.9-0.9,0.9c-0.5,0-0.9-0.4-0.9-0.9c0-0.5,0.4-0.9,0.9-0.9C28.6,385.4,29,385.8,29,386.3
		"/>
	<path class="st90" d="M-4.9,409.6c0,0.5-0.4,0.9-0.9,0.9c-0.5,0-0.9-0.4-0.9-0.9s0.4-0.9,0.9-0.9C-5.3,408.6-4.9,409.1-4.9,409.6"
		/>
	<path class="st90" d="M-30.1,403.5c0,0.5-0.4,0.9-0.9,0.9c-0.5,0-0.9-0.4-0.9-0.9c0-0.5,0.4-0.9,0.9-0.9
		C-30.5,402.6-30.1,403-30.1,403.5"/>
	<path class="st90" d="M-42.9,395.8c0,0.5-0.4,0.9-0.9,0.9c-0.5,0-0.9-0.4-0.9-0.9c0-0.5,0.4-0.9,0.9-0.9
		C-43.3,394.9-42.9,395.3-42.9,395.8"/>
	<path class="st90" d="M-62.2,418.9c0,0.5-0.4,0.9-0.9,0.9c-0.5,0-0.9-0.4-0.9-0.9c0-0.5,0.4-0.9,0.9-0.9
		C-62.7,418-62.2,418.4-62.2,418.9"/>
	<path class="st90" d="M-82.4,383.3c0,0.5-0.4,0.9-0.9,0.9c-0.5,0-0.9-0.4-0.9-0.9c0-0.5,0.4-0.9,0.9-0.9
		C-82.8,382.4-82.4,382.8-82.4,383.3"/>
</g>
<g>
	<polygon class="st91" points="2.2,293.1 -1.4,280.8 2.2,293.1 -13.8,308.4 2.2,293.1 	"/>
	<rect x="15.2" y="283.5" class="st91" width="0" height="33.9"/>
</g>
</svg>
