<?xml version="1.0" encoding="utf-8"?>
<!-- Generator: Adobe Illustrator 15.0.0, SVG Export Plug-In . SVG Version: 6.00 Build 0)  -->
<!DOCTYPE svg PUBLIC "-//W3C//DTD SVG 1.1//EN" "http://www.w3.org/Graphics/SVG/1.1/DTD/svg11.dtd">
<svg version="1.1" id="Слой_5" xmlns="http://www.w3.org/2000/svg" xmlns:xlink="http://www.w3.org/1999/xlink" x="0px" y="0px"
	 width="296px" height="334px" viewBox="0 0 296 334" enable-background="new 0 0 296 334" xml:space="preserve">
<g id="Слой_1_1_">
	<polygon opacity="0.4" fill="#CAF1FC" points="49.85,157.627 202.851,135.871 202.851,279.981 49.85,305.791 	"/>
	<polygon opacity="0.8" fill="#E0FAFF" points="201.85,136.043 252.85,148.876 252.85,296.876 201.85,281.544 	"/>
	<polygon opacity="0.8" fill="#E0FAFF" points="26.849,110.543 178.85,87.543 201.85,136.043 49.849,157.544 	"/>
	<polygon opacity="0.4" fill="#BAEAF7" points="219.85,101.044 271.851,115.543 253.35,149.543 201.85,135.543 	"/>
	<polygon opacity="0.5" fill="#98E2FB" enable-background="new    " points="13.851,124.044 65.85,138.542 101.349,169.544 
		50.849,155.542 	"/>
	
		<line opacity="0.4" fill="none" stroke="#4081B2" enable-background="new    " x1="271.851" y1="115.794" x2="253.35" y2="149.794"/>
	<polyline opacity="0.5" fill="none" stroke="#4081B2" enable-background="new    " points="13.851,123.294 13.851,123.294 
		65.85,137.793 101.349,168.794 	"/>
	<polygon fill="#CAF1FC" points="100.849,169.544 253.85,148.876 253.85,297.542 100.849,324.542 	"/>
	<path fill="none" d="M131.206,281.741c-23.766,0-43.035-19.268-43.035-43.033c0-23.77,19.27-43.035,43.035-43.035
		c23.77,0,43.035,19.266,43.035,43.035C174.241,262.474,154.976,281.741,131.206,281.741L131.206,281.741z M96.524,287.913
		c-17.348,0-31.41-14.064-31.41-31.41s14.063-31.408,31.41-31.408c17.346,0,31.408,14.063,31.408,31.408
		S113.87,287.913,96.524,287.913L96.524,287.913z M207.377,276.812c-20.45,0-37.026-16.578-37.026-37.025
		c0-20.449,16.576-37.027,37.026-37.027c20.448,0,37.024,16.578,37.024,37.027C244.403,260.233,227.825,276.812,207.377,276.812
		L207.377,276.812z M78.343,258.798c-10.15,0-18.38-8.229-18.38-18.379c0-10.152,8.229-18.381,18.38-18.381
		s18.38,8.229,18.38,18.381C96.723,250.569,88.493,258.798,78.343,258.798L78.343,258.798z"/>
	<polygon fill="#E0FAFF" points="48.85,155.044 100.849,169.544 100.849,324.542 48.85,305.794 	"/>
	<path opacity="0.5" fill="#FFFFFF" enable-background="new    " d="M207.377,202.757c-15.957,0-29.554,10.094-34.761,24.244
		c-5.1-18.076-21.701-31.33-41.41-31.33c-19.246,0-35.541,12.637-41.043,30.068c-0.203,0.041-0.404,0.094-0.606,0.139
		c-3.104-2.398-6.987-3.84-11.214-3.84c-10.15,0-18.38,8.229-18.38,18.381c0,5.037,2.028,9.598,5.312,12.916
		c-0.104,1.041-0.16,2.098-0.16,3.166c0,17.348,14.063,31.41,31.41,31.41c8.209,0,15.682-3.152,21.276-8.313
		c4.22,1.383,8.724,2.143,13.405,2.143c19.283,0,35.603-12.684,41.074-30.16c4.928,14.662,18.772,25.229,35.097,25.229
		c20.448,0,37.024-16.578,37.024-37.025C244.403,219.335,227.825,202.757,207.377,202.757z"/>
	<path opacity="0.8" fill="#FFFFFF" enable-background="new    " d="M214.431,183.327c-0.146,0-0.291,0.008-0.438,0.01
		c-5.59-5.301-13.137-8.559-21.449-8.559c-8.17,0-15.602,3.145-21.163,8.285c-5.876-4.105-13.021-6.521-20.733-6.521
		c-7.941,0-15.279,2.561-21.253,6.891c-4.851-5.576-11.993-9.105-19.964-9.105c-12.189,0-22.449,8.248-25.518,19.467
		c-0.266-0.014-0.528-0.041-0.797-0.041c-8.551,0-15.483,6.932-15.483,15.482s6.933,15.48,15.483,15.48
		c3.652,0,7.002-1.271,9.65-3.387c4.549,3.693,10.348,5.912,16.664,5.912c2.612,0,5.135-0.387,7.518-1.092
		c5.32,13.408,18.398,22.895,33.701,22.895c11.92,0,22.493-5.754,29.102-14.635c3.904,1.76,8.232,2.746,12.795,2.746
		c4.456,0,8.689-0.941,12.525-2.625c2.91,1.102,6.063,1.711,9.36,1.711c14.612,0,26.459-11.846,26.459-26.457
		C240.89,195.173,229.043,183.327,214.431,183.327z"/>
	<g>
		<g>
			<defs>
				<polygon id="SVGID_1_" points="100.849,208.878 253.85,188.21 253.85,254.114 100.849,281.114 				"/>
			</defs>
			<clipPath id="SVGID_2_">
				<use xlink:href="#SVGID_1_"  overflow="visible"/>
			</clipPath>
			<g clip-path="url(#SVGID_2_)">
				<polygon fill="#D0E4F7" points="84.019,171.397 133.073,162.446 133.266,163.427 103.546,169.634 84.179,172.384 				"/>
				<path fill="#D0E4F7" d="M84.108,171.89l19.336-2.746l29.719-6.205L84.108,171.89z"/>
				<polygon fill="#668ACD" points="244.487,178.753 218.825,162.044 219.245,161.146 267.346,175.948 267.239,176.923 
					244.802,178.833 				"/>
				<path fill="#668ACD" d="M219.099,161.624l25.661,16.711l22.438-1.91L219.099,161.624z"/>
				<polygon fill="#466EB4" points="263.963,199.438 263.956,199.282 266.702,176.366 267.698,176.413 268.655,217.591 
					267.663,217.702 				"/>
				<path fill="#466EB4" d="M267.198,176.425l-2.746,22.916l3.701,18.262L267.198,176.425z"/>
				<polygon fill="#004C9C" points="245.274,272.64 244.971,271.829 260.487,252.972 261.325,253.077 272.188,276.353 
					271.651,277.058 				"/>
				<path fill="#004C9C" d="M260.872,253.288l-15.516,18.857l26.377,4.418L260.872,253.288z"/>
				<polygon fill="#004A98" points="248.811,287.788 244.872,272.271 245.44,271.655 271.817,276.071 271.956,277.013 
					249.517,288.112 				"/>
				<path fill="#004A98" d="M245.356,272.147l3.938,15.518l22.438-11.102L245.356,272.147z"/>
				<polygon fill="#004D9C" points="260.42,253.501 260.397,253.138 263.499,243.351 264.463,243.388 272.221,276.45 
					271.28,276.776 				"/>
				<path fill="#004D9C" d="M263.977,243.503l-3.104,9.785l10.861,23.275L263.977,243.503z"/>
				<polygon fill="#1559A9" points="267.655,217.632 266.698,176.437 267.698,176.401 272.233,276.542 271.235,276.595 				"/>
				<path fill="#1559A9" d="M267.198,176.425l0.955,41.178l3.58,58.961L267.198,176.425z"/>
				<polygon fill="#0050A0" points="263.489,243.618 263.483,243.423 267.661,217.522 268.653,217.573 272.233,276.534 
					271.247,276.679 				"/>
				<path fill="#0050A0" d="M268.155,217.603l-4.179,25.9l7.759,33.061L268.155,217.603z"/>
				<polygon fill="#5779BF" points="244.395,178.677 244.718,177.837 267.155,175.927 267.694,176.483 264.948,199.399 
					264.088,199.683 				"/>
				<path fill="#5779BF" d="M244.76,178.335l19.692,21.006l2.746-22.916L244.76,178.335z"/>
				<polygon fill="#075CB5" points="230.323,226.399 230.448,225.47 268.046,217.114 268.647,217.683 264.47,243.583 
					263.743,243.946 				"/>
				<path fill="#075CB5" d="M230.557,225.958l33.42,17.545l4.179-25.9L230.557,225.958z"/>
				<polygon fill="#276DBE" points="230.144,225.677 245.659,202.88 246.347,202.743 268.428,217.185 268.263,218.091 
					230.665,226.446 				"/>
				<path fill="#276DBE" d="M246.073,203.161l-15.518,22.797l37.598-8.355L246.073,203.161z"/>
				<polygon fill="#386DB8" points="245.8,203.579 245.972,202.671 264.352,198.851 264.944,199.241 268.645,217.503 
					267.881,218.021 				"/>
				<path fill="#386DB8" d="M264.452,199.341l-18.379,3.82l22.08,14.441L264.452,199.341z"/>
				<polygon fill="#4E79C4" points="245.573,203.187 244.261,178.362 245.124,177.993 264.819,198.999 264.555,199.831 
					246.175,203.649 				"/>
				<path fill="#4E79C4" d="M244.76,178.335l1.313,24.826l18.379-3.82L244.76,178.335z"/>
				<polygon fill="#0067BD" points="228.222,238.392 228.153,238.054 230.063,225.88 231.045,225.851 236.177,249.483 
					235.263,249.851 				"/>
				<path fill="#0067BD" d="M230.557,225.958l-1.909,12.172l7.041,11.459L230.557,225.958z"/>
				<polygon fill="#0060B7" points="235.2,249.696 230.069,226.063 230.788,225.515 264.208,243.06 264.081,243.993 
					235.794,250.079 				"/>
				<path fill="#0060B7" d="M230.557,225.958l5.132,23.631l28.288-6.086L230.557,225.958z"/>
				<polygon fill="#0058AC" points="235.616,250.085 235.583,249.101 263.87,243.013 264.452,243.655 261.35,253.44 
					260.801,253.784 				"/>
				<path fill="#0058AC" d="M235.688,249.589l25.186,3.699l3.104-9.785L235.688,249.589z"/>
				<polygon fill="#0058AC" points="244.897,272.345 235.229,249.788 235.761,249.095 260.946,252.794 261.259,253.606 
					245.741,272.464 				"/>
				<path fill="#0058AC" d="M235.688,249.589l9.668,22.559l15.518-18.857L235.688,249.589z"/>
				<polygon fill="#004EA1" points="155.478,295.085 155.354,294.103 187.34,285.511 187.596,285.509 223.761,294.938 
					223.629,295.921 				"/>
				<path fill="#004EA1" d="M187.47,285.993l-31.986,8.594l68.151,0.836L187.47,285.993z"/>
				<polygon fill="#5381CA" points="233.688,192.913 233.618,192.237 244.362,178.034 245.259,178.308 246.573,203.134 
					245.743,203.536 				"/>
				<path fill="#5381CA" d="M244.76,178.335l-10.742,14.203l12.056,10.623L244.76,178.335z"/>
				<polygon fill="#004A99" points="223.27,295.081 244.991,271.806 245.841,272.024 249.78,287.54 249.44,288.142 223.78,295.899 
									"/>
				<path fill="#004A99" d="M245.356,272.147l-21.722,23.273l25.66-7.758L245.356,272.147z"/>
				<polygon fill="#005CB0" points="213.926,270.138 213.627,269.272 235.35,249.222 236.149,249.392 245.817,271.95 
					245.317,272.646 				"/>
				<path fill="#005CB0" d="M235.688,249.589l-21.723,20.051l31.391,2.508L235.688,249.589z"/>
				<polygon fill="#0054A7" points="223.167,295.597 213.497,269.815 214.006,269.142 245.397,271.649 245.722,272.489 
					223.999,295.763 				"/>
				<path fill="#0054A7" d="M213.966,269.64l9.669,25.781l21.722-23.273L213.966,269.64z"/>
				<polygon fill="#4C83CB" points="225.626,196.952 225.567,196.024 233.802,192.087 234.348,192.163 246.403,202.786 
					245.917,203.636 				"/>
				<path fill="#4C83CB" d="M234.018,192.538l-8.235,3.938l20.291,6.684L234.018,192.538z"/>
				<polygon fill="#397EC7" points="230.063,226.038 225.288,196.556 225.938,196.001 246.229,202.685 246.487,203.44 
					230.97,226.239 				"/>
				<path fill="#397EC7" d="M225.782,196.476l4.773,29.482l15.518-22.797L225.782,196.476z"/>
				<polygon fill="#638FD2" points="233.567,192.755 218.649,161.843 219.37,161.206 245.032,177.915 245.157,178.636 
					234.415,192.839 				"/>
				<path fill="#638FD2" d="M219.099,161.624l14.919,30.914l10.742-14.203L219.099,161.624z"/>
				<polygon fill="#5173B9" points="76.756,283.505 76.843,282.509 123.868,283.823 124.008,283.847 155.638,294.11 
					155.409,295.081 				"/>
				<path fill="#5173B9" d="M123.854,284.323l-47.025-1.314l78.654,11.576L123.854,284.323z"/>
				<polygon fill="#5E91D4" points="225.29,196.571 218.608,161.72 219.549,161.407 234.468,192.321 234.233,192.989 
					225.997,196.927 				"/>
				<path fill="#5E91D4" d="M219.099,161.624l6.684,34.852l8.235-3.938L219.099,161.624z"/>
				<polygon fill="#0066B9" points="213.513,269.429 228.194,237.919 229.073,237.87 236.114,249.329 236.028,249.956 
					214.305,270.007 				"/>
				<path fill="#0066B9" d="M228.647,238.13l-14.682,31.51l21.723-20.051L228.647,238.13z"/>
				<polygon fill="#67A0DA" points="186.153,186.815 185.976,185.933 218.798,161.226 219.59,161.53 226.274,196.382 
					225.657,196.96 				"/>
				<path fill="#67A0DA" d="M219.099,161.624l-32.822,24.707l39.506,10.145L219.099,161.624z"/>
				<polygon fill="#006DC0" points="193.483,235.878 193.95,235.124 228.684,237.632 229.101,238.341 214.419,269.851 
					213.534,269.894 				"/>
				<path fill="#006DC0" d="M193.913,235.624l20.053,34.016l14.682-31.51L193.913,235.624z"/>
				<polygon fill="#3E8FCF" points="186.415,205.042 186.532,204.103 225.681,195.987 226.276,196.396 231.05,225.878 
					230.338,226.407 				"/>
				<path fill="#3E8FCF" d="M225.782,196.476l-39.147,8.117l43.922,21.365L225.782,196.476z"/>
				<polygon fill="#2589CE" points="193.428,235.739 186.149,204.706 186.854,204.142 230.776,225.509 230.685,226.44 
					194.042,236.106 				"/>
				<path fill="#2589CE" d="M186.635,204.593l7.278,31.031l36.644-9.666L186.635,204.593z"/>
				<polygon fill="#0874C5" points="193.878,236.122 193.786,235.14 230.429,225.474 231.051,226.036 229.142,238.208 
					228.612,238.63 				"/>
				<path fill="#0874C5" d="M193.913,235.624l34.734,2.506l1.908-12.172L193.913,235.624z"/>
				<polygon fill="#5BA2D9" points="186.135,204.603 185.776,186.341 186.401,185.847 225.905,195.993 225.884,196.966 
					186.737,205.083 				"/>
				<path fill="#5BA2D9" d="M186.276,186.331l0.358,18.262l39.147-8.117L186.276,186.331z"/>
				<polygon fill="#0054A7" points="187.344,286.476 187.206,285.567 213.702,269.214 214.434,269.464 224.103,295.245 
					223.509,295.905 				"/>
				<path fill="#0054A7" d="M213.966,269.64l-26.496,16.354l36.165,9.43L213.966,269.64z"/>
				<polygon fill="#006DBF" points="192.116,269.784 191.626,269.257 193.415,235.597 194.345,235.37 214.397,269.386 
					213.958,270.14 				"/>
				<path fill="#006DBF" d="M193.913,235.624l-1.789,33.658l21.842,0.357L193.913,235.624z"/>
				<polygon fill="#7BB1E1" points="185.776,186.345 185.06,157.7 185.618,157.188 219.157,161.128 219.399,162.024 
					186.577,186.729 				"/>
				<path fill="#7BB1E1" d="M185.56,157.687l0.717,28.645l32.822-24.707L185.56,157.687z"/>
				<polygon fill="#1159AA" points="155.231,294.155 168.718,286.278 168.95,286.208 187.45,285.493 187.6,286.476 155.614,295.067 
									"/>
				<path fill="#1159AA" d="M168.97,286.708l-13.486,7.877l31.986-8.592L168.97,286.708z"/>
				<polygon fill="#0170C4" points="181.653,260.95 181.528,260.354 193.463,235.409 194.413,235.649 192.624,269.31 
					191.799,269.663 				"/>
				<path fill="#0170C4" d="M181.979,260.571l10.146,8.713l1.789-33.66L181.979,260.571z"/>
				<polygon fill="#005FB4" points="186.989,285.858 191.644,269.149 192.133,268.784 213.974,269.14 214.229,270.065 
					187.733,286.419 				"/>
				<path fill="#005FB4" d="M192.124,269.284l-4.654,16.709l26.496-16.354L192.124,269.284z"/>
				<polygon fill="#A0CDEB" points="133.114,162.44 185.51,157.188 185.794,158.128 176.364,163.14 176.134,163.2 133.167,163.438 
									"/>
				<path fill="#A0CDEB" d="M133.163,162.938l42.968-0.238l9.429-5.014L133.163,162.938z"/>
				<polygon fill="#85BBE5" points="175.672,162.896 175.897,162.257 185.325,157.245 186.06,157.673 186.776,186.317 
					185.817,186.528 				"/>
				<path fill="#85BBE5" d="M185.56,157.687l-9.429,5.014l10.146,23.631L185.56,157.687z"/>
				<polygon fill="#3898D4" points="174.069,223.394 173.925,222.696 186.219,204.313 187.12,204.478 194.401,235.509 
					193.643,236.044 				"/>
				<path fill="#3898D4" d="M186.635,204.593l-12.294,18.381l19.572,12.65L186.635,204.593z"/>
				<polygon fill="#238DD0" points="179.713,241.622 173.864,223.124 174.612,222.554 194.186,235.204 194.11,236.083 
					180.386,241.933 				"/>
				<path fill="#238DD0" d="M174.341,222.974l5.85,18.498l13.725-5.848L174.341,222.974z"/>
				<polygon fill="#0F7EC9" points="181.481,260.618 179.692,241.519 179.993,241.013 193.718,235.163 194.364,235.839 
					182.431,260.786 				"/>
				<path fill="#0F7EC9" d="M180.19,241.472l1.789,19.1l11.936-24.947L180.19,241.472z"/>
				<polygon fill="#055FB7" points="168.522,286.487 181.532,260.347 182.468,260.464 187.958,285.888 187.489,286.493 
					168.989,287.208 				"/>
				<path fill="#055FB7" d="M181.979,260.571l-13.01,26.139l18.5-0.717L181.979,260.571z"/>
				<polygon fill="#0061B9" points="186.981,286.099 181.491,260.675 182.306,260.19 192.45,268.905 192.606,269.417 
					187.95,286.126 				"/>
				<path fill="#0061B9" d="M181.979,260.571l5.49,25.422l4.654-16.709L181.979,260.571z"/>
				<polygon fill="#84BBE5" points="163.888,183.724 163.528,182.974 175.7,162.444 176.59,162.501 186.735,186.134 
					186.206,186.827 				"/>
				<path fill="#84BBE5" d="M176.131,162.7l-12.175,20.527l22.32,3.105L176.131,162.7z"/>
				<polygon fill="#55A9DA" points="160.233,207.063 160.573,206.243 186.594,204.095 187.051,204.87 174.757,223.251 
					173.959,223.296 				"/>
				<path fill="#55A9DA" d="M160.614,206.741l13.727,16.232l12.294-18.381L160.614,206.741z"/>
				<polygon fill="#72B1E1" points="163.614,183.591 164.026,182.731 186.346,185.837 186.776,186.321 187.135,204.583 
					186.292,204.956 				"/>
				<path fill="#72B1E1" d="M186.276,186.331l-22.318-3.104l22.678,21.365L186.276,186.331z"/>
				<polygon fill="#6FB4E1" points="160.12,206.671 163.462,183.157 164.3,182.864 186.978,204.228 186.676,205.091 
					160.655,207.239 				"/>
				<path fill="#6FB4E1" d="M163.956,183.228l-3.342,23.514l26.021-2.148L163.956,183.228z"/>
				<polygon fill="#2B92D2" points="158.429,242.718 173.946,222.667 174.817,222.823 180.665,241.323 180.226,241.972 
					158.86,243.522 				"/>
				<path fill="#2B92D2" d="M174.341,222.974l-15.518,20.051l21.365-1.553L174.341,222.974z"/>
				<polygon fill="#1C6EBF" points="143.249,268.251 143.454,267.358 181.887,260.079 182.427,260.792 169.417,286.931 
					168.672,287.11 				"/>
				<path fill="#1C6EBF" d="M143.548,267.851l25.422,18.857l13.01-26.139L143.548,267.851z"/>
				<polygon fill="#2781CA" points="143.122,267.589 158.399,242.763 159.126,242.626 182.28,260.171 182.073,261.062 
					143.641,268.341 				"/>
				<path fill="#2781CA" d="M158.823,243.024l-15.275,24.826l38.432-7.279L158.823,243.024z"/>
				<polygon fill="#1883CC" points="158.522,243.423 158.788,242.524 180.153,240.974 180.688,241.425 182.478,260.522 
					181.678,260.968 				"/>
				<path fill="#1883CC" d="M180.19,241.472l-21.365,1.553l23.154,17.547L180.19,241.472z"/>
				<polygon fill="#83BDE4" points="154.315,194.784 154.378,194.251 163.569,182.913 164.452,183.298 161.11,206.812 
					160.163,206.958 				"/>
				<path fill="#83BDE4" d="M154.767,194.565l5.85,12.176l3.342-23.514L154.767,194.565z"/>
				<polygon fill="#94C5E9" points="149.417,176.755 149.405,175.86 175.903,162.255 176.561,162.954 164.387,183.481 
					163.739,183.679 				"/>
				<path fill="#94C5E9" d="M149.635,176.306l14.321,6.922l12.175-20.529L149.635,176.306z"/>
				<polygon fill="#A7D1EC" points="149.319,176.692 132.849,163.327 133.161,162.438 176.128,162.2 176.36,163.144 
					149.864,176.751 				"/>
				<path fill="#A7D1EC" d="M133.163,162.938l16.472,13.367l26.496-13.605L133.163,162.938z"/>
				<polygon fill="#46A2D9" points="158.325,242.999 160.116,206.716 160.997,206.419 174.723,222.649 174.737,223.28 
					159.22,243.329 				"/>
				<path fill="#46A2D9" d="M160.614,206.741l-1.791,36.283l15.518-20.051L160.614,206.741z"/>
				<polygon fill="#59ABDB" points="135.59,224.431 135.622,223.638 160.327,206.331 161.114,206.765 159.323,243.048 
					158.505,243.409 				"/>
				<path fill="#59ABDB" d="M135.909,224.046l22.916,18.979l1.791-36.283L135.909,224.046z"/>
				<polygon fill="#2868B6" points="155.026,294.79 143.091,268.054 143.845,267.45 169.268,286.308 169.222,287.14 
					155.735,295.017 				"/>
				<path fill="#2868B6" d="M143.548,267.851l11.936,26.734l13.486-7.877L143.548,267.851z"/>
				<polygon fill="#93C5E7" points="154.284,194.702 149.153,176.44 149.853,175.854 164.175,182.776 164.346,183.542 
					155.155,194.882 				"/>
				<path fill="#93C5E7" d="M149.635,176.306l5.132,18.26l9.189-11.338L149.635,176.306z"/>
				<polygon fill="#78BCE1" points="135.487,223.776 154.346,194.298 155.218,194.351 161.067,206.524 160.903,207.149 
					136.196,224.456 				"/>
				<path fill="#78BCE1" d="M154.767,194.565l-18.857,29.48l24.707-17.305L154.767,194.565z"/>
				<polygon fill="#4595D2" points="143.112,268.097 126.641,238.974 127.143,238.233 158.892,242.53 159.249,243.286 
					143.973,268.112 				"/>
				<path fill="#4595D2" d="M127.075,238.728l16.472,29.123l15.276-24.826L127.075,238.728z"/>
				<polygon fill="#58A6D9" points="127.01,239.224 126.647,238.47 135.481,223.788 136.228,223.663 159.144,242.64 
					158.757,243.519 				"/>
				<path fill="#58A6D9" d="M135.909,224.046l-8.834,14.682l31.748,4.297L135.909,224.046z"/>
				<polygon fill="#A1CCEA" points="124.437,186.694 124.386,185.747 149.45,175.841 150.116,176.171 155.247,194.431 
					154.633,195.048 				"/>
				<path fill="#A1CCEA" d="M149.635,176.306l-25.065,9.906l30.197,8.354L149.635,176.306z"/>
				<polygon fill="#91C5E6" points="135.43,224.19 124.091,186.354 124.702,185.729 154.901,194.085 155.188,194.837 
					136.329,224.315 				"/>
				<path fill="#91C5E6" d="M124.569,186.212l11.34,37.834l18.857-29.48L124.569,186.212z"/>
				<polygon fill="#3A70BB" points="123.698,284.798 123.532,283.938 143.227,267.466 144.004,267.646 155.94,294.382 
					155.329,295.062 				"/>
				<path fill="#3A70BB" d="M143.548,267.851l-19.693,16.473l31.629,10.264L143.548,267.851z"/>
				<polygon fill="#99C9E8" points="112.335,207.022 112.202,206.37 124.138,185.96 125.049,186.067 136.388,223.903 
					135.608,224.448 				"/>
				<path fill="#99C9E8" d="M124.569,186.212l-11.935,20.41l23.274,17.426L124.569,186.212z"/>
				<polygon fill="#5093D3" points="120.399,256.358 120.163,255.739 126.608,238.552 127.511,238.481 143.983,267.604 
					143.317,268.294 				"/>
				<path fill="#5093D3" d="M127.075,238.728l-6.444,17.188l22.917,11.936L127.075,238.728z"/>
				<polygon fill="#B2D4EF" points="124.101,186.038 132.694,162.765 133.479,162.55 149.95,175.917 149.819,176.771 
					124.754,186.677 				"/>
				<path fill="#B2D4EF" d="M133.163,162.938l-8.594,23.273l25.065-9.906L133.163,162.938z"/>
				<polygon fill="#4B81CA" points="123.356,284.378 120.135,255.972 120.862,255.472 143.778,267.407 143.868,268.233 
					124.175,284.706 				"/>
				<path fill="#4B81CA" d="M120.631,255.915l3.224,28.406l19.693-16.473L120.631,255.915z"/>
				<polygon fill="#77B6E3" points="126.62,238.933 112.179,206.827 112.935,206.222 136.209,223.646 136.337,224.304 
					127.505,238.987 				"/>
				<path fill="#77B6E3" d="M112.635,206.622l14.44,32.105l8.834-14.682L112.635,206.622z"/>
				<polygon fill="#5784CC" points="104.012,272.329 103.93,271.55 120.28,255.558 121.128,255.858 124.35,284.265 123.586,284.745 
									"/>
				<path fill="#5784CC" d="M120.631,255.915l-16.353,15.992l19.574,12.414L120.631,255.915z"/>
				<polygon fill="#C3DBF4" points="103.13,169.534 103.342,168.655 133.062,162.45 133.633,163.112 125.038,186.386 
					124.256,186.601 				"/>
				<path fill="#C3DBF4" d="M103.444,169.144l21.125,17.068l8.594-23.273L103.444,169.144z"/>
				<polygon fill="#5D7EC6" points="76.813,283.509 76.665,282.538 103.997,273.106 104.399,273.142 124.093,283.884 
					123.84,284.823 				"/>
				<path fill="#5D7EC6" d="M104.161,273.579l-27.334,9.43l47.025,1.314L104.161,273.579z"/>
				<polygon fill="#5980C8" points="103.922,274.019 103.661,273.544 103.78,271.872 104.547,271.487 124.12,283.899 
					123.614,284.761 				"/>
				<path fill="#5980C8" d="M104.28,271.909l-0.119,1.672l19.693,10.742L104.28,271.909z"/>
				<polygon fill="#C1DAF2" points="110.741,187.837 102.983,169.337 103.759,168.755 124.885,185.823 124.622,186.71 
					111.256,188.142 				"/>
				<path fill="#C1DAF2" d="M103.444,169.144l7.758,18.5l13.367-1.432L103.444,169.144z"/>
				<polygon fill="#B2D2EE" points="112.136,206.659 110.704,187.683 111.149,187.147 124.517,185.716 125.002,186.464 
					113.067,206.874 				"/>
				<path fill="#B2D2EE" d="M111.202,187.644l1.433,18.979l11.935-20.41L111.202,187.644z"/>
				<polygon fill="#66A4DB" points="92.737,243.958 92.872,243.007 127.007,238.233 127.545,238.905 121.099,256.091 
					120.427,256.37 				"/>
				<path fill="#66A4DB" d="M92.94,243.503l27.69,12.412l6.444-17.188L92.94,243.503z"/>
				<polygon fill="#7AB6E3" points="92.499,243.267 112.194,206.386 113.091,206.417 127.532,238.522 127.146,239.224 
					93.011,243.997 				"/>
				<path fill="#7AB6E3" d="M112.635,206.622L92.94,243.503l34.135-4.775L112.635,206.622z"/>
				<polygon fill="#90C3E8" points="78.42,218.442 78.694,217.726 112.473,206.147 113.075,206.856 93.382,243.739 92.504,243.745 
									"/>
				<path fill="#90C3E8" d="M78.856,218.2l14.084,25.303l19.694-36.881L78.856,218.2z"/>
				<polygon fill="#6499D6" points="103.815,272.093 92.477,243.688 93.146,243.046 120.836,255.458 120.981,256.272 
					104.629,272.265 				"/>
				<path fill="#6499D6" d="M92.94,243.503l11.338,28.404l16.353-15.992L92.94,243.503z"/>
				<polygon fill="#84BAE4" points="87.063,242.19 86.741,241.88 78.386,218.366 79.294,217.956 93.378,243.259 92.792,243.979 				
					"/>
				<path fill="#84BAE4" d="M78.856,218.2l8.355,23.514l5.729,1.789L78.856,218.2z"/>
				<polygon fill="#6B99D8" points="84.213,260.642 84.021,259.985 92.495,243.276 93.405,243.317 104.743,271.722 104.024,272.339 
									"/>
				<path fill="#6B99D8" d="M92.94,243.503l-8.474,16.709l19.813,11.695L92.94,243.503z"/>
				<polygon fill="#BEDAF2" points="78.385,218.362 68.001,188.284 68.468,187.622 111.196,187.144 111.546,188.007 79.2,218.562 
									"/>
				<path fill="#BEDAF2" d="M68.473,188.122L78.856,218.2l32.346-30.557L68.473,188.122z"/>
				<polygon fill="#ABD2ED" points="78.514,217.835 110.858,187.282 111.7,187.606 113.134,206.585 112.797,207.095 79.019,218.671 
									"/>
				<path fill="#ABD2ED" d="M111.202,187.644L78.856,218.2l33.778-11.578L111.202,187.644z"/>
				<polygon fill="#CEE3F6" points="68.112,187.774 83.747,171.542 84.36,171.458 111.454,187.212 111.208,188.144 68.479,188.622 
									"/>
				<path fill="#CEE3F6" d="M84.108,171.89l-15.636,16.232l42.729-0.479L84.108,171.89z"/>
				<polygon fill="#CDE2F5" points="83.856,172.321 84.038,171.394 103.374,168.649 103.905,168.952 111.663,187.452 
					110.95,188.077 				"/>
				<path fill="#CDE2F5" d="M103.444,169.144l-19.336,2.746l27.094,15.754L103.444,169.144z"/>
				<polygon fill="#648ED1" points="84.186,260.626 84.721,259.782 104.534,271.478 104.778,271.942 104.659,273.616 
					103.88,273.995 				"/>
				<path fill="#648ED1" d="M84.467,260.212l19.694,13.367l0.119-1.672L84.467,260.212z"/>
				<polygon fill="#698CCF" points="76.354,282.851 83.993,260.052 84.747,259.798 104.442,273.165 104.323,274.052 76.991,283.481 
									"/>
				<path fill="#698CCF" d="M84.467,260.212l-7.64,22.797l27.334-9.43L84.467,260.212z"/>
				<polygon fill="#75AADE" points="83.972,260.138 86.718,241.64 87.36,241.235 93.09,243.024 93.387,243.729 84.913,260.438 				
					"/>
				<path fill="#75AADE" d="M87.212,241.712l-2.745,18.5l8.474-16.709L87.212,241.712z"/>
				<polygon fill="#7FB5E2" points="83.971,260.278 78.362,218.265 79.327,218.032 87.683,241.546 87.706,241.786 84.962,260.286 
									"/>
				<path fill="#7FB5E2" d="M78.856,218.2l5.61,42.012l2.745-18.498L78.856,218.2z"/>
				<polygon fill="#76A6DC" points="76.327,282.995 78.356,218.183 79.353,218.132 84.963,260.146 84.94,260.37 77.302,283.169 				
					"/>
				<path fill="#76A6DC" d="M78.856,218.2l-2.029,64.811l7.64-22.799L78.856,218.2z"/>
				<polygon fill="#91C3E8" points="67.975,188.165 68.946,187.958 79.329,218.036 79.356,218.214 77.327,283.024 76.329,283.054 
									"/>
				<path fill="#91C3E8" d="M68.473,188.122l8.354,94.887l2.029-64.811L68.473,188.122z"/>
			</g>
		</g>
	</g>
	<path fill="#FFFFFF" d="M132.595,224.579c0-1.188-0.295-2.109-0.887-2.768c-0.592-0.654-1.426-0.906-2.502-0.76
		c-1.006,0.139-1.789,0.555-2.35,1.242c-0.563,0.689-0.842,1.5-0.842,2.428c0,0.855,0.313,1.518,0.939,1.982
		c0.627,0.467,1.715,0.932,3.264,1.396c2.447,0.494,4.289,1.295,5.523,2.402c1.236,1.107,1.854,2.75,1.854,4.926
		c0,2.248-0.744,4.109-2.233,5.588c-1.49,1.479-3.471,2.389-5.941,2.729c-2.46,0.34-4.592-0.09-6.395-1.283
		c-1.804-1.197-2.677-3.148-2.617-5.855l0.035-0.111l4.914-0.678c0,1.604,0.336,2.711,1.012,3.32
		c0.675,0.607,1.69,0.818,3.051,0.629c1.063-0.145,1.854-0.541,2.367-1.182c0.516-0.643,0.771-1.451,0.771-2.424
		c0-1.014-0.26-1.775-0.779-2.291c-0.521-0.518-1.438-0.973-2.75-1.361c-2.684-0.568-4.696-1.357-6.039-2.367
		c-1.344-1.01-2.015-2.59-2.015-4.742c0-2.129,0.781-3.969,2.341-5.521c1.563-1.553,3.555-2.496,5.979-2.832
		c2.458-0.338,4.458,0.133,5.993,1.412c1.539,1.279,2.283,3.059,2.236,5.336l-0.035,0.111L132.595,224.579L132.595,224.579z
		 M157.991,239.427l-6.137,0.848l-5.107-10.086l-2.199,0.307v10.789l-5.055,0.695v-25.967l5.055-0.697v10.559l1.632-0.227
		l5.037-11.254l6.19-0.852l-7.043,12.83L157.991,239.427L157.991,239.427z M170.35,228.483v9.238l-5.036,0.695v-9.561l-7.255-15.406
		l5.517-0.76l4.256,10.541l0.107-0.016l4.309-11.725l5.481-0.754L170.35,228.483L170.35,228.483z M189.608,216.714
		c0-1.189-0.297-2.111-0.888-2.768s-1.426-0.908-2.502-0.762c-1.006,0.141-1.789,0.555-2.351,1.242
		c-0.563,0.691-0.842,1.5-0.842,2.428c0,0.855,0.313,1.518,0.939,1.982c0.627,0.467,1.715,0.932,3.264,1.396
		c2.448,0.494,4.289,1.297,5.524,2.402c1.235,1.107,1.854,2.75,1.854,4.926c0,2.248-0.746,4.109-2.236,5.588
		c-1.489,1.479-3.469,2.389-5.94,2.729c-2.46,0.34-4.591-0.09-6.396-1.283c-1.803-1.197-2.676-3.148-2.614-5.855l0.034-0.111
		l4.912-0.678c0,1.604,0.338,2.711,1.013,3.32c0.674,0.607,1.69,0.818,3.051,0.629c1.063-0.145,1.854-0.541,2.368-1.182
		s0.771-1.449,0.771-2.424c0-1.012-0.261-1.775-0.779-2.291c-0.521-0.518-1.438-0.971-2.752-1.361
		c-2.682-0.566-4.695-1.357-6.038-2.367s-2.013-2.59-2.013-4.742c0-2.127,0.78-3.969,2.34-5.521
		c1.563-1.553,3.555-2.498,5.979-2.832c2.458-0.338,4.458,0.133,5.994,1.412c1.538,1.279,2.282,3.059,2.235,5.336l-0.035,0.111
		L189.608,216.714L189.608,216.714z M196.655,234.093v-25.967l5.021-0.691v25.967L196.655,234.093L196.655,234.093z
		 M204.549,233.005v-25.969l5.058-0.697v21.918l9.436-1.301v4.049L204.549,233.005L204.549,233.005z M239.145,228.229l-6.139,0.848
		l-5.108-10.084l-2.197,0.303v10.791l-5.057,0.695v-25.967l5.057-0.695v10.557l1.631-0.225l5.037-11.252l6.19-0.855l-7.041,12.832
		L239.145,228.229L239.145,228.229z M128.214,252.358l-2.43,0.336c0.035-0.857-0.08-1.457-0.346-1.797
		c-0.267-0.34-0.729-0.463-1.392-0.371c-0.567,0.078-1.002,0.361-1.304,0.85c-0.303,0.488-0.453,1.184-0.453,2.088v3.9
		c0,0.918,0.162,1.576,0.484,1.979c0.321,0.404,0.793,0.559,1.414,0.473c0.609-0.082,1.033-0.316,1.271-0.703
		c0.24-0.389,0.346-1.008,0.314-1.859l2.43-0.334l0.027,0.051c0.012,1.424-0.326,2.547-1.012,3.365
		c-0.686,0.82-1.695,1.322-3.031,1.506c-1.338,0.186-2.404-0.08-3.203-0.791c-0.797-0.715-1.197-1.826-1.197-3.336v-3.879
		c0-1.504,0.385-2.725,1.158-3.66c0.771-0.936,1.805-1.494,3.1-1.672c1.371-0.188,2.406,0.037,3.107,0.678
		c0.699,0.641,1.063,1.684,1.086,3.121L128.214,252.358L128.214,252.358z M129.53,260.915v-12.982l2.527-0.35v10.959l4.719-0.65
		v2.023L129.53,260.915L129.53,260.915z M145.36,257.634c-0.822,0.971-1.916,1.549-3.281,1.738c-1.366,0.188-2.457-0.09-3.272-0.834
		s-1.224-1.875-1.224-3.398v-3.637c0-1.516,0.408-2.764,1.224-3.74s1.903-1.561,3.263-1.748c1.36-0.188,2.453,0.094,3.281,0.844
		c0.828,0.752,1.243,1.887,1.243,3.4v3.639C146.594,255.419,146.182,256.665,145.36,257.634L145.36,257.634z M144.083,250.579
		c0-0.932-0.172-1.607-0.516-2.035c-0.343-0.428-0.842-0.596-1.498-0.504c-0.662,0.09-1.16,0.395-1.49,0.91
		c-0.332,0.52-0.498,1.242-0.498,2.18v3.668c0,0.941,0.17,1.625,0.507,2.049c0.338,0.426,0.835,0.592,1.489,0.502
		c0.649-0.09,1.146-0.395,1.49-0.912c0.344-0.52,0.516-1.248,0.516-2.189V250.579L144.083,250.579z M155.507,256.39
		c-0.809,0.863-1.863,1.385-3.17,1.566c-1.309,0.18-2.364-0.051-3.172-0.695c-0.807-0.643-1.211-1.654-1.211-3.033v-8.838
		l2.521-0.348v8.838c0,0.791,0.162,1.35,0.487,1.68c0.324,0.33,0.783,0.453,1.375,0.373c0.607-0.086,1.072-0.328,1.393-0.729
		c0.318-0.4,0.479-1.016,0.479-1.84v-8.84l2.51-0.344v8.836C156.718,254.403,156.313,255.526,155.507,256.39L155.507,256.39z
		 M165.55,254.438c-0.863,1.123-1.956,1.777-3.281,1.961l-3.902,0.537v-12.982l3.902-0.537c1.325-0.186,2.418,0.168,3.281,1.057
		s1.294,2.127,1.294,3.713v2.186C166.844,251.958,166.413,253.315,165.55,254.438L165.55,254.438z M164.327,248.511
		c0-1.012-0.19-1.797-0.573-2.357c-0.382-0.561-0.925-0.791-1.628-0.693l-1.231,0.17v8.934l1.231-0.168
		c0.703-0.098,1.246-0.48,1.628-1.148c0.383-0.668,0.573-1.514,0.573-2.529V248.511L164.327,248.511z M168.434,250.981v-2.023
		l4.408-0.609v2.025L168.434,250.981L168.434,250.981z M174.667,254.688v-12.982l2.51-0.35v12.984L174.667,254.688L174.667,254.688z
		 M185.515,253.19l-3.947-7.758l-0.054,0.027v8.283l-2.526,0.348v-12.982l2.526-0.35l3.947,7.748l0.054-0.025v-8.273l2.508-0.348
		v12.982L185.515,253.19L185.515,253.19z M189.743,248.04v-2.023l4.408-0.607v2.023L189.743,248.04L189.743,248.04z
		 M202.073,250.905l-0.703-2.676l-3.404,0.471l-0.689,2.867l-2.547,0.354l3.637-13.486l2.625-0.361l3.627,12.482L202.073,250.905
		L202.073,250.905z M199.696,241.843l-0.054,0.008l-1.161,4.754l2.375-0.328L199.696,241.843L199.696,241.843z M205.091,245.923
		v-2.023l4.406-0.607v2.023L205.091,245.923L205.091,245.923z M217.672,242.038c0.68,0.066,1.183,0.346,1.508,0.836
		c0.324,0.49,0.488,1.096,0.488,1.813c0,1.244-0.354,2.234-1.06,2.975c-0.707,0.738-1.721,1.199-3.039,1.381l-4.312,0.596v-12.982
		l3.808-0.525c1.329-0.184,2.367-0.029,3.114,0.463c0.75,0.49,1.124,1.324,1.124,2.5c0,0.621-0.139,1.188-0.41,1.703
		C218.624,241.312,218.217,241.726,217.672,242.038L217.672,242.038z M216.351,238.399c-0.283-0.242-0.712-0.324-1.285-0.244
		l-1.277,0.174v3.461l1.393-0.191c0.516-0.082,0.909-0.289,1.184-0.615c0.276-0.326,0.414-0.762,0.414-1.305
		C216.776,239.071,216.634,238.644,216.351,238.399L216.351,238.399z M216.821,243.646c-0.225-0.301-0.586-0.42-1.082-0.352
		l-1.951,0.271v3.699l1.781-0.246c0.532-0.072,0.932-0.275,1.192-0.609c0.265-0.334,0.396-0.795,0.396-1.385
		C217.157,244.407,217.045,243.948,216.821,243.646L216.821,243.646z M228.655,246.142c-0.822,0.969-1.916,1.549-3.281,1.736
		c-1.364,0.188-2.456-0.09-3.271-0.832c-0.814-0.744-1.225-1.877-1.225-3.398v-3.639c0-1.516,0.41-2.762,1.225-3.74
		c0.815-0.979,1.903-1.561,3.264-1.748s2.453,0.096,3.281,0.846s1.242,1.885,1.242,3.398v3.641
		C229.89,243.927,229.479,245.171,228.655,246.142L228.655,246.142z M227.38,239.083c0-0.928-0.174-1.607-0.516-2.033
		c-0.344-0.428-0.842-0.596-1.498-0.504c-0.662,0.09-1.16,0.395-1.49,0.91c-0.331,0.516-0.496,1.242-0.496,2.18v3.668
		c0,0.941,0.169,1.625,0.505,2.049c0.337,0.426,0.834,0.59,1.49,0.5c0.649-0.09,1.146-0.393,1.489-0.912
		c0.342-0.518,0.516-1.248,0.516-2.188V239.083L227.38,239.083z M239.81,245.698l-3.04,0.42l-1.81-4.387l-0.053,0.008l-1.812,4.887
		l-2.935,0.404l3.209-6.988l-3.131-6.006l2.899-0.4l1.729,4.301l0.055-0.008l1.755-4.781l2.918-0.402l-3.131,6.871L239.81,245.698
		L239.81,245.698z"/>
	<polygon opacity="0.15" fill="#74B8E2" enable-background="new    " points="48.85,305.544 188.85,284.876 253.85,296.876 
		100.849,323.876 	"/>
</g>
<g>
	<polyline fill-rule="evenodd" clip-rule="evenodd" fill="none" stroke="#00F3FF" stroke-miterlimit="10" points="107.56,93.912 
		107.56,113.912 116.019,122.371 116.019,137.33 	"/>
	<polyline fill-rule="evenodd" clip-rule="evenodd" fill="none" stroke="#00F3FF" stroke-miterlimit="10" points="127.912,104.08 
		122.371,109.621 122.371,123.581 	"/>
	<polyline fill-rule="evenodd" clip-rule="evenodd" fill="none" stroke="#00F3FF" stroke-miterlimit="10" points="122.371,130.662 
		122.371,165.162 111.789,174.459 	"/>
	<polyline fill-rule="evenodd" clip-rule="evenodd" fill="none" stroke="#00F3FF" stroke-miterlimit="10" points="138.81,105.08 
		138.81,117.912 147.56,125.162 147.56,139.912 	"/>
	<polyline fill-rule="evenodd" clip-rule="evenodd" fill="none" stroke="#00F3FF" stroke-miterlimit="10" points="171.31,97.162 
		171.31,108.912 162.935,117.287 162.935,131.662 	"/>
	
		<line fill-rule="evenodd" clip-rule="evenodd" fill="none" stroke="#00F3FF" stroke-miterlimit="10" x1="162.935" y1="138.412" x2="162.935" y2="175.459"/>
	<polyline fill-rule="evenodd" clip-rule="evenodd" fill="none" stroke="#00F3FF" stroke-miterlimit="10" points="186.81,99.08 
		186.81,114.412 178.143,123.079 178.143,137.33 	"/>
	<polyline fill-rule="evenodd" clip-rule="evenodd" fill="none" stroke="#00F3FF" stroke-miterlimit="10" points="192.81,99.08 
		192.81,131.662 201.56,140.412 201.56,153.561 	"/>
	
		<circle fill-rule="evenodd" clip-rule="evenodd" fill="none" stroke="#00F3FF" stroke-miterlimit="10" cx="115.83" cy="140.371" r="3.291"/>
	
		<circle fill-rule="evenodd" clip-rule="evenodd" fill="none" stroke="#00F3FF" stroke-miterlimit="10" cx="122.371" cy="126.872" r="3.291"/>
	
		<circle fill-rule="evenodd" clip-rule="evenodd" fill="none" stroke="#00F3FF" stroke-miterlimit="10" cx="147.56" cy="143.203" r="3.291"/>
	
		<circle fill-rule="evenodd" clip-rule="evenodd" fill="none" stroke="#00F3FF" stroke-miterlimit="10" cx="162.935" cy="134.953" r="3.291"/>
	
		<circle fill-rule="evenodd" clip-rule="evenodd" fill="none" stroke="#00F3FF" stroke-miterlimit="10" cx="178.143" cy="140.371" r="3.291"/>
	
		<circle fill-rule="evenodd" clip-rule="evenodd" fill="none" stroke="#00F3FF" stroke-miterlimit="10" cx="201.56" cy="156.936" r="3.291"/>
</g>
<path fill-rule="evenodd" clip-rule="evenodd" fill="#FFFFFF" d="M246.994,82.042c0,12.01-9.736,21.747-21.746,21.747
	c-2.467,0-4.824-0.432-7.035-1.186c-6.676,6.403-15.732,10.347-25.715,10.347c-5.826,0-11.338-1.343-16.246-3.733
	c-8.232,5.717-18.223,9.076-29.003,9.076c-12.358,0-23.688-4.406-32.506-11.729c-3.694,1.328-7.676,2.058-11.826,2.058
	c-19.283,0-34.914-15.631-34.914-34.913c0-19.283,15.631-34.914,34.914-34.914c0.719,0,1.431,0.028,2.138,0.071
	c9.154-13.521,24.636-22.408,42.194-22.408c17.515,0,32.96,8.844,42.123,22.309c1.033-0.085,2.074-0.141,3.127-0.141
	c15.014,0,27.938,8.909,33.803,21.723C237.816,60.901,246.994,70.387,246.994,82.042L246.994,82.042z"/>
</svg>
